<?xml version="1.0" standalone="no"?>
<!DOCTYPE svg PUBLIC "-//W3C//DTD SVG 1.1//EN" "http://www.w3.org/Graphics/SVG/1.1/DTD/svg11.dtd" >
<svg xmlns="http://www.w3.org/2000/svg" xmlns:xlink="http://www.w3.org/1999/xlink" version="1.1">
<metadata>
Created by FontForge 20201107 at Mon May 20 14:52:24 2024
 By 
Copyright (c) 2021 Alifinart Studio
</metadata>
<defs>
<font id="MusticaPro-Regular" horiz-adv-x="1507" >
  <font-face 
    font-family="Mustica Pro"
    font-weight="400"
    font-variant="small-caps"
    font-stretch="normal"
    units-per-em="2048"
    panose-1="0 0 0 0 0 0 0 0 0 0"
    ascent="1638"
    descent="-410"
    x-height="1024"
    cap-height="1475"
    bbox="-348 -512 2675 2357"
    underline-thickness="102"
    underline-position="-255"
    unicode-range="U+000D-FB05"
  />
<missing-glyph horiz-adv-x="1249" 
d="M211 1049l139 -56q29 97 106.5 154t180.5 57q124 0 189 -62t65 -165q0 -18 -4 -35.5t-9 -31t-17.5 -31.5t-20 -28t-26.5 -29.5t-27 -28t-32 -30.5t-32 -30q-104 -98 -151.5 -191t-47.5 -200h146q0 78 33 140.5t118 144.5q11 10 43.5 41t45 44.5t38.5 42t37.5 49
t26.5 49.5t20.5 59.5t5.5 64.5q0 166 -108 270.5t-293 104.5q-149 0 -264 -82t-162 -221zM492 88q0 -43 30.5 -73.5t73.5 -30.5t73.5 30.5t30.5 73.5t-30.5 74t-73.5 31t-73.5 -31t-30.5 -74zM82 -201v1794q0 29 18 47.5t47 18.5h955q29 0 47 -18.5t18 -47.5v-1794
q0 -29 -18 -47t-47 -18h-955q-29 0 -47 18t-18 47z" />
    <glyph glyph-name="uniE051" unicode="ft" horiz-adv-x="1503" 
d="M723 1495v-164h-68q-125 0 -185 -54t-60 -198v-55h493q29 0 47.5 17.5t18.5 45.5v211h164v-274h288v-164h-288v-518q0 -119 28 -159t111 -40q53 0 149 15v-158q-75 -20 -159 -20q-160 0 -226.5 81t-66.5 275v524h-559v-860h-164v860h-205v164h205v55q0 416 409 416h68z
" />
    <glyph glyph-name="uniE052" unicode="fb" horiz-adv-x="2054" 
d="M1440 881q-152 0 -260.5 -108.5t-108.5 -260.5t108.5 -260.5t260.5 -108.5t260 108.5t108 260.5t-108 260.5t-260 108.5zM1440 1044q144 0 266.5 -71.5t194 -194t71.5 -266.5t-71.5 -266.5t-194 -194t-266.5 -71.5q-111 0 -212 56t-157 136v-172h-164v1331h-252
q-125 0 -185 -54t-60 -198v-55h313v-164h-313v-860h-164v860h-205v164h205v55q0 416 409 416h416v-643q56 80 157 136t212 56z" />
    <glyph glyph-name="uniE053" unicode="ffb" horiz-adv-x="2756" 
d="M2142 881q-152 0 -260 -108.5t-108 -260.5t108 -260.5t260 -108.5t260.5 108.5t108.5 260.5t-108.5 260.5t-260.5 108.5zM2142 1044q144 0 267 -71.5t194.5 -194t71.5 -266.5t-71.5 -266.5t-194.5 -194t-267 -71.5q-111 0 -211.5 56t-156.5 136v-172h-164v1331h-252
q-125 0 -185.5 -54t-60.5 -198v-55h313v-164h-313v-860h-164v860h-538v-860h-164v860h-205v164h205v55q0 416 409 416h68v-164h-68q-125 0 -185 -54t-60 -198v-55h538v55q0 416 410 416h416v-643q56 80 156.5 136t211.5 56z" />
    <glyph glyph-name="uniE054" unicode="fh" horiz-adv-x="1951" 
d="M655 1495h416v-610q62 71 147 115t185 44q185 0 295 -117t110 -319v-608h-163v600q0 156 -70.5 229.5t-194.5 73.5q-131 0 -220 -88t-89 -233v-582h-164v1331h-252q-125 0 -185 -54t-60 -198v-55h313v-164h-313v-860h-164v860h-205v164h205v55q0 416 409 416z" />
    <glyph glyph-name="uniE055" unicode="ffh" horiz-adv-x="2654" 
d="M1358 1495h416v-610q62 71 146.5 115t184.5 44q185 0 295.5 -117t110.5 -319v-608h-164v600q0 156 -70.5 229.5t-193.5 73.5q-133 0 -221 -87.5t-88 -233.5v-582h-164v1331h-252q-125 0 -185.5 -54t-60.5 -198v-55h313v-164h-313v-860h-164v860h-538v-860h-164v860h-205
v164h205v55q0 416 409 416h68v-164h-68q-125 0 -185 -54t-60 -198v-55h538v55q0 416 410 416z" />
    <glyph glyph-name="uniE056" unicode="fj" horiz-adv-x="1193" 
d="M969 1495q-43 0 -73 -30.5t-32 -73.5q0 -43 31 -73.5t74 -29.5q43 0 72.5 30t31.5 73q0 43 -30.5 73.5t-73.5 30.5zM1051 1024v-1139q0 -194 -66.5 -275t-226.5 -81h-31v164h18q85 0 113.5 40t28.5 158v969h-477v-860h-164v860h-205v164h205v55q0 416 409 416h68v-164
h-68q-125 0 -185 -54t-60 -198v-55h641z" />
    <glyph glyph-name="uniE057" unicode="ffj" horiz-adv-x="1896" 
d="M1671 1495q43 0 74 -30.5t31 -73.5q-2 -43 -32 -73t-73 -30q-43 -1 -73.5 29.5t-30.5 73.5q2 43 32 73.5t72 30.5zM1112 1024h641v-1139q0 -194 -66.5 -275t-226.5 -81h-30v164h18q85 0 113 39.5t28 158.5v969h-477v-860h-164v860h-538v-860h-164v860h-205v164h205v55
q0 416 409 416h68v-164h-68q-125 0 -185 -54t-60 -198v-55h538v55q0 416 410 416h67v-164h-67q-125 0 -185.5 -54t-60.5 -198v-55z" />
    <glyph glyph-name="uniE058" unicode="fk" horiz-adv-x="1783" 
d="M655 1495h416v-903l428 432h234l-488 -492l518 -532h-229l-463 475v-475h-164v1331h-252q-125 0 -185 -54t-60 -198v-55h313v-164h-313v-860h-164v860h-205v164h205v55q0 416 409 416z" />
    <glyph glyph-name="uniE059" unicode="ffk" horiz-adv-x="2486" 
d="M1358 1495h416v-903l428 432h233l-487 -492l518 -532h-230l-462 475v-475h-164v1331h-252q-125 0 -185.5 -54t-60.5 -198v-55h313v-164h-313v-860h-164v860h-538v-860h-164v860h-205v164h205v55q0 416 409 416h68v-164h-68q-125 0 -185 -54t-60 -198v-55h538v55
q0 416 410 416z" />
    <glyph glyph-name="f_f" unicode="ff" horiz-adv-x="1466" 
d="M948 860h-538v-860h-164v860h-205v164h205v55q0 416 409 416h68v-164h-68q-125 0 -185 -54t-60 -198v-55h538v55q0 416 410 416h67v-164h-67q-125 0 -185.5 -54t-60.5 -198v-55h313v-164h-313v-860h-164v860z" />
    <glyph glyph-name="fi" unicode="fi" horiz-adv-x="1193" 
d="M410 1024h641v-1024h-164v860h-477v-860h-164v860h-205v164h205v55q0 416 409 416h68v-164h-68q-125 0 -185 -54t-60 -198v-55zM969 1495q43 0 73.5 -30.5t30.5 -73.5q-2 -43 -31.5 -73t-72.5 -30q-43 -1 -74 29.5t-31 73.5q2 43 32 73.5t73 30.5z" />
    <glyph glyph-name="fl" unicode="fl" horiz-adv-x="1214" 
d="M907 1536h164v-1536h-164v1331h-252q-125 0 -185 -54t-60 -198v-55h313v-164h-313v-860h-164v860h-205v164h205v55q0 416 409 416h252v41z" />
    <glyph glyph-name="f_f_i" unicode="ffi" horiz-adv-x="1896" 
d="M1671 1495q43 0 74 -30.5t31 -73.5q-2 -43 -32 -73t-73 -30q-43 -1 -73.5 29.5t-30.5 73.5q2 43 32 73.5t72 30.5zM1112 1024h641v-1024h-164v860h-477v-860h-164v860h-538v-860h-164v860h-205v164h205v55q0 416 409 416h68v-164h-68q-125 0 -185 -54t-60 -198v-55h538
v55q0 416 410 416h67v-164h-67q-125 0 -185.5 -54t-60.5 -198v-55z" />
    <glyph glyph-name="f_f_l" unicode="ffl" horiz-adv-x="1916" 
d="M1610 1536h164v-1536h-164v1331h-252q-125 0 -185.5 -54t-60.5 -198v-55h313v-164h-313v-860h-164v860h-538v-860h-164v860h-205v164h205v55q0 416 409 416h68v-164h-68q-125 0 -185 -54t-60 -198v-55h538v55q0 416 410 416h252v41z" />
    <glyph glyph-name="longs_t" unicode="&#x17f;t" horiz-adv-x="1255" 
d="M514 1495q57 0 109.5 -14t100.5 -45t83.5 -76t56.5 -112t21 -148v-76h289v-164h-289v-518q0 -119 27.5 -159t111.5 -40q54 0 150 15v-158q-75 -20 -160 -20q-160 0 -226.5 81t-66.5 275v524h-205v164h139q29 0 47.5 17.5t18.5 45.5v13q0 117 -60.5 174t-146.5 57
q-87 0 -147 -57t-60 -174v-1100h-164v1100q0 101 31.5 179t85 124t118 69t136.5 23z" />
    <glyph glyph-name=".notdef" horiz-adv-x="1249" 
d="M211 1049l139 -56q29 97 106.5 154t180.5 57q124 0 189 -62t65 -165q0 -18 -4 -35.5t-9 -31t-17.5 -31.5t-20 -28t-26.5 -29.5t-27 -28t-32 -30.5t-32 -30q-104 -98 -151.5 -191t-47.5 -200h146q0 78 33 140.5t118 144.5q11 10 43.5 41t45 44.5t38.5 42t37.5 49
t26.5 49.5t20.5 59.5t5.5 64.5q0 166 -108 270.5t-293 104.5q-149 0 -264 -82t-162 -221zM492 88q0 -43 30.5 -73.5t73.5 -30.5t73.5 30.5t30.5 73.5t-30.5 74t-73.5 31t-73.5 -31t-30.5 -74zM82 -201v1794q0 29 18 47.5t47 18.5h955q29 0 47 -18.5t18 -47.5v-1794
q0 -29 -18 -47t-47 -18h-955q-29 0 -47 18t-18 47z" />
    <glyph glyph-name="uni0000" horiz-adv-x="0" 
 />
    <glyph glyph-name="uni0000" horiz-adv-x="0" 
 />
    <glyph glyph-name="uni000D" unicode="&#xd;" horiz-adv-x="512" 
 />
    <glyph glyph-name="space" unicode=" " horiz-adv-x="552" 
 />
    <glyph glyph-name="exclam" unicode="!" horiz-adv-x="559" 
d="M215 377l-18 559v539h163v-539l-16 -559h-129zM279 211q49 0 82.5 -33.5t33.5 -83.5q0 -48 -33.5 -81t-82.5 -33q-47 0 -81 33.5t-34 80.5q0 49 33.5 83t81.5 34z" />
    <glyph glyph-name="quotedbl" unicode="&#x22;" horiz-adv-x="593" 
d="M348 1329v146h164v-146l-18 -356h-127zM82 1329v146h164v-146l-19 -356h-127z" />
    <glyph glyph-name="numbersign" unicode="#" horiz-adv-x="1290" 
d="M457 1372h168l-72 -368h287l69 368h168l-71 -368h223l-33 -164h-221l-41 -205h223l-31 -164h-223l-72 -369h-165l71 369h-286l-72 -369h-166l72 369h-224l31 164h223l39 205h-221l31 164h223zM522 840l-41 -205h287l39 205h-285z" />
    <glyph glyph-name="dollar" unicode="$" horiz-adv-x="1320" 
d="M580 1659h163v-168q132 -15 249.5 -75t201.5 -156l-117 -117q-63 75 -149 121.5t-185 60.5v-485q84 -25 143.5 -47.5t129 -60.5t112.5 -81t72 -107.5t29 -142.5q0 -165 -136.5 -281.5t-349.5 -135.5v-168h-163v168q-311 24 -512 231l114 117q161 -161 398 -185v570
q-55 17 -96 31t-89.5 35t-83.5 42.5t-70 51.5t-56 63t-34.5 76.5t-13.5 93.5q0 160 117.5 262t325.5 119v168zM743 668v-521q142 17 232 87.5t90 166.5q0 90 -72 150t-250 117zM580 1327q-135 -13 -207 -70.5t-72 -146.5q0 -71 62 -120.5t217 -100.5v438z" />
    <glyph glyph-name="percent" unicode="%" horiz-adv-x="1773" 
d="M1470 1475h-167l-1002 -1475h170zM219 1135q0 -94 65.5 -160t157.5 -66q94 0 160 66t66 160q0 92 -66 157.5t-160 65.5q-92 0 -157.5 -65.5t-65.5 -157.5zM82 1135q0 149 105.5 254.5t254.5 105.5q151 0 257 -105.5t106 -254.5q0 -151 -106 -257t-257 -106
q-149 0 -254.5 106t-105.5 257zM1106 340q0 -92 65.5 -157.5t159.5 -65.5q92 0 157.5 65.5t65.5 157.5q0 94 -65.5 159.5t-157.5 65.5q-94 0 -159.5 -65.5t-65.5 -159.5zM969 340q0 151 105.5 256.5t256.5 105.5q149 0 255 -106t106 -256q0 -149 -106 -254.5t-255 -105.5
q-151 0 -256.5 105.5t-105.5 254.5z" />
    <glyph glyph-name="ampersand" unicode="&#x26;" horiz-adv-x="1431" 
d="M653 1495q173 0 277 -95t104 -255q0 -50 -12 -94t-29 -76.5t-48 -63t-57.5 -50t-70 -41.5t-72 -34t-75.5 -30q20 -19 61.5 -57t59.5 -56l268 -260q62 109 65 244l164 -25q-6 -195 -106 -340l188 -180l-108 -125l-189 182q-189 -162 -465 -162q-235 0 -380.5 116
t-145.5 308q0 72 21.5 133.5t52.5 102.5t77.5 76.5t84.5 55.5t85 40q-133 175 -133 336q0 155 106 252.5t277 97.5zM248 393q0 -117 98 -184.5t258 -67.5q207 0 348 115l-262 256q-17 16 -54.5 51.5t-69.5 66.5t-60 60q-56 -24 -97.5 -49t-80.5 -60t-59.5 -82.5
t-20.5 -105.5zM653 1331q-90 0 -154.5 -48.5t-64.5 -137.5q0 -119 127 -275q62 25 101.5 43t83 44.5t68 52t40.5 60t16 75.5q0 88 -64 137t-153 49z" />
    <glyph glyph-name="quotesingle" unicode="'" horiz-adv-x="327" 
d="M82 1329v146h164v-146l-19 -356h-127z" />
    <glyph glyph-name="parenleft" unicode="(" horiz-adv-x="632" 
d="M393 1638h199q-146 -183 -218.5 -434t-72.5 -528t72.5 -528.5t218.5 -434.5h-199q-127 177 -193.5 431t-66.5 532t66.5 531.5t193.5 430.5z" />
    <glyph glyph-name="parenright" unicode=")" horiz-adv-x="632" 
d="M41 1638h199q126 -178 193 -432t67 -530q0 -277 -67 -531t-193 -432h-199q146 183 218.5 434.5t72.5 528.5t-72.5 528t-218.5 434z" />
    <glyph glyph-name="asterisk" unicode="*" horiz-adv-x="847" 
d="M358 1391v84h131v-84l-14 -183l170 70l80 25l41 -123l-82 -27l-176 -45l117 -137l51 -70l-107 -76l-49 68l-96 154l-96 -154l-49 -68l-107 76l49 70l119 137l-178 45l-80 27l41 123l80 -25l168 -70z" />
    <glyph glyph-name="plus" unicode="+" horiz-adv-x="1042" 
d="M102 655v164h338v338h164v-338h336v-164h-336v-338h-164v338h-338z" />
    <glyph glyph-name="comma" unicode="," horiz-adv-x="409" 
d="M82 -336l41 508h184l-92 -508h-133z" />
    <glyph glyph-name="hyphen" unicode="-" horiz-adv-x="858" 
d="M143 412v163h572v-163h-572z" />
    <glyph glyph-name="period" unicode="." horiz-adv-x="477" 
d="M238 211q49 0 82.5 -33.5t33.5 -83.5q0 -48 -33.5 -81t-82.5 -33q-47 0 -81 33.5t-34 80.5q0 49 33.5 83t81.5 34z" />
    <glyph glyph-name="slash" unicode="/" horiz-adv-x="1062" 
d="M170 -225h-170l893 1884h170z" />
    <glyph glyph-name="zero" unicode="0" horiz-adv-x="1310" 
d="M82 737q0 355 152.5 556.5t420.5 201.5q269 0 421.5 -201.5t152.5 -556.5t-152.5 -556t-421.5 -201t-421 201t-152 556zM246 737q0 -287 105.5 -440.5t303.5 -153.5t304 153.5t106 440.5t-106 440.5t-304 153.5t-303.5 -153.5t-105.5 -440.5z" />
    <glyph glyph-name="one" unicode="1" horiz-adv-x="733" 
d="M41 1219l422 256h147v-1475h-164v1272l-321 -193z" />
    <glyph glyph-name="two" unicode="2" horiz-adv-x="1097" 
d="M524 1495q201 0 336 -126t135 -314q0 -132 -69 -255.5t-230 -281.5l-360 -354h680v-164h-932v145l496 488q48 47 72.5 72.5t65 74t60.5 85.5t36.5 88t16.5 102q0 119 -87.5 197.5t-219.5 78.5q-113 0 -196 -62t-115 -171l-156 61q54 155 179 245.5t288 90.5z" />
    <glyph glyph-name="three" unicode="3" horiz-adv-x="1048" 
d="M109 1475h829v-146l-340 -416q180 -32 289.5 -160.5t109.5 -310.5q0 -203 -137 -332.5t-352 -129.5q-170 0 -300.5 94t-187.5 258l154 61q35 -114 126 -182t208 -68q146 0 236 82.5t90 216.5q0 139 -96.5 227.5t-248.5 88.5q-36 0 -67 -8l-80 118l365 443h-598v164z" />
    <glyph glyph-name="four" unicode="4" horiz-adv-x="1204" 
d="M592 1475h186l-532 -992h557v381h164v-381h196v-164h-196v-319h-164v319h-762v127z" />
    <glyph glyph-name="five" unicode="5" horiz-adv-x="1069" 
d="M145 1475h807v-164h-651l-27 -359q112 41 240 41q229 0 366.5 -140.5t137.5 -369.5q0 -215 -147 -359t-365 -144q-171 0 -300 93.5t-186 258.5l154 61q36 -115 125.5 -182.5t210.5 -67.5q148 0 245 96t97 244q2 161 -87.5 252.5t-252.5 91.5q-146 0 -274 -69h-146z" />
    <glyph glyph-name="six" unicode="6" horiz-adv-x="1140" 
d="M571 -20q-212 0 -361 148.5t-149 360.5q0 149 76 267l467 719h197l-316 -484q43 6 86 6q138 0 255 -68t185 -185t68 -255q0 -139 -68 -256.5t-185 -185t-255 -67.5zM571 145q141 0 242.5 101t101.5 243q0 141 -101.5 243t-242.5 102q-144 0 -244 -101.5t-100 -243.5
q0 -143 100.5 -243.5t243.5 -100.5z" />
    <glyph glyph-name="seven" unicode="7" horiz-adv-x="1009" 
d="M31 1475h938v-142l-588 -1333h-178l577 1311h-749v164z" />
    <glyph glyph-name="eight" unicode="8" horiz-adv-x="1206" 
d="M602 1495q223 0 359.5 -112.5t136.5 -301.5q0 -207 -187 -323q234 -107 234 -352q0 -196 -138 -311t-405 -115q-266 0 -403.5 115t-137.5 311q0 244 232 352q-184 114 -184 323q0 189 135 301.5t358 112.5zM602 666q-164 0 -271.5 -68.5t-107.5 -191.5t92.5 -193
t286.5 -70q196 0 288.5 70t92.5 193t-108 191.5t-273 68.5zM602 1331q-153 0 -241.5 -66t-88.5 -184q0 -116 95 -184t235 -68q142 0 237 68t95 184q0 118 -89.5 184t-242.5 66z" />
    <glyph glyph-name="nine" unicode="9" horiz-adv-x="1140" 
d="M571 1495q138 0 255 -68t185 -185.5t68 -256.5q0 -150 -75 -266l-467 -719h-197l315 483q-44 -6 -84 -6q-139 0 -256.5 68t-185.5 185t-68 255q0 212 149 361t361 149zM571 1329q-143 0 -243.5 -100.5t-100.5 -243.5q0 -141 101 -242.5t243 -101.5t243 101.5t101 242.5
q0 142 -101.5 243t-242.5 101z" />
    <glyph glyph-name="colon" unicode=":" horiz-adv-x="477" 
d="M238 211q49 0 82.5 -33.5t33.5 -83.5q0 -48 -33.5 -81t-82.5 -33q-47 0 -81 33.5t-34 80.5q0 49 33.5 83t81.5 34zM238 963q49 0 82.5 -33.5t33.5 -81.5q0 -50 -33.5 -83.5t-82.5 -33.5q-48 0 -81.5 34t-33.5 83q0 47 34 81t81 34z" />
    <glyph glyph-name="semicolon" unicode=";" horiz-adv-x="477" 
d="M238 963q-47 0 -81 -34t-34 -81q0 -49 33.5 -83t81.5 -34q49 0 82.5 33.5t33.5 83.5q0 48 -33.5 81.5t-82.5 33.5zM98 -315l41 487h185l-93 -487h-133z" />
    <glyph glyph-name="less" unicode="&#x3c;" horiz-adv-x="1042" 
d="M92 819l858 338v-178l-610 -240l610 -239v-178l-858 337v160z" />
    <glyph glyph-name="equal" unicode="=" horiz-adv-x="1042" 
d="M102 840v164h838v-164h-838zM102 471v164h838v-164h-838z" />
    <glyph glyph-name="greater" unicode="&#x3e;" horiz-adv-x="1042" 
d="M950 819v-160l-858 -337v178l610 239l-610 240v178z" />
    <glyph glyph-name="question" unicode="?" horiz-adv-x="1132" 
d="M92 1159q54 155 181 245.5t292 90.5q206 0 325.5 -115.5t119.5 -300.5q0 -37 -6.5 -71t-22.5 -66t-30 -55t-41.5 -53.5t-43.5 -47t-50 -48.5t-48 -46q-93 -92 -130 -160t-38 -155h-162q1 120 53 221.5t168 210.5q9 9 40 38t41 39t33 34.5t31.5 38.5t21 35.5t16.5 42
t4 42.5q0 114 -72.5 183t-208.5 69q-115 0 -199.5 -63t-117.5 -170zM403 94q0 49 33.5 83t81.5 34q50 0 83.5 -33.5t33.5 -83.5q0 -47 -34 -80.5t-83 -33.5q-47 0 -81 33.5t-34 80.5z" />
    <glyph glyph-name="at" unicode="@" horiz-adv-x="1679" 
d="M803 868q88 0 166.5 -43.5t122.5 -107.5v135h137v-588q0 -78 16.5 -111.5t54.5 -33.5q67 0 118.5 101t51.5 233q0 178 -80 322t-222 226t-318 82q-180 0 -327.5 -84.5t-230.5 -229t-83 -316.5q0 -161 53.5 -284.5t149 -199.5t221 -114.5t276.5 -38.5q192 0 340 59
l37 -117q-187 -73 -389 -73q-177 0 -324.5 49t-257.5 143t-171.5 241.5t-61.5 334.5q0 155 59 294.5t161 241t245.5 161.5t304.5 60q159 0 297.5 -57.5t236.5 -157.5t154.5 -241t56.5 -301q0 -211 -84.5 -342t-220.5 -131q-79 0 -130 48t-66 136l-4 24
q-44 -64 -122.5 -107.5t-166.5 -43.5q-170 0 -292 122t-122 294q0 171 121.5 293t292.5 122zM803 729q-114 0 -194.5 -81t-80.5 -195t80.5 -195.5t194.5 -81.5q115 0 195.5 81.5t80.5 195.5t-80.5 195t-195.5 81z" />
    <glyph glyph-name="A" unicode="A" horiz-adv-x="1386" 
d="M20 0l586 1475h174l586 -1475h-176l-141 358h-709l-143 -358h-177zM983 522l-289 729l-291 -729h580z" />
    <glyph glyph-name="B" unicode="B" horiz-adv-x="1347" 
d="M184 1475h627q165 0 278 -105t113 -264q0 -101 -48.5 -186t-135.5 -138q110 -54 173.5 -153.5t63.5 -220.5q0 -175 -125 -291.5t-305 -116.5h-641v1475zM348 694v-530h477q110 0 188.5 77.5t78.5 186.5q0 110 -78.5 188t-188.5 78h-477zM348 1311v-453h463
q94 0 160.5 66.5t66.5 160.5q0 93 -67 159.5t-160 66.5h-463z" />
    <glyph glyph-name="C" unicode="C" horiz-adv-x="1466" 
d="M840 1495q162 0 305.5 -64t249.5 -178l-117 -116q-84 91 -197 142.5t-241 51.5q-161 0 -298 -79.5t-216.5 -216.5t-79.5 -298t79.5 -298t216.5 -216.5t298 -79.5q128 0 241 52t197 143l117 -117q-106 -114 -249.5 -177.5t-305.5 -63.5q-154 0 -294.5 60t-242 161.5
t-161.5 241.5t-60 294t60 294.5t161.5 242t242 161.5t294.5 60z" />
    <glyph glyph-name="D" unicode="D" horiz-adv-x="1533" 
d="M184 0v1475h543q209 0 375 -94.5t258 -263t92 -380.5t-92.5 -380.5t-258 -262.5t-374.5 -94h-543zM727 1311h-379v-1147h379q249 0 405 159t156 414t-156 414.5t-405 159.5z" />
    <glyph glyph-name="E" unicode="E" horiz-adv-x="1196" 
d="M184 1475h930v-164h-766v-451h684v-164h-684v-532h766v-164h-930v1475z" />
    <glyph glyph-name="F" unicode="F" horiz-adv-x="1175" 
d="M184 1475h930v-164h-766v-451h684v-164h-684v-696h-164v1475z" />
    <glyph glyph-name="G" unicode="G" horiz-adv-x="1521" 
d="M82 737q0 157 56.5 297.5t154 241.5t233 160t287.5 59q171 0 326.5 -71.5t259.5 -198.5l-117 -115q-82 103 -207.5 162t-261.5 59q-159 0 -289 -78t-204 -214t-74 -302q0 -165 74 -301.5t204 -214.5t287 -78q231 0 418 129v322h-418v164h582v-563q-117 -103 -269.5 -159
t-310.5 -56q-152 0 -287.5 59t-233 159.5t-154 241t-56.5 297.5z" />
    <glyph glyph-name="H" unicode="H" 
d="M184 1475h164v-615h811v615h164v-1475h-164v696h-811v-696h-164v1475z" />
    <glyph glyph-name="I" unicode="I" horiz-adv-x="532" 
d="M348 1475v-1475h-164v1475h164z" />
    <glyph glyph-name="J" unicode="J" horiz-adv-x="1282" 
d="M285 1475h813v-947q0 -243 -143.5 -395.5t-372.5 -152.5q-162 0 -301.5 85.5t-229.5 241.5l139 88q65 -117 169.5 -184.5t222.5 -67.5q158 0 255 106t97 279v783h-649v164z" />
    <glyph glyph-name="K" unicode="K" horiz-adv-x="1269" 
d="M184 1475h164v-598l639 598h236l-750 -703l776 -772h-233l-668 668v-668h-164v1475z" />
    <glyph glyph-name="L" unicode="L" horiz-adv-x="1191" 
d="M184 1475h164v-1311h772v-164h-936v1475z" />
    <glyph glyph-name="M" unicode="M" horiz-adv-x="1699" 
d="M184 1475h135l531 -918l530 918h136v-1475h-164v1100l-437 -758h-129l-438 758v-1100h-164v1475z" />
    <glyph glyph-name="N" unicode="N" 
d="M184 1475h158l817 -1178v1178h164v-1475h-158l-817 1178v-1178h-164v1475z" />
    <glyph glyph-name="O" unicode="O" horiz-adv-x="1679" 
d="M82 737q0 154 60 294.5t161.5 242t242 161.5t294.5 60t294 -60t241.5 -161.5t161.5 -242t60 -294.5q0 -206 -101.5 -380t-275.5 -275.5t-380 -101.5q-154 0 -294.5 60t-242 161.5t-161.5 241.5t-60 294zM246 737q0 -161 79.5 -298t216.5 -216.5t298 -79.5t298 79.5
t216.5 216.5t79.5 298t-79.5 298t-216.5 216.5t-298 79.5t-298 -79.5t-216.5 -216.5t-79.5 -298z" />
    <glyph glyph-name="P" unicode="P" horiz-adv-x="1308" 
d="M768 1311h-420v-635h418q129 0 213 90t84 227q0 138 -83.5 228t-211.5 90zM184 0v1475h582q201 0 331 -136.5t130 -345.5t-130 -345t-331 -136h-418v-512h-164z" />
    <glyph glyph-name="Q" unicode="Q" horiz-adv-x="1679" 
d="M840 1495q154 0 294 -60t241.5 -161.5t161.5 -242t60 -294.5q0 -148 -53.5 -281.5t-150.5 -236.5l161 -176l-122 -109l-164 179q-192 -133 -428 -133q-154 0 -294.5 60t-242 161.5t-161.5 241.5t-60 294t60 294.5t161.5 242t242 161.5t294.5 60zM840 1331
q-161 0 -298 -79.5t-216.5 -216.5t-79.5 -298t79.5 -298t216.5 -216.5t298 -79.5q172 0 317 93l-166 178l123 110l168 -184q152 171 152 397q0 161 -79.5 298t-216.5 216.5t-298 79.5z" />
    <glyph glyph-name="R" unicode="R" horiz-adv-x="1337" 
d="M184 1475h623q201 0 331 -136.5t130 -345.5q0 -146 -66 -259.5t-180 -172.5l274 -561h-182l-252 514q-8 0 -26 -1t-29 -1h-459v-512h-164v1475zM348 1311v-635h459q129 0 213 90t84 227q0 138 -83.5 228t-211.5 90h-461z" />
    <glyph glyph-name="S" unicode="S" horiz-adv-x="1320" 
d="M659 1495q157 0 298 -61.5t237 -173.5l-117 -117q-76 90 -185 139t-233 49q-172 0 -265 -59.5t-93 -161.5q0 -82 79.5 -135t291.5 -115q211 -62 300 -105q203 -97 245 -257q12 -46 12 -97q0 -181 -159.5 -301t-401.5 -120q-368 0 -600 235l114 117q189 -189 486 -189
q170 0 283.5 74.5t113.5 183.5q0 98 -86.5 162t-306.5 127q-213 60 -303 104q-194 92 -225 248q-7 32 -7 68q0 176 139.5 280.5t382.5 104.5z" />
    <glyph glyph-name="T" unicode="T" horiz-adv-x="1277" 
d="M51 1475h1176v-164h-506v-1311h-164v1311h-506v164z" />
    <glyph glyph-name="U" unicode="U" 
d="M184 1475h164v-908q0 -193 110.5 -308.5t295.5 -115.5t295 115.5t110 308.5v908h164v-908q0 -261 -158 -424t-411 -163t-411.5 163t-158.5 424v908z" />
    <glyph glyph-name="V" unicode="V" horiz-adv-x="1320" 
d="M10 1475h176l476 -1223l473 1223h176l-572 -1475h-157z" />
    <glyph glyph-name="W" unicode="W" horiz-adv-x="2013" 
d="M10 1475h176l373 -1223l371 1223h153l373 -1223l371 1223h176l-469 -1475h-158l-368 1161l-371 -1161h-158z" />
    <glyph glyph-name="X" unicode="X" horiz-adv-x="1247" 
d="M61 1475h197l367 -564l364 564h197l-463 -713l494 -762h-195l-397 610l-398 -610h-196l495 762z" />
    <glyph glyph-name="Y" unicode="Y" horiz-adv-x="1257" 
d="M547 520l-537 955h187l432 -764l432 764h186l-536 -955v-520h-164v520z" />
    <glyph glyph-name="Z" unicode="Z" horiz-adv-x="1255" 
d="M147 1475h979v-138l-796 -1173h833v-164h-1050v137l796 1174h-762v164z" />
    <glyph glyph-name="bracketleft" unicode="[" horiz-adv-x="591" 
d="M164 1638h387v-163h-223v-1598h223v-164h-387v1925z" />
    <glyph glyph-name="backslash" unicode="\" horiz-adv-x="1062" 
d="M893 -225l-893 1884h170l893 -1884h-170z" />
    <glyph glyph-name="bracketright" unicode="]" horiz-adv-x="591" 
d="M41 1475v163h387v-1925h-387v164h223v1598h-223z" />
    <glyph glyph-name="asciicircum" unicode="^" horiz-adv-x="1095" 
d="M629 1475l385 -715h-185l-282 524l-281 -524h-184l385 715h162z" />
    <glyph glyph-name="underscore" unicode="_" horiz-adv-x="837" 
d="M0 -317v163h838v-163h-838z" />
    <glyph glyph-name="grave" unicode="`" horiz-adv-x="483" 
d="M401 1192h-149l-170 285h166z" />
    <glyph glyph-name="a" unicode="a" horiz-adv-x="1290" 
d="M614 1044q111 0 212 -56t157 -136v172h164v-1024h-164v172q-56 -80 -157 -136t-212 -56q-144 0 -266.5 71.5t-194 194t-71.5 266.5t71.5 266.5t194 194t266.5 71.5zM614 881q-152 0 -260 -108.5t-108 -260.5t108 -260.5t260 -108.5t260.5 108.5t108.5 260.5t-108.5 260.5
t-260.5 108.5z" />
    <glyph glyph-name="b" unicode="b" horiz-adv-x="1290" 
d="M676 1044q144 0 266.5 -71.5t194 -194t71.5 -266.5t-71.5 -266.5t-194 -194t-266.5 -71.5q-111 0 -212 56t-157 136v-172h-164v1475h164v-623q56 80 157 136t212 56zM676 881q-152 0 -260.5 -108.5t-108.5 -260.5t108.5 -260.5t260.5 -108.5t260 108.5t108 260.5
t-108 260.5t-260 108.5z" />
    <glyph glyph-name="c" unicode="c" horiz-adv-x="1060" 
d="M82 512q0 144 71.5 266.5t194 194t266.5 71.5q112 0 212 -43.5t173 -121.5l-116 -117q-50 55 -120.5 86t-148.5 31q-152 0 -259.5 -107.5t-106.5 -259.5q0 -153 107 -261t259 -108q78 0 148 32t121 87l116 -117q-73 -78 -173 -121.5t-212 -43.5q-144 0 -266.5 71
t-194 193.5t-71.5 267.5z" />
    <glyph glyph-name="d" unicode="d" horiz-adv-x="1290" 
d="M614 1044q111 0 212 -56t157 -136v623h164v-1475h-164v172q-56 -80 -157 -136t-212 -56q-144 0 -266.5 71.5t-194 194t-71.5 266.5t71.5 266.5t194 194t266.5 71.5zM614 881q-152 0 -260 -108.5t-108 -260.5t108 -260.5t260 -108.5t260.5 108.5t108.5 260.5t-108.5 260.5
t-260.5 108.5z" />
    <glyph glyph-name="e" unicode="e" horiz-adv-x="1173" 
d="M82 512q0 229 148 380.5t372 151.5q218 0 354 -148t136 -384q0 -18 -3.5 -53.5t-3.5 -42.5h-827q31 -124 130.5 -197.5t242.5 -73.5q186 0 291 117l116 -117q-152 -165 -403 -165q-241 0 -397 150.5t-156 381.5zM252 580h670q-17 137 -103.5 219t-216.5 82
q-135 0 -231.5 -84t-118.5 -217z" />
    <glyph glyph-name="f" unicode="f" horiz-adv-x="763" 
d="M41 860v164h205v55q0 416 409 416h68v-164h-68q-125 0 -185 -54t-60 -198v-55h313v-164h-313v-860h-164v860h-205z" />
    <glyph glyph-name="g" unicode="g" horiz-adv-x="1290" 
d="M614 1044q111 0 212 -56t157 -136v172h164v-1004q0 -229 -146 -360t-401 -131q-125 0 -245 42.5t-208 123.5l117 117q63 -56 156.5 -87.5t187.5 -31.5q175 0 275 83.5t100 231.5v164q-56 -80 -157 -136t-212 -56q-144 0 -266.5 71.5t-194 194t-71.5 266.5t71.5 266.5
t194 194t266.5 71.5zM614 881q-152 0 -260 -108.5t-108 -260.5t108 -260.5t260 -108.5t260.5 108.5t108.5 260.5t-108.5 260.5t-260.5 108.5z" />
    <glyph glyph-name="h" unicode="h" horiz-adv-x="1187" 
d="M143 1475h164v-590q62 71 147 115t185 44q185 0 295 -117t110 -319v-608h-163v600q0 156 -70.5 229.5t-194.5 73.5q-131 0 -220 -88t-89 -233v-582h-164v1475z" />
    <glyph glyph-name="i" unicode="i" horiz-adv-x="450" 
d="M225 1495q43 0 74 -30.5t31 -73.5t-31 -73t-74 -30t-73.5 30t-30.5 73t30.5 73.5t73.5 30.5zM143 1024h164v-1024h-164v1024z" />
    <glyph glyph-name="j" unicode="j" horiz-adv-x="450" 
d="M143 -109v1133h164v-1139q0 -194 -66.5 -275t-226.5 -81h-30v164h18q85 0 113 39.5t28 158.5zM225 1495q-43 0 -73.5 -30.5t-30.5 -73.5t30.5 -73t73.5 -30t74 30t31 73t-31 73.5t-74 30.5z" />
    <glyph glyph-name="k" unicode="k" horiz-adv-x="1019" 
d="M143 1475h164v-883l428 432h234l-488 -492l518 -532h-229l-463 475v-475h-164v1475z" />
    <glyph glyph-name="l" unicode="l" horiz-adv-x="450" 
d="M307 1536v-1536h-164v1536h164z" />
    <glyph glyph-name="m" unicode="m" horiz-adv-x="1925" 
d="M143 1024h164v-139q62 71 147 115t185 44q125 0 219 -55.5t141 -157.5q64 96 162.5 154.5t214.5 58.5q185 0 295.5 -117t110.5 -319v-608h-164v600q0 156 -70.5 229.5t-193.5 73.5q-132 0 -221 -86.5t-89 -230.5v-586h-163v600q0 156 -70.5 229.5t-194.5 73.5
q-131 0 -220 -88t-89 -233v-582h-164v1024z" />
    <glyph glyph-name="n" unicode="n" horiz-adv-x="1187" 
d="M143 1024h164v-139q62 71 147 115t185 44q185 0 295 -117t110 -319v-608h-163v600q0 156 -70.5 229.5t-194.5 73.5q-131 0 -220 -88t-89 -233v-582h-164v1024z" />
    <glyph glyph-name="o" unicode="o" horiz-adv-x="1228" 
d="M248 512q0 -153 107 -261t259 -108t260.5 108.5t108.5 260.5t-108.5 259.5t-260.5 107.5t-259.5 -107.5t-106.5 -259.5zM82 512q0 144 71.5 266.5t194 194t266.5 71.5t267 -71.5t194.5 -194t71.5 -266.5q0 -145 -71.5 -267.5t-194.5 -193.5t-267 -71t-266.5 71
t-194 193.5t-71.5 267.5z" />
    <glyph glyph-name="p" unicode="p" horiz-adv-x="1290" 
d="M676 1044q144 0 266.5 -71.5t194 -194t71.5 -266.5t-71.5 -266.5t-194 -194t-266.5 -71.5q-111 0 -212 56t-157 136v-684h-164v1536h164v-172q56 80 157 136t212 56zM676 881q-152 0 -260.5 -108.5t-108.5 -260.5t108.5 -260.5t260.5 -108.5t260 108.5t108 260.5
t-108 260.5t-260 108.5z" />
    <glyph glyph-name="q" unicode="q" horiz-adv-x="1290" 
d="M614 1044q111 0 212 -56t157 -136v172h164v-1475h-164v623q-56 -80 -157 -136t-212 -56q-144 0 -266.5 71.5t-194 194t-71.5 266.5t71.5 266.5t194 194t266.5 71.5zM614 881q-152 0 -260 -108.5t-108 -260.5t108 -260.5t260 -108.5t260.5 108.5t108.5 260.5t-108.5 260.5
t-260.5 108.5z" />
    <glyph glyph-name="r" unicode="r" horiz-adv-x="679" 
d="M143 1024h164v-150q122 170 332 170v-141q-141 0 -236.5 -89.5t-95.5 -231.5v-582h-164v1024z" />
    <glyph glyph-name="s" unicode="s" horiz-adv-x="942" 
d="M453 1044q118 0 226 -44.5t179 -120.5l-117 -117q-117 117 -290 117q-90 0 -144.5 -33.5t-54.5 -81.5q0 -26 16.5 -47t61 -40t68 -26.5t90.5 -26.5q13 -4 20 -6q45 -12 74.5 -21.5t72.5 -26.5t71.5 -33.5t60 -42.5t50.5 -55.5t31.5 -69.5t12.5 -86q0 -131 -116.5 -217
t-293.5 -86q-245 0 -410 165l117 117q116 -119 297 -119q100 0 171 41t71 99q0 24 -9.5 45t-29 37.5t-37.5 28.5t-48.5 24t-48.5 18t-50 15t-41 12q-146 43 -195 66q-156 71 -170 201q-2 14 -2 30q0 127 103.5 205.5t263.5 78.5z" />
    <glyph glyph-name="t" unicode="t" horiz-adv-x="780" 
d="M246 1298h164v-274h288v-164h-288v-518q0 -119 28 -159t111 -40q53 0 149 15v-158q-75 -20 -159 -20q-160 0 -226.5 81t-66.5 275v524h-205v164h139q29 0 47.5 17.5t18.5 45.5v211z" />
    <glyph glyph-name="u" unicode="u" horiz-adv-x="1187" 
d="M1044 0h-163v139q-62 -71 -147 -115t-185 -44q-185 0 -295.5 117t-110.5 319v608h164v-600q0 -156 70.5 -229.5t193.5 -73.5q132 0 221 88t89 233v582h163v-1024z" />
    <glyph glyph-name="v" unicode="v" horiz-adv-x="1101" 
d="M20 1024h179l352 -821l352 821h178l-438 -1024h-182z" />
    <glyph glyph-name="w" unicode="w" horiz-adv-x="1441" 
d="M20 1024h173l225 -729l223 729h160l223 -729l225 729h172l-315 -1024h-162l-223 723l-223 -723h-162z" />
    <glyph glyph-name="x" unicode="x" horiz-adv-x="1087" 
d="M440 532l-387 492h209l283 -358l280 358h209l-385 -492l418 -532h-207l-315 401l-316 -401h-209z" />
    <glyph glyph-name="y" unicode="y" horiz-adv-x="1081" 
d="M20 1024h179l346 -809l338 809h178l-514 -1237q-109 -258 -344 -258q-46 0 -66 2v164q14 -2 45 -2q81 0 127 35.5t86 126.5l62 145z" />
    <glyph glyph-name="z" unicode="z" horiz-adv-x="983" 
d="M117 1024h764v-141l-566 -719h596v-164h-819v143l561 717h-536v164z" />
    <glyph glyph-name="braceleft" unicode="{" horiz-adv-x="628" 
d="M82 604v144q95 0 144.5 37t49.5 106v395q0 179 75 265.5t237 86.5v-153q-91 0 -120.5 -39.5t-29.5 -159.5v-395q0 -144 -133 -215q133 -71 133 -215v-395q0 -120 29.5 -159.5t120.5 -39.5v-154q-162 0 -237 87t-75 266v395q0 69 -49.5 106t-144.5 37z" />
    <glyph glyph-name="bar" unicode="|" horiz-adv-x="491" 
d="M328 1659v-1884h-164v1884h164z" />
    <glyph glyph-name="braceright" unicode="}" horiz-adv-x="628" 
d="M547 748v-144q-95 0 -145 -37t-50 -106v-395q0 -179 -74.5 -266t-236.5 -87v154q90 0 119.5 39.5t29.5 159.5v395q0 144 134 215q-134 71 -134 215v395q0 120 -29.5 159.5t-119.5 39.5v153q162 0 236.5 -86.5t74.5 -265.5v-395q0 -69 50 -106t145 -37z" />
    <glyph glyph-name="asciitilde" unicode="~" horiz-adv-x="1357" 
d="M449 913q58 0 113 -19.5t98.5 -47t85 -55t87 -47t89.5 -19.5q135 0 194 143l150 -73q-50 -110 -142.5 -172t-210.5 -62q-58 0 -114 19.5t-99.5 47.5t-84.5 55.5t-86.5 47t-88.5 19.5q-70 0 -120.5 -41t-77.5 -115l-150 76q47 114 141.5 178.5t215.5 64.5z" />
    <glyph glyph-name="exclamdown" unicode="&#xa1;" horiz-adv-x="559" 
d="M215 647h129l16 -559v-539h-163v539zM279 813q-48 0 -81.5 34t-33.5 83q0 47 34 80.5t81 33.5q49 0 82.5 -33t33.5 -81q0 -50 -33.5 -83.5t-82.5 -33.5z" />
    <glyph glyph-name="cent" unicode="&#xa2;" horiz-adv-x="1060" 
d="M72 676q0 197 126 344.5t316 179.5v152h164v-150q184 -24 311 -160l-117 -116q-107 116 -268 116q-152 0 -260 -107t-108 -259t108 -260.5t260 -108.5q158 0 268 119l117 -117q-125 -135 -311 -162v-147h-164v152q-190 32 -316 179.5t-126 344.5z" />
    <glyph glyph-name="sterling" unicode="&#xa3;" horiz-adv-x="1107" 
d="M715 1495q183 0 352 -98l-59 -154q-144 88 -293 88q-154 0 -220.5 -80.5t-66.5 -267.5v-190h408v-164h-408v-146q0 -117 -28 -193.5t-89 -125.5h721v-164h-981v164q104 15 158.5 97t54.5 222v146h-194v164h194v190q0 512 451 512z" />
    <glyph glyph-name="currency" unicode="&#xa4;" horiz-adv-x="1089" 
d="M545 1169q140 0 254 -84l125 125l94 -94l-125 -125q84 -114 84 -254t-84 -254l125 -125l-94 -94l-125 125q-114 -84 -254 -84t-254 84l-125 -125l-94 94l125 125q-82 116 -82 254t82 254l-125 125l94 94l125 -125q114 84 254 84zM545 1034q-123 0 -210 -86.5t-87 -210.5
q0 -123 86.5 -210t210.5 -87t211.5 86.5t87.5 210.5q0 123 -87.5 210t-211.5 87z" />
    <glyph glyph-name="yen" unicode="&#xa5;" horiz-adv-x="1277" 
d="M492 635l-472 840h187l432 -764l432 764h186l-471 -840h252v-164h-317v-123h317v-164h-317v-184h-164v184h-317v164h317v123h-317v164h252z" />
    <glyph glyph-name="brokenbar" unicode="&#xa6;" horiz-adv-x="491" 
d="M328 492v-717h-164v717h164zM328 1659v-717h-164v717h164z" />
    <glyph glyph-name="section" unicode="&#xa7;" horiz-adv-x="954" 
d="M485 1495q105 0 209.5 -45.5t173.5 -120.5l-116 -117q-53 58 -123.5 88.5t-145.5 30.5q-98 0 -159.5 -32.5t-61.5 -84.5q0 -18 9.5 -34t29.5 -29t39 -23.5t49 -20.5t47 -15.5t46.5 -13t35.5 -9.5q64 -18 112 -36t100.5 -48t85.5 -65.5t55 -88t22 -116.5q0 -163 -135 -260
q98 -74 98 -191q0 -129 -106 -206.5t-283 -77.5q-104 0 -208 45t-173 120l117 117q52 -57 122.5 -88t145.5 -31q97 0 158 32.5t61 84.5q0 14 -6 27t-18.5 24t-25.5 20.5t-33.5 18.5t-36 15t-38.5 13.5t-36 11t-34.5 9t-27.5 7.5q-64 18 -112 36t-100 48t-85 65.5t-54.5 88
t-21.5 116.5q0 162 136 260q-101 74 -101 190q0 129 107 207t282 78zM369 942q-62 -26 -103 -75t-41 -107q0 -42 19 -72t77.5 -62t167.5 -65q25 -7 95 -29q62 26 102.5 75.5t40.5 107.5q0 42 -18.5 71.5t-77 61.5t-168.5 65q-17 5 -50.5 15.5t-43.5 13.5z" />
    <glyph glyph-name="dieresis" unicode="&#xa8;" horiz-adv-x="819" 
d="M205 1495q43 0 73.5 -30.5t30.5 -73.5t-30.5 -73t-73.5 -30t-74 30t-31 73t31 73.5t74 30.5zM614 1495q43 0 74 -30.5t31 -73.5t-31 -73t-74 -30t-73.5 30t-30.5 73t30.5 73.5t73.5 30.5z" />
    <glyph glyph-name="copyright" unicode="&#xa9;" horiz-adv-x="1679" 
d="M840 1495q154 0 294 -60t241.5 -161.5t161.5 -242t60 -294.5q0 -206 -101.5 -380t-275.5 -275.5t-380 -101.5q-154 0 -294.5 60t-242 161.5t-161.5 241.5t-60 294t60 294.5t161.5 242t242 161.5t294.5 60zM840 1368q-128 0 -245 -50t-201.5 -134.5t-134.5 -201.5
t-50 -245t50 -245t134.5 -201.5t201.5 -134.5t245 -50q171 0 316 84.5t229.5 230t84.5 316.5t-84.5 316.5t-229.5 230t-316 84.5zM840 1182q95 0 179.5 -37.5t145.5 -104.5l-98 -96q-93 100 -227 100q-128 0 -218 -90t-90 -217t90 -217t218 -90q134 0 227 100l98 -96
q-61 -67 -145 -104t-180 -37q-185 0 -315 130t-130 314q0 185 130.5 315t314.5 130z" />
    <glyph glyph-name="ordfeminine" unicode="&#xaa;" horiz-adv-x="847" 
d="M381 1487q67 0 127.5 -33.5t93.5 -81.5v103h123v-615h-123v103q-33 -48 -93.5 -81.5t-127.5 -33.5q-132 0 -226 93.5t-94 225.5t94 226t226 94zM381 1364q-82 0 -139.5 -57.5t-57.5 -139.5t57.5 -139t139.5 -57t139.5 57t57.5 139t-57.5 139.5t-139.5 57.5zM78 616v121
h647v-121h-647z" />
    <glyph glyph-name="guillemotleft" unicode="&#xab;" horiz-adv-x="1112" 
d="M395 150l-272 382l272 383h211l-272 -383l272 -382h-211zM776 150l-272 382l272 383h213l-274 -383l274 -382h-213z" />
    <glyph glyph-name="logicalnot" unicode="&#xac;" horiz-adv-x="1124" 
d="M102 655v164h920v-481h-164v317h-756z" />
    <glyph glyph-name="registered" unicode="&#xae;" horiz-adv-x="1679" 
d="M840 1495q154 0 294 -60t241.5 -161.5t161.5 -242t60 -294.5q0 -206 -101.5 -380t-275.5 -275.5t-380 -101.5q-154 0 -294.5 60t-242 161.5t-161.5 241.5t-60 294t60 294.5t161.5 242t242 161.5t294.5 60zM840 1368q-128 0 -245 -50t-201.5 -134.5t-134.5 -201.5
t-50 -245t50 -245t134.5 -201.5t201.5 -134.5t245 -50q171 0 316 84.5t229.5 230t84.5 316.5t-84.5 316.5t-229.5 230t-316 84.5zM526 1171h344q118 0 195.5 -80.5t77.5 -203.5q0 -83 -36 -148.5t-99 -101.5l163 -338h-153l-148 303h-20h-184v-303h-140v872zM666 1032v-293
h204q58 0 97 41.5t39 106.5t-38 105t-96 40h-206z" />
    <glyph glyph-name="macron" unicode="&#xaf;" horiz-adv-x="757" 
d="M123 1268v127h512v-127h-512z" />
    <glyph glyph-name="degree" unicode="&#xb0;" horiz-adv-x="780" 
d="M205 1350q0 -77 54 -131t132 -54q76 0 130 54t54 131q0 78 -53.5 132t-130.5 54q-78 0 -132 -54t-54 -132zM82 1350q0 129 90 219t219 90q128 0 217.5 -90t89.5 -219q0 -128 -90 -218t-217 -90q-129 0 -219 90t-90 218z" />
    <glyph glyph-name="plusminus" unicode="&#xb1;" horiz-adv-x="1042" 
d="M102 821v164h338v338h164v-338h336v-164h-336v-338h-164v338h-338zM102 166v164h838v-164h-838z" />
    <glyph glyph-name="twosuperior" unicode="&#xb2;" horiz-adv-x="755" 
d="M78 1507q32 94 107.5 148.5t176.5 54.5q122 0 200.5 -74t78.5 -192q0 -78 -42 -152.5t-136 -167.5l-195 -190h385v-121h-569v105l291 292q44 43 70 72.5t49.5 75.5t23.5 90q0 63 -41.5 101t-111.5 38q-135 0 -183 -135z" />
    <glyph glyph-name="threesuperior" unicode="&#xb3;" horiz-adv-x="698" 
d="M94 1698h498v-99l-199 -239q105 -20 169.5 -97t64.5 -184q0 -123 -82 -200.5t-211 -77.5q-101 0 -180 61.5t-113 161.5l111 33q21 -64 70.5 -99.5t111.5 -35.5q76 0 123 43t47 114q0 73 -50 119.5t-130 46.5q-19 0 -43 -4l-60 92l197 242h-324v123z" />
    <glyph glyph-name="acute" unicode="&#xb4;" horiz-adv-x="483" 
d="M82 1192l154 285h165l-170 -285h-149z" />
    <glyph glyph-name="paragraph" unicode="&#xb6;" horiz-adv-x="1331" 
d="M82 1024q0 186 132 318.5t318 132.5h615v-1700h-164v1536h-205v-1536h-164v796h-82q-186 0 -318 133t-132 320z" />
    <glyph glyph-name="periodcentered" unicode="&#xb7;" horiz-adv-x="395" 
d="M197 852q49 0 82.5 -33.5t33.5 -81.5t-33.5 -81t-82.5 -33q-47 0 -81 33.5t-34 80.5t34 81t81 34z" />
    <glyph glyph-name="cedilla" unicode="&#xb8;" horiz-adv-x="612" 
d="M127 -262q81 -35 172 -35q44 0 76.5 16t32.5 45q0 35 -45 58t-134 39l21 139h131l-10 -76q76 -20 117.5 -59.5t41.5 -91.5q0 -78 -72.5 -126t-181.5 -48q-95 0 -194 36z" />
    <glyph glyph-name="onesuperior" unicode="&#xb9;" horiz-adv-x="571" 
d="M61 1544l254 154h113v-885h-123v737l-182 -110z" />
    <glyph glyph-name="ordmasculine" unicode="&#xba;" horiz-adv-x="761" 
d="M184 1176q0 -82 57.5 -139.5t139.5 -57.5t139.5 57.5t57.5 139.5t-57.5 139t-139.5 57t-139.5 -57t-57.5 -139zM61 1176q0 132 94 225.5t226 93.5t225.5 -93.5t93.5 -225.5t-93.5 -226t-225.5 -94t-226 94t-94 226zM78 737v-121h606v121h-606z" />
    <glyph glyph-name="guillemotright" unicode="&#xbb;" horiz-adv-x="1112" 
d="M715 150h-211l274 382l-274 383h211l274 -383zM334 150h-211l272 382l-272 383h211l272 -383z" />
    <glyph glyph-name="onequarter" unicode="&#xbc;" horiz-adv-x="1968" 
d="M1389 1475h174l-1022 -1475h-174zM123 1321l254 154h112v-869h-122v721l-183 -110zM1616 510h123v-203h106v-123h-106v-184h-123v184h-445v105l330 579h141l-317 -561h291v203z" />
    <glyph glyph-name="onehalf" unicode="&#xbd;" horiz-adv-x="2017" 
d="M1389 1475h174l-1022 -1475h-174zM123 1321l254 154h112v-869h-122v721l-183 -110zM1319 678q32 94 108 148.5t177 54.5q122 0 200 -72.5t78 -190.5q0 -79 -41 -153t-137 -162l-195 -182h385v-121h-569v104l291 285q46 45 70.5 72t48.5 72.5t24 89.5q0 63 -41 99t-112 36
q-135 0 -183 -135z" />
    <glyph glyph-name="threequarters" unicode="&#xbe;" horiz-adv-x="2050" 
d="M176 1475h498v-99l-199 -231q105 -20 169.5 -97t64.5 -184q0 -123 -82 -200.5t-211 -77.5q-103 0 -181 56.5t-112 154.5l110 45q21 -64 70.5 -99.5t112.5 -35.5q76 0 123 43t47 114q0 73 -50 119.5t-130 46.5q-20 0 -44 -4l-59 92l197 234h-324v123zM1698 510h123v-203
h106v-123h-106v-184h-123v184h-445v105l330 579h141l-317 -561h291v203zM1470 1475h175l-1022 -1475h-174z" />
    <glyph glyph-name="questiondown" unicode="&#xbf;" horiz-adv-x="1122" 
d="M1040 -135q-54 -155 -181 -245.5t-292 -90.5q-206 0 -325 115.5t-119 300.5q0 37 6 71t23 66.5t29 54.5t41.5 54t43 46t51 49t48.5 46q93 91 129.5 159.5t37.5 155.5h162q-1 -119 -53.5 -221t-167.5 -211q-8 -7 -40 -37.5t-40.5 -39.5t-32.5 -34.5t-31.5 -38.5
t-20.5 -35.5t-17 -42.5t-4 -42q0 -114 71.5 -183t208.5 -69q114 0 200 63.5t118 169.5zM729 930q0 -49 -34.5 -83t-82.5 -34q-47 0 -80.5 34t-33.5 83q0 47 33.5 80.5t80.5 33.5q48 0 82.5 -33.5t34.5 -80.5z" />
    <glyph glyph-name="Agrave" unicode="&#xc0;" horiz-adv-x="1386" 
d="M20 0l586 1475h174l586 -1475h-176l-141 358h-709l-143 -358h-177zM983 522l-289 729l-291 -729h580zM616 1927l154 -285h-149l-168 285h163z" />
    <glyph glyph-name="Aacute" unicode="&#xc1;" horiz-adv-x="1386" 
d="M20 0l586 1475h174l586 -1475h-176l-141 358h-709l-143 -358h-177zM983 522l-289 729l-291 -729h580zM766 1642h-150l154 285h164z" />
    <glyph glyph-name="Acircumflex" unicode="&#xc2;" horiz-adv-x="1386" 
d="M20 0l586 1475h174l586 -1475h-176l-141 358h-709l-143 -358h-177zM983 522l-289 729l-291 -729h580zM344 1642l252 285h197l249 -285h-170l-178 185l-180 -185h-170z" />
    <glyph glyph-name="Atilde" unicode="&#xc3;" horiz-adv-x="1386" 
d="M20 0l586 1475h174l586 -1475h-176l-141 358h-709l-143 -358h-177zM983 522l-289 729l-291 -729h580zM557 1925q44 0 80 -13.5t60 -32.5t44 -38.5t42.5 -33t45.5 -13.5q41 0 58 24t20 87h129q-6 -240 -207 -240q-44 0 -80 13.5t-60 32.5t-44 38.5t-42.5 33t-45.5 13.5
q-41 0 -58 -23t-20 -83h-129q9 235 207 235z" />
    <glyph glyph-name="Adieresis" unicode="&#xc4;" horiz-adv-x="1386" 
d="M20 0l586 1475h174l586 -1475h-176l-141 358h-709l-143 -358h-177zM983 522l-289 729l-291 -729h580zM899 1872q42 0 72 -31t30 -74t-29.5 -72.5t-72.5 -29.5t-73.5 29.5t-30.5 72.5t30.5 74t73.5 31zM489 1872q43 0 73 -31t30 -74t-30 -72.5t-73 -29.5t-73.5 29.5
t-30.5 72.5t30.5 74t73.5 31z" />
    <glyph glyph-name="Aring" unicode="&#xc5;" horiz-adv-x="1386" 
d="M20 0l586 1475h174l586 -1475h-176l-141 358h-709l-143 -358h-177zM983 522l-289 729l-291 -729h580zM440 1833q0 104 75 178t179 74t178 -74t74 -178t-74 -178t-178 -74t-179 74t-75 178zM573 1833q0 -50 35 -85.5t86 -35.5q50 0 85.5 36t35.5 85q0 51 -35.5 86
t-85.5 35q-51 0 -86 -35t-35 -86z" />
    <glyph glyph-name="AE" unicode="&#xc6;" horiz-adv-x="1988" 
d="M750 1475h1157v-164h-766v-451h684v-164h-684v-532h766v-164h-930v358h-602l-178 -358h-177zM852 1311l-395 -789h520v789h-125z" />
    <glyph glyph-name="Ccedilla" unicode="&#xc7;" horiz-adv-x="1456" 
d="M82 737q0 154 60 294.5t161.5 242t242 161.5t294.5 60q162 0 305.5 -64t249.5 -178l-117 -116q-84 91 -197 142.5t-241 51.5q-161 0 -298 -79.5t-216.5 -216.5t-79.5 -298t79.5 -298t216.5 -216.5t298 -79.5q128 0 241 52t197 143l117 -117q-102 -109 -240 -173t-293 -68
l-6 -56q74 -21 116 -60t42 -91q0 -78 -72.5 -126t-181.5 -48q-96 0 -195 36l45 103q81 -35 174 -35q43 0 75.5 16t31.5 45q0 35 -44.5 58t-133.5 39l18 127q-182 25 -330 130.5t-233.5 268.5t-85.5 350z" />
    <glyph glyph-name="Egrave" unicode="&#xc8;" horiz-adv-x="1196" 
d="M184 1475h930v-164h-766v-451h684v-164h-684v-532h766v-164h-930v1475zM776 1642h-149l-170 285h166z" />
    <glyph glyph-name="Eacute" unicode="&#xc9;" horiz-adv-x="1196" 
d="M184 1475h930v-164h-766v-451h684v-164h-684v-532h766v-164h-930v1475zM537 1642l153 285h166l-170 -285h-149z" />
    <glyph glyph-name="Ecircumflex" unicode="&#xca;" horiz-adv-x="1196" 
d="M184 1475h930v-164h-766v-451h684v-164h-684v-532h766v-164h-930v1475zM541 1927h196l252 -285h-172l-178 185l-178 -185h-172z" />
    <glyph glyph-name="Edieresis" unicode="&#xcb;" horiz-adv-x="1196" 
d="M184 1475h930v-164h-766v-451h684v-164h-684v-532h766v-164h-930v1475zM854 1872q43 0 73.5 -31t30.5 -74t-30.5 -72.5t-73.5 -29.5t-73.5 29.5t-30.5 72.5t30.5 74t73.5 31zM444 1872q43 0 74 -31t31 -74q0 -42 -31 -72t-74 -30t-73.5 29.5t-30.5 72.5t30.5 74t73.5 31z
" />
    <glyph glyph-name="Igrave" unicode="&#xcc;" horiz-adv-x="532" 
d="M348 1475v-1475h-164v1475h164zM365 1642h-150l-170 285h166z" />
    <glyph glyph-name="Iacute" unicode="&#xcd;" horiz-adv-x="532" 
d="M348 1475v-1475h-164v1475h164zM168 1642l154 285h165l-170 -285h-149z" />
    <glyph glyph-name="Icircumflex" unicode="&#xce;" horiz-adv-x="532" 
d="M348 1475v-1475h-164v1475h164zM168 1927h197l251 -285h-172l-178 185l-178 -185h-172z" />
    <glyph glyph-name="Idieresis" unicode="&#xcf;" horiz-adv-x="532" 
d="M348 1475v-1475h-164v1475h164zM61 1872q43 0 74 -31t31 -74q0 -42 -31 -72t-74 -30t-73.5 29.5t-30.5 72.5t30.5 74t73.5 31zM471 1872q43 0 73.5 -31t30.5 -74t-30.5 -72.5t-73.5 -29.5t-73.5 29.5t-30.5 72.5t30.5 74t73.5 31z" />
    <glyph glyph-name="Eth" unicode="&#xd0;" horiz-adv-x="1533" 
d="M184 655h-102v164h102v656h543q209 0 375 -94.5t258 -263t92 -380.5t-92.5 -380.5t-258 -262.5t-374.5 -94h-543v655zM653 655h-305v-491h379q249 0 405 159t156 414t-156 414.5t-405 159.5h-379v-492h305v-164z" />
    <glyph glyph-name="Ntilde" unicode="&#xd1;" 
d="M184 1475h158l817 -1178v1178h164v-1475h-158l-817 1178v-1178h-164v1475zM618 1925q43 0 79 -13.5t60 -32.5t44.5 -38.5t43 -33t46.5 -13.5q41 0 58 24t20 87h129q-6 -240 -207 -240q-44 0 -81 13.5t-61 32.5t-44 38.5t-42 33t-45 13.5q-41 0 -57.5 -23t-19.5 -83h-129
q6 235 206 235z" />
    <glyph glyph-name="Ograve" unicode="&#xd2;" horiz-adv-x="1679" 
d="M82 737q0 154 60 294.5t161.5 242t242 161.5t294.5 60t294 -60t241.5 -161.5t161.5 -242t60 -294.5q0 -206 -101.5 -380t-275.5 -275.5t-380 -101.5q-154 0 -294.5 60t-242 161.5t-161.5 241.5t-60 294zM246 737q0 -161 79.5 -298t216.5 -216.5t298 -79.5t298 79.5
t216.5 216.5t79.5 298t-79.5 298t-216.5 216.5t-298 79.5t-298 -79.5t-216.5 -216.5t-79.5 -298zM958 1642h-149l-170 285h166z" />
    <glyph glyph-name="Oacute" unicode="&#xd3;" horiz-adv-x="1679" 
d="M82 737q0 154 60 294.5t161.5 242t242 161.5t294.5 60t294 -60t241.5 -161.5t161.5 -242t60 -294.5q0 -206 -101.5 -380t-275.5 -275.5t-380 -101.5q-154 0 -294.5 60t-242 161.5t-161.5 241.5t-60 294zM246 737q0 -161 79.5 -298t216.5 -216.5t298 -79.5t298 79.5
t216.5 216.5t79.5 298t-79.5 298t-216.5 216.5t-298 79.5t-298 -79.5t-216.5 -216.5t-79.5 -298zM762 1642l153 285h166l-170 -285h-149z" />
    <glyph glyph-name="Ocircumflex" unicode="&#xd4;" horiz-adv-x="1679" 
d="M82 737q0 154 60 294.5t161.5 242t242 161.5t294.5 60t294 -60t241.5 -161.5t161.5 -242t60 -294.5q0 -206 -101.5 -380t-275.5 -275.5t-380 -101.5q-154 0 -294.5 60t-242 161.5t-161.5 241.5t-60 294zM246 737q0 -161 79.5 -298t216.5 -216.5t298 -79.5t298 79.5
t216.5 216.5t79.5 298t-79.5 298t-216.5 216.5t-298 79.5t-298 -79.5t-216.5 -216.5t-79.5 -298zM741 1927h197l252 -285h-172l-178 185l-178 -185h-173z" />
    <glyph glyph-name="Otilde" unicode="&#xd5;" horiz-adv-x="1679" 
d="M82 737q0 154 60 294.5t161.5 242t242 161.5t294.5 60t294 -60t241.5 -161.5t161.5 -242t60 -294.5q0 -206 -101.5 -380t-275.5 -275.5t-380 -101.5q-154 0 -294.5 60t-242 161.5t-161.5 241.5t-60 294zM246 737q0 -161 79.5 -298t216.5 -216.5t298 -79.5t298 79.5
t216.5 216.5t79.5 298t-79.5 298t-216.5 216.5t-298 79.5t-298 -79.5t-216.5 -216.5t-79.5 -298zM702 1925q44 0 80 -13.5t60 -32.5t45 -38.5t43.5 -33t46.5 -13.5q40 0 57.5 24.5t18.5 86.5h131q-9 -240 -207 -240q-54 0 -98 20.5t-67.5 45t-52.5 45t-57 20.5
q-40 0 -57 -23t-20 -83h-129q9 235 206 235z" />
    <glyph glyph-name="Odieresis" unicode="&#xd6;" horiz-adv-x="1679" 
d="M82 737q0 154 60 294.5t161.5 242t242 161.5t294.5 60t294 -60t241.5 -161.5t161.5 -242t60 -294.5q0 -206 -101.5 -380t-275.5 -275.5t-380 -101.5q-154 0 -294.5 60t-242 161.5t-161.5 241.5t-60 294zM246 737q0 -161 79.5 -298t216.5 -216.5t298 -79.5t298 79.5
t216.5 216.5t79.5 298t-79.5 298t-216.5 216.5t-298 79.5t-298 -79.5t-216.5 -216.5t-79.5 -298zM1044 1872q43 0 74 -31t31 -74q0 -42 -31 -72t-74 -30t-73.5 29.5t-30.5 72.5t30.5 74t73.5 31zM635 1872q43 0 73.5 -31t30.5 -74t-30.5 -72.5t-73.5 -29.5t-74 30t-31 72
q0 43 31 74t74 31z" />
    <glyph glyph-name="multiply" unicode="&#xd7;" horiz-adv-x="1042" 
d="M168 975l115 117l239 -238l238 238l114 -117l-237 -238l237 -237l-114 -117l-238 238l-239 -238l-115 117l238 237z" />
    <glyph glyph-name="Oslash" unicode="&#xd8;" horiz-adv-x="1679" 
d="M840 1495q138 0 268 -49l74 151h151l-100 -213q167 -101 265.5 -273t98.5 -374q0 -206 -101.5 -380t-275.5 -275.5t-380 -101.5q-136 0 -252 43l-70 -146h-151l96 203q-174 100 -277.5 275t-103.5 382q0 154 60 294.5t161.5 242t242 161.5t294.5 60zM840 1331
q-161 0 -298 -79.5t-216.5 -216.5t-79.5 -298q0 -159 77.5 -294t208.5 -214l506 1067q-93 35 -198 35zM1161 1237l-504 -1065q92 -29 183 -29q161 0 298 79.5t216.5 216.5t79.5 298q0 154 -74 286.5t-199 213.5z" />
    <glyph glyph-name="Ugrave" unicode="&#xd9;" 
d="M184 1475h164v-908q0 -193 110.5 -308.5t295.5 -115.5t295 115.5t110 308.5v908h164v-908q0 -261 -158 -424t-411 -163t-411.5 163t-158.5 424v908zM872 1642h-149l-170 285h166z" />
    <glyph glyph-name="Uacute" unicode="&#xda;" 
d="M184 1475h164v-908q0 -193 110.5 -308.5t295.5 -115.5t295 115.5t110 308.5v908h164v-908q0 -261 -158 -424t-411 -163t-411.5 163t-158.5 424v908zM635 1642l153 285h166l-170 -285h-149z" />
    <glyph glyph-name="Ucircumflex" unicode="&#xdb;" 
d="M184 1475h164v-908q0 -193 110.5 -308.5t295.5 -115.5t295 115.5t110 308.5v908h164v-908q0 -261 -158 -424t-411 -163t-411.5 163t-158.5 424v908zM655 1927h197l252 -285h-172l-178 185l-179 -185h-172z" />
    <glyph glyph-name="Udieresis" unicode="&#xdc;" 
d="M184 1475h164v-908q0 -193 110.5 -308.5t295.5 -115.5t295 115.5t110 308.5v908h164v-908q0 -261 -158 -424t-411 -163t-411.5 163t-158.5 424v908zM549 1872q43 0 73.5 -31t30.5 -74t-30.5 -72.5t-73.5 -29.5t-74 30t-31 72q0 43 31 74t74 31zM958 1872q43 0 74 -31
t31 -74q0 -42 -31 -72t-74 -30t-73.5 29.5t-30.5 72.5t30.5 74t73.5 31z" />
    <glyph glyph-name="Yacute" unicode="&#xdd;" horiz-adv-x="1257" 
d="M547 520l-537 955h187l432 -764l432 764h186l-536 -955v-520h-164v520zM659 1642h-149l154 285h165z" />
    <glyph glyph-name="Thorn" unicode="&#xde;" horiz-adv-x="1325" 
d="M328 1475v-250h428q132 0 244 -65.5t177.5 -178t65.5 -244.5t-65.5 -244t-177.5 -177.5t-244 -65.5h-428v-250h-144v1475h144zM756 1061h-428v-647h428q134 0 228.5 95t94.5 228q0 135 -94.5 229.5t-228.5 94.5z" />
    <glyph glyph-name="germandbls" unicode="&#xdf;" horiz-adv-x="1243" 
d="M629 1497q188 0 309.5 -110t120.5 -281q0 -80 -33.5 -154.5t-97.5 -128.5q111 -53 172 -154.5t61 -238.5q0 -206 -134.5 -328.5t-358.5 -121.5q-147 0 -265 34v172q133 -45 275 -45q154 0 237.5 77t81.5 210q0 132 -81 206.5t-224 74.5h-243v163h155q143 6 217 71.5
t74 156.5q0 103 -77.5 169t-194.5 64q-141 -2 -228.5 -94t-87.5 -244v-995h-164v993q0 224 135.5 362.5t350.5 141.5z" />
    <glyph glyph-name="agrave" unicode="&#xe0;" horiz-adv-x="1290" 
d="M713 1192h-150l-170 285h166zM614 1044q111 0 212 -56t157 -136v172h164v-1024h-164v172q-56 -80 -157 -136t-212 -56q-144 0 -266.5 71.5t-194 194t-71.5 266.5t71.5 266.5t194 194t266.5 71.5zM614 881q-152 0 -260 -108.5t-108 -260.5t108 -260.5t260 -108.5
t260.5 108.5t108.5 260.5t-108.5 260.5t-260.5 108.5z" />
    <glyph glyph-name="aacute" unicode="&#xe1;" horiz-adv-x="1290" 
d="M557 1192l154 285h166l-170 -285h-150zM614 1044q111 0 212 -56t157 -136v172h164v-1024h-164v172q-56 -80 -157 -136t-212 -56q-144 0 -266.5 71.5t-194 194t-71.5 266.5t71.5 266.5t194 194t266.5 71.5zM614 881q-152 0 -260 -108.5t-108 -260.5t108 -260.5t260 -108.5
t260.5 108.5t108.5 260.5t-108.5 260.5t-260.5 108.5z" />
    <glyph glyph-name="acircumflex" unicode="&#xe2;" horiz-adv-x="1290" 
d="M502 1477h196l252 -285h-172l-178 184l-178 -184h-172zM614 1044q111 0 212 -56t157 -136v172h164v-1024h-164v172q-56 -80 -157 -136t-212 -56q-144 0 -266.5 71.5t-194 194t-71.5 266.5t71.5 266.5t194 194t266.5 71.5zM614 881q-152 0 -260 -108.5t-108 -260.5
t108 -260.5t260 -108.5t260.5 108.5t108.5 260.5t-108.5 260.5t-260.5 108.5z" />
    <glyph glyph-name="atilde" unicode="&#xe3;" horiz-adv-x="1290" 
d="M463 1495q53 0 96.5 -20.5t67 -45t52.5 -45t58 -20.5q40 0 57.5 24.5t18.5 86.5h131q-9 -240 -207 -240q-54 0 -98 20.5t-67 45t-52 45t-57 20.5q-40 0 -57.5 -23.5t-20.5 -82.5h-129q9 235 207 235zM614 1044q111 0 212 -56t157 -136v172h164v-1024h-164v172
q-56 -80 -157 -136t-212 -56q-144 0 -266.5 71.5t-194 194t-71.5 266.5t71.5 266.5t194 194t266.5 71.5zM614 881q-152 0 -260 -108.5t-108 -260.5t108 -260.5t260 -108.5t260.5 108.5t108.5 260.5t-108.5 260.5t-260.5 108.5z" />
    <glyph glyph-name="adieresis" unicode="&#xe4;" horiz-adv-x="1290" 
d="M420 1495q43 0 73.5 -30.5t30.5 -73.5t-30.5 -73t-73.5 -30t-74 30t-31 73t31 73.5t74 30.5zM829 1495q43 0 74 -30.5t31 -73.5t-31 -73t-74 -30t-73.5 30t-30.5 73t30.5 73.5t73.5 30.5zM614 1044q111 0 212 -56t157 -136v172h164v-1024h-164v172q-56 -80 -157 -136
t-212 -56q-144 0 -266.5 71.5t-194 194t-71.5 266.5t71.5 266.5t194 194t266.5 71.5zM614 881q-152 0 -260 -108.5t-108 -260.5t108 -260.5t260 -108.5t260.5 108.5t108.5 260.5t-108.5 260.5t-260.5 108.5z" />
    <glyph glyph-name="aring" unicode="&#xe5;" horiz-adv-x="1290" 
d="M362 1423q0 104 74 178t178 74t178 -74t74 -178t-74 -178t-178 -74t-178 74t-74 178zM494 1423q0 -50 34.5 -85t85.5 -35t86 35t35 85q0 51 -35 86t-86 35t-85.5 -35t-34.5 -86zM614 1044q111 0 212 -56t157 -136v172h164v-1024h-164v172q-56 -80 -157 -136t-212 -56
q-144 0 -266.5 71.5t-194 194t-71.5 266.5t71.5 266.5t194 194t266.5 71.5zM614 881q-152 0 -260 -108.5t-108 -260.5t108 -260.5t260 -108.5t260.5 108.5t108.5 260.5t-108.5 260.5t-260.5 108.5z" />
    <glyph glyph-name="ae" unicode="&#xe6;" horiz-adv-x="2078" 
d="M614 -20q-144 0 -266.5 71.5t-194 194t-71.5 266.5t71.5 266.5t194 194t266.5 71.5q111 0 212 -56t157 -136v172h164v-119q145 139 360 139q218 0 353 -147.5t137 -384.5q0 -3 -6 -96h-828q31 -124 130.5 -197.5t240.5 -73.5q185 0 293 117l117 -117q-156 -165 -404 -165
q-236 0 -393 147v-127h-164v172q-56 -80 -157 -136t-212 -56zM614 881q-152 0 -260 -108.5t-108 -260.5t108 -260.5t260 -108.5t260.5 108.5t108.5 260.5t-108.5 260.5t-260.5 108.5zM1157 580h670q-19 137 -105.5 219t-216.5 82q-134 0 -231 -84t-117 -217z" />
    <glyph glyph-name="ccedilla" unicode="&#xe7;" horiz-adv-x="1060" 
d="M614 1044q112 0 212 -43.5t173 -121.5l-116 -117q-50 55 -120.5 86t-148.5 31q-152 0 -259.5 -107.5t-106.5 -259.5q0 -153 107 -261t259 -108q78 0 148 32t121 87l116 -117q-130 -140 -321 -161l-8 -60q75 -20 116 -59.5t41 -91.5q0 -78 -71.5 -126t-180.5 -48
q-95 0 -194 36l45 103q81 -35 172 -35q42 0 75.5 16t33.5 45q0 35 -45 58t-134 39l19 123q-197 25 -331 175.5t-134 352.5q0 144 71.5 266.5t194 194t266.5 71.5z" />
    <glyph glyph-name="egrave" unicode="&#xe8;" horiz-adv-x="1173" 
d="M82 512q0 229 148 380.5t372 151.5q218 0 354 -148t136 -384q0 -18 -3.5 -53.5t-3.5 -42.5h-827q31 -124 130.5 -197.5t242.5 -73.5q186 0 291 117l116 -117q-152 -165 -403 -165q-241 0 -397 150.5t-156 381.5zM252 580h670q-17 137 -103.5 219t-216.5 82
q-135 0 -231.5 -84t-118.5 -217zM705 1192h-150l-168 285h164z" />
    <glyph glyph-name="eacute" unicode="&#xe9;" horiz-adv-x="1173" 
d="M82 512q0 229 148 380.5t372 151.5q218 0 354 -148t136 -384q0 -18 -3.5 -53.5t-3.5 -42.5h-827q31 -124 130.5 -197.5t242.5 -73.5q186 0 291 117l116 -117q-152 -165 -403 -165q-241 0 -397 150.5t-156 381.5zM252 580h670q-17 137 -103.5 219t-216.5 82
q-135 0 -231.5 -84t-118.5 -217zM489 1192l154 285h164l-168 -285h-150z" />
    <glyph glyph-name="ecircumflex" unicode="&#xea;" horiz-adv-x="1173" 
d="M82 512q0 229 148 380.5t372 151.5q218 0 354 -148t136 -384q0 -18 -3.5 -53.5t-3.5 -42.5h-827q31 -124 130.5 -197.5t242.5 -73.5q186 0 291 117l116 -117q-152 -165 -403 -165q-241 0 -397 150.5t-156 381.5zM252 580h670q-17 137 -103.5 219t-216.5 82
q-135 0 -231.5 -84t-118.5 -217zM489 1477h197l250 -285h-170l-180 184l-178 -184h-170z" />
    <glyph glyph-name="edieresis" unicode="&#xeb;" horiz-adv-x="1173" 
d="M82 512q0 229 148 380.5t372 151.5q218 0 354 -148t136 -384q0 -18 -3.5 -53.5t-3.5 -42.5h-827q31 -124 130.5 -197.5t242.5 -73.5q186 0 291 117l116 -117q-152 -165 -403 -165q-241 0 -397 150.5t-156 381.5zM252 580h670q-17 137 -103.5 219t-216.5 82
q-135 0 -231.5 -84t-118.5 -217zM383 1495q41 0 71.5 -30.5t30.5 -73.5t-30.5 -73t-71.5 -30q-43 0 -73.5 30t-30.5 73t30.5 73.5t73.5 30.5zM793 1495q41 0 71.5 -30.5t30.5 -73.5t-30.5 -73t-71.5 -30q-43 0 -74 30t-31 73t31 73.5t74 30.5z" />
    <glyph glyph-name="igrave" unicode="&#xec;" horiz-adv-x="450" 
d="M143 1024h164v-1024h-164v1024zM324 1192h-150l-170 285h166z" />
    <glyph glyph-name="iacute" unicode="&#xed;" horiz-adv-x="450" 
d="M143 1024h164v-1024h-164v1024zM127 1192l154 285h165l-170 -285h-149z" />
    <glyph glyph-name="icircumflex" unicode="&#xee;" horiz-adv-x="450" 
d="M143 1024h164v-1024h-164v1024zM127 1477h197l251 -285h-172l-178 184l-178 -184h-172z" />
    <glyph glyph-name="idieresis" unicode="&#xef;" horiz-adv-x="450" 
d="M143 1024h164v-1024h-164v1024zM20 1495q43 0 74 -30.5t31 -73.5t-31 -73t-74 -30t-73.5 30t-30.5 73t30.5 73.5t73.5 30.5zM430 1495q43 0 74 -30.5t31 -73.5t-31 -73t-74 -30t-73.5 30t-30.5 73t30.5 73.5t73.5 30.5z" />
    <glyph glyph-name="eth" unicode="&#xf0;" horiz-adv-x="1157" 
d="M547 952q185 0 332 -137q-70 266 -285 426l-119 -158l-102 74l114 152q-87 46 -194 84l61 151q127 -38 236 -100l125 166l102 -76l-123 -160q186 -141 283.5 -355t97.5 -454q-2 -270 -135 -427.5t-362 -157.5q-135 0 -249 66t-180.5 180t-66.5 249q0 199 134 338t331 139
zM578 807q-138 0 -235 -97.5t-97 -234.5q0 -138 97 -235t235 -97q136 0 231.5 97t97.5 235q0 137 -96.5 234.5t-232.5 97.5z" />
    <glyph glyph-name="ntilde" unicode="&#xf1;" horiz-adv-x="1187" 
d="M143 1024h164v-139q62 71 147 115t185 44q185 0 295 -117t110 -319v-608h-163v600q0 156 -70.5 229.5t-194.5 73.5q-131 0 -220 -88t-89 -233v-582h-164v1024zM477 1495q44 0 80 -13.5t60 -32.5t45 -38.5t43.5 -33t46.5 -13.5q40 0 57 24.5t18 86.5h131
q-9 -240 -206 -240q-54 0 -98 20.5t-67.5 45t-52.5 45t-57 20.5q-40 0 -57.5 -23.5t-20.5 -82.5h-129q9 235 207 235z" />
    <glyph glyph-name="ograve" unicode="&#xf2;" horiz-adv-x="1228" 
d="M248 512q0 -153 107 -261t259 -108t260.5 108.5t108.5 260.5t-108.5 259.5t-260.5 107.5t-259.5 -107.5t-106.5 -259.5zM82 512q0 144 71.5 266.5t194 194t266.5 71.5t267 -71.5t194.5 -194t71.5 -266.5q0 -145 -71.5 -267.5t-194.5 -193.5t-267 -71t-266.5 71
t-194 193.5t-71.5 267.5zM553 1477l154 -285h-150l-170 285h166z" />
    <glyph glyph-name="oacute" unicode="&#xf3;" horiz-adv-x="1228" 
d="M248 512q0 -153 107 -261t259 -108t260.5 108.5t108.5 260.5t-108.5 259.5t-260.5 107.5t-259.5 -107.5t-106.5 -259.5zM82 512q0 144 71.5 266.5t194 194t266.5 71.5t267 -71.5t194.5 -194t71.5 -266.5q0 -145 -71.5 -267.5t-194.5 -193.5t-267 -71t-266.5 71
t-194 193.5t-71.5 267.5zM684 1192h-149l153 285h166z" />
    <glyph glyph-name="ocircumflex" unicode="&#xf4;" horiz-adv-x="1228" 
d="M248 512q0 -153 107 -261t259 -108t260.5 108.5t108.5 260.5t-108.5 259.5t-260.5 107.5t-259.5 -107.5t-106.5 -259.5zM82 512q0 144 71.5 266.5t194 194t266.5 71.5t267 -71.5t194.5 -194t71.5 -266.5q0 -145 -71.5 -267.5t-194.5 -193.5t-267 -71t-266.5 71
t-194 193.5t-71.5 267.5zM264 1192l252 285h197l252 -285h-172l-179 184l-178 -184h-172z" />
    <glyph glyph-name="otilde" unicode="&#xf5;" horiz-adv-x="1228" 
d="M248 512q0 -153 107 -261t259 -108t260.5 108.5t108.5 260.5t-108.5 259.5t-260.5 107.5t-259.5 -107.5t-106.5 -259.5zM82 512q0 144 71.5 266.5t194 194t266.5 71.5t267 -71.5t194.5 -194t71.5 -266.5q0 -145 -71.5 -267.5t-194.5 -193.5t-267 -71t-266.5 71
t-194 193.5t-71.5 267.5zM477 1495q44 0 80 -13.5t60 -32.5t45 -38.5t43.5 -33t46.5 -13.5q40 0 57 24.5t18 86.5h131q-9 -240 -206 -240q-54 0 -98 20.5t-67.5 45t-52.5 45t-57 20.5q-40 0 -57.5 -23.5t-20.5 -82.5h-129q9 235 207 235z" />
    <glyph glyph-name="odieresis" unicode="&#xf6;" horiz-adv-x="1228" 
d="M248 512q0 -153 107 -261t259 -108t260.5 108.5t108.5 260.5t-108.5 259.5t-260.5 107.5t-259.5 -107.5t-106.5 -259.5zM82 512q0 144 71.5 266.5t194 194t266.5 71.5t267 -71.5t194.5 -194t71.5 -266.5q0 -145 -71.5 -267.5t-194.5 -193.5t-267 -71t-266.5 71
t-194 193.5t-71.5 267.5zM410 1495q43 0 73.5 -30.5t30.5 -73.5t-30.5 -73t-73.5 -30t-74 30t-31 73t31 73.5t74 30.5zM819 1495q43 0 74 -30.5t31 -73.5t-31 -73t-74 -30t-73.5 30t-30.5 73t30.5 73.5t73.5 30.5z" />
    <glyph glyph-name="divide" unicode="&#xf7;" horiz-adv-x="1042" 
d="M102 655v164h838v-164h-838zM522 532q-49 0 -80.5 -33t-31.5 -81q0 -50 31.5 -83.5t80.5 -33.5q48 0 83.5 34t35.5 83q0 47 -35.5 80.5t-83.5 33.5zM522 1174q-49 0 -80.5 -33.5t-31.5 -83.5q0 -48 31.5 -81.5t80.5 -33.5q48 0 83.5 34t35.5 81q0 49 -35.5 83t-83.5 34z
" />
    <glyph glyph-name="oslash" unicode="&#xf8;" horiz-adv-x="1228" 
d="M780 1018l60 129h153l-90 -189q112 -72 178 -190.5t66 -255.5q0 -145 -71.5 -267.5t-194.5 -193.5t-267 -71q-84 0 -163 24l-60 -127h-151l88 186q-112 72 -179 191t-67 258q0 144 71.5 266.5t194 194t266.5 71.5q89 0 166 -26zM709 868q-57 11 -95 11
q-152 0 -259.5 -107.5t-106.5 -259.5q0 -91 40.5 -169t110.5 -128zM831 809l-309 -653q37 -9 92 -13q152 0 259.5 108t109.5 261q0 89 -41 167t-111 130z" />
    <glyph glyph-name="ugrave" unicode="&#xf9;" horiz-adv-x="1187" 
d="M1044 0h-163v139q-62 -71 -147 -115t-185 -44q-185 0 -295.5 117t-110.5 319v608h164v-600q0 -156 70.5 -229.5t193.5 -73.5q132 0 221 88t89 233v582h163v-1024zM696 1192h-149l-170 285h166z" />
    <glyph glyph-name="uacute" unicode="&#xfa;" horiz-adv-x="1187" 
d="M1044 0h-163v139q-62 -71 -147 -115t-185 -44q-185 0 -295.5 117t-110.5 319v608h164v-600q0 -156 70.5 -229.5t193.5 -73.5q132 0 221 88t89 233v582h163v-1024zM492 1192l153 285h166l-170 -285h-149z" />
    <glyph glyph-name="ucircumflex" unicode="&#xfb;" horiz-adv-x="1187" 
d="M1044 0h-163v139q-62 -71 -147 -115t-185 -44q-185 0 -295.5 117t-110.5 319v608h164v-600q0 -156 70.5 -229.5t193.5 -73.5q132 0 221 88t89 233v582h163v-1024zM496 1477h196l252 -285h-172l-178 184l-178 -184h-172z" />
    <glyph glyph-name="udieresis" unicode="&#xfc;" horiz-adv-x="1187" 
d="M1044 0h-163v139q-62 -71 -147 -115t-185 -44q-185 0 -295.5 117t-110.5 319v608h164v-600q0 -156 70.5 -229.5t193.5 -73.5q132 0 221 88t89 233v582h163v-1024zM389 1495q43 0 74 -30.5t31 -73.5t-31 -73t-74 -30t-73.5 30t-30.5 73t30.5 73.5t73.5 30.5zM799 1495
q43 0 73.5 -30.5t30.5 -73.5t-30.5 -73t-73.5 -30t-74 30t-31 73t31 73.5t74 30.5z" />
    <glyph glyph-name="yacute" unicode="&#xfd;" horiz-adv-x="1081" 
d="M20 1024h179l346 -809l338 809h178l-514 -1237q-109 -258 -344 -258q-46 0 -66 2v164q14 -2 45 -2q81 0 127 35.5t86 126.5l62 145zM422 1192l153 285h166l-170 -285h-149z" />
    <glyph glyph-name="thorn" unicode="&#xfe;" horiz-adv-x="1290" 
d="M676 1044q144 0 266.5 -71.5t194 -194t71.5 -266.5t-71.5 -266.5t-194 -194t-266.5 -71.5q-111 0 -212 56t-157 136v-623h-164v1926h164v-623q56 80 157 136t212 56zM676 881q-152 0 -260.5 -108.5t-108.5 -260.5t108.5 -260.5t260.5 -108.5t260 108.5t108 260.5
t-108 260.5t-260 108.5z" />
    <glyph glyph-name="ydieresis" unicode="&#xff;" horiz-adv-x="1081" 
d="M20 1024h179l346 -809l338 809h178l-514 -1237q-109 -258 -344 -258q-46 0 -66 2v164q14 -2 45 -2q81 0 127 35.5t86 126.5l62 145zM336 1495q43 0 73.5 -30.5t30.5 -73.5t-30.5 -73t-73.5 -30t-73 30t-30 73t30 73.5t73 30.5zM745 1495q43 0 74 -30.5t31 -73.5t-31 -73
t-74 -30t-72.5 30t-29.5 73t29.5 73.5t72.5 30.5z" />
    <glyph glyph-name="Amacron" unicode="&#x100;" horiz-adv-x="1386" 
d="M20 0l586 1475h174l586 -1475h-176l-141 358h-709l-143 -358h-177zM983 522l-289 729l-291 -729h580zM438 1698v127h512v-127h-512z" />
    <glyph glyph-name="amacron" unicode="&#x101;" horiz-adv-x="1290" 
d="M614 1044q111 0 212 -56t157 -136v172h164v-1024h-164v172q-56 -80 -157 -136t-212 -56q-144 0 -266.5 71.5t-194 194t-71.5 266.5t71.5 266.5t194 194t266.5 71.5zM614 881q-152 0 -260 -108.5t-108 -260.5t108 -260.5t260 -108.5t260.5 108.5t108.5 260.5t-108.5 260.5
t-260.5 108.5zM358 1395h512v-127h-512v127z" />
    <glyph glyph-name="Abreve" unicode="&#x102;" horiz-adv-x="1386" 
d="M20 0l586 1475h174l586 -1475h-176l-141 358h-709l-143 -358h-177zM983 522l-289 729l-291 -729h580zM367 1925h133q12 -164 194 -164q178 0 193 164h133q-6 -146 -91 -222.5t-235 -76.5q-151 0 -236 76.5t-91 222.5z" />
    <glyph glyph-name="abreve" unicode="&#x103;" horiz-adv-x="1290" 
d="M614 1044q111 0 212 -56t157 -136v172h164v-1024h-164v172q-56 -80 -157 -136t-212 -56q-144 0 -266.5 71.5t-194 194t-71.5 266.5t71.5 266.5t194 194t266.5 71.5zM614 881q-152 0 -260 -108.5t-108 -260.5t108 -260.5t260 -108.5t260.5 108.5t108.5 260.5t-108.5 260.5
t-260.5 108.5zM289 1475h131q15 -164 194 -164q180 0 195 164h131q-4 -146 -90 -222.5t-236 -76.5t-235.5 76.5t-89.5 222.5z" />
    <glyph glyph-name="Aogonek" unicode="&#x104;" horiz-adv-x="1386" 
d="M20 0l586 1475h174l586 -1475h-16q-57 -59 -100 -122t-44 -101q0 -34 20.5 -47.5t46.5 -10t56 16.5l12 -105q-43 -14 -87 -15t-82.5 12t-62.5 48t-24 88q0 95 127 236h-22l-141 358h-709l-143 -358h-177zM983 522l-289 729l-291 -729h580z" />
    <glyph glyph-name="aogonek" unicode="&#x105;" horiz-adv-x="1290" 
d="M614 1044q111 0 212 -56t157 -136v172h164v-1024h-10q-58 -58 -101 -121t-43 -102q0 -34 20.5 -47.5t46.5 -10t56 16.5l12 -105q-43 -14 -87 -15t-82.5 12t-62.5 48t-24 88q0 95 127 236h-16v172q-56 -80 -157 -136t-212 -56q-144 0 -266.5 71.5t-194 194t-71.5 266.5
t71.5 266.5t194 194t266.5 71.5zM614 881q-152 0 -260 -108.5t-108 -260.5t108 -260.5t260 -108.5t260.5 108.5t108.5 260.5t-108.5 260.5t-260.5 108.5z" />
    <glyph glyph-name="Cacute" unicode="&#x106;" horiz-adv-x="1466" 
d="M82 737q0 154 60 294.5t161.5 242t242 161.5t294.5 60q162 0 305.5 -64t249.5 -178l-117 -116q-84 91 -197 142.5t-241 51.5q-161 0 -298 -79.5t-216.5 -216.5t-79.5 -298t79.5 -298t216.5 -216.5t298 -79.5q128 0 241 52t197 143l117 -117q-106 -114 -249.5 -177.5
t-305.5 -63.5q-154 0 -294.5 60t-242 161.5t-161.5 241.5t-60 294zM707 1642l153 285h164l-168 -285h-149z" />
    <glyph glyph-name="cacute" unicode="&#x107;" horiz-adv-x="1060" 
d="M82 512q0 144 71.5 266.5t194 194t266.5 71.5q112 0 212 -43.5t173 -121.5l-116 -117q-50 55 -120.5 86t-148.5 31q-152 0 -259.5 -107.5t-106.5 -259.5q0 -153 107 -261t259 -108q78 0 148 32t121 87l116 -117q-73 -78 -173 -121.5t-212 -43.5q-144 0 -266.5 71
t-194 193.5t-71.5 267.5zM485 1192l154 285h166l-170 -285h-150z" />
    <glyph glyph-name="Ccircumflex" unicode="&#x108;" horiz-adv-x="1466" 
d="M82 737q0 154 60 294.5t161.5 242t242 161.5t294.5 60q162 0 305.5 -64t249.5 -178l-117 -116q-84 91 -197 142.5t-241 51.5q-161 0 -298 -79.5t-216.5 -216.5t-79.5 -298t79.5 -298t216.5 -216.5t298 -79.5q128 0 241 52t197 143l117 -117q-106 -114 -249.5 -177.5
t-305.5 -63.5q-154 0 -294.5 60t-242 161.5t-161.5 241.5t-60 294zM735 1927h197l250 -285h-170l-181 185l-178 -185h-170z" />
    <glyph glyph-name="ccircumflex" unicode="&#x109;" horiz-adv-x="1060" 
d="M82 512q0 144 71.5 266.5t194 194t266.5 71.5q112 0 212 -43.5t173 -121.5l-116 -117q-50 55 -120.5 86t-148.5 31q-152 0 -259.5 -107.5t-106.5 -259.5q0 -153 107 -261t259 -108q78 0 148 32t121 87l116 -117q-73 -78 -173 -121.5t-212 -43.5q-144 0 -266.5 71
t-194 193.5t-71.5 267.5zM518 1477h197l252 -285h-172l-179 184l-178 -184h-172z" />
    <glyph glyph-name="Cdotaccent" unicode="&#x10a;" horiz-adv-x="1466" 
d="M82 737q0 154 60 294.5t161.5 242t242 161.5t294.5 60q162 0 305.5 -64t249.5 -178l-117 -116q-84 91 -197 142.5t-241 51.5q-161 0 -298 -79.5t-216.5 -216.5t-79.5 -298t79.5 -298t216.5 -216.5t298 -79.5q128 0 241 52t197 143l117 -117q-106 -114 -249.5 -177.5
t-305.5 -63.5q-154 0 -294.5 60t-242 161.5t-161.5 241.5t-60 294zM829 1872q43 0 74 -31t31 -74q0 -42 -31 -72t-74 -30q-42 0 -72 30t-30 72q0 43 30.5 74t71.5 31z" />
    <glyph glyph-name="cdotaccent" unicode="&#x10b;" horiz-adv-x="1060" 
d="M82 512q0 144 71.5 266.5t194 194t266.5 71.5q112 0 212 -43.5t173 -121.5l-116 -117q-50 55 -120.5 86t-148.5 31q-152 0 -259.5 -107.5t-106.5 -259.5q0 -153 107 -261t259 -108q78 0 148 32t121 87l116 -117q-73 -78 -173 -121.5t-212 -43.5q-144 0 -266.5 71
t-194 193.5t-71.5 267.5zM612 1495q43 0 74 -30.5t31 -73.5t-31 -73t-74 -30t-72.5 30t-29.5 73t29.5 73.5t72.5 30.5z" />
    <glyph glyph-name="Ccaron" unicode="&#x10c;" horiz-adv-x="1466" 
d="M82 737q0 154 60 294.5t161.5 242t242 161.5t294.5 60q162 0 305.5 -64t249.5 -178l-117 -116q-84 91 -197 142.5t-241 51.5q-161 0 -298 -79.5t-216.5 -216.5t-79.5 -298t79.5 -298t216.5 -216.5t298 -79.5q128 0 241 52t197 143l117 -117q-106 -114 -249.5 -177.5
t-305.5 -63.5q-154 0 -294.5 60t-242 161.5t-161.5 241.5t-60 294zM754 1642l-252 285h170l178 -184l180 184h170l-250 -285h-196z" />
    <glyph glyph-name="ccaron" unicode="&#x10d;" horiz-adv-x="1060" 
d="M82 512q0 144 71.5 266.5t194 194t266.5 71.5q112 0 212 -43.5t173 -121.5l-116 -117q-50 55 -120.5 86t-148.5 31q-152 0 -259.5 -107.5t-106.5 -259.5q0 -153 107 -261t259 -108q78 0 148 32t121 87l116 -117q-73 -78 -173 -121.5t-212 -43.5q-144 0 -266.5 71
t-194 193.5t-71.5 267.5zM514 1192l-252 285h172l178 -185l179 185h172l-252 -285h-197z" />
    <glyph glyph-name="Dcaron" unicode="&#x10e;" horiz-adv-x="1533" 
d="M184 0v1475h543q209 0 375 -94.5t258 -263t92 -380.5t-92.5 -380.5t-258 -262.5t-374.5 -94h-543zM727 1311h-379v-1147h379q249 0 405 159t156 414t-156 414.5t-405 159.5zM836 1642h-197l-252 285h170l180 -184l178 184h170z" />
    <glyph glyph-name="dcaron" unicode="&#x10f;" horiz-adv-x="1490" 
d="M614 1044q111 0 212 -56t157 -136v623h164v-1475h-164v172q-56 -80 -157 -136t-212 -56q-144 0 -266.5 71.5t-194 194t-71.5 266.5t71.5 266.5t194 194t266.5 71.5zM614 881q-152 0 -260 -108.5t-108 -260.5t108 -260.5t260 -108.5t260.5 108.5t108.5 260.5t-108.5 260.5
t-260.5 108.5zM1321 1475h184l-65 -314h-148z" />
    <glyph glyph-name="Dcroat" unicode="&#x110;" horiz-adv-x="1533" 
d="M184 1475h543q209 0 375 -94.5t258 -263t92 -380.5t-92.5 -380.5t-258 -262.5t-374.5 -94h-543v655h-102v164h102v656zM727 1311h-379v-492h305v-164h-305v-491h379q249 0 405 159t156 414t-156 414.5t-405 159.5z" />
    <glyph glyph-name="dcroat" unicode="&#x111;" horiz-adv-x="1290" 
d="M614 1044q111 0 212 -56t157 -136v334h-246v127h246v162h164v-162h123v-127h-123v-1186h-164v172q-56 -80 -157 -136t-212 -56q-144 0 -266.5 71.5t-194 194t-71.5 266.5t71.5 266.5t194 194t266.5 71.5zM246 512q0 -152 108 -260.5t260 -108.5t260.5 108.5t108.5 260.5
t-108.5 260.5t-260.5 108.5t-260 -108.5t-108 -260.5z" />
    <glyph glyph-name="Emacron" unicode="&#x112;" horiz-adv-x="1196" 
d="M184 1475h930v-164h-766v-451h684v-164h-684v-532h766v-164h-930v1475zM401 1825h512v-127h-512v127z" />
    <glyph glyph-name="emacron" unicode="&#x113;" horiz-adv-x="1173" 
d="M82 512q0 229 148 380.5t372 151.5q218 0 354 -148t136 -384q0 -18 -3.5 -53.5t-3.5 -42.5h-827q31 -124 130.5 -197.5t242.5 -73.5q186 0 291 117l116 -117q-152 -165 -403 -165q-241 0 -397 150.5t-156 381.5zM252 580h670q-17 137 -103.5 219t-216.5 82
q-135 0 -231.5 -84t-118.5 -217zM342 1395h514v-127h-514v127z" />
    <glyph glyph-name="Ebreve" unicode="&#x114;" horiz-adv-x="1196" 
d="M184 1475h930v-164h-766v-451h684v-164h-684v-532h766v-164h-930v1475zM324 1925h131q15 -164 194 -164q180 0 195 164h133q-6 -146 -92 -222.5t-236 -76.5t-235.5 76.5t-89.5 222.5z" />
    <glyph glyph-name="ebreve" unicode="&#x115;" horiz-adv-x="1173" 
d="M82 512q0 229 148 380.5t372 151.5q218 0 354 -148t136 -384q0 -18 -3.5 -53.5t-3.5 -42.5h-827q31 -124 130.5 -197.5t242.5 -73.5q186 0 291 117l116 -117q-152 -165 -403 -165q-241 0 -397 150.5t-156 381.5zM252 580h670q-17 137 -103.5 219t-216.5 82
q-135 0 -231.5 -84t-118.5 -217zM281 1475h133q12 -164 192 -164t195 164h133q-6 -146 -91.5 -222.5t-236.5 -76.5q-149 0 -234 76.5t-91 222.5z" />
    <glyph glyph-name="Edotaccent" unicode="&#x116;" horiz-adv-x="1196" 
d="M184 1475h930v-164h-766v-451h684v-164h-684v-532h766v-164h-930v1475zM659 1872q43 0 74 -31t31 -74q0 -42 -31 -72t-74 -30t-73.5 29.5t-30.5 72.5t30.5 74t73.5 31z" />
    <glyph glyph-name="edotaccent" unicode="&#x117;" horiz-adv-x="1173" 
d="M82 512q0 229 148 380.5t372 151.5q218 0 354 -148t136 -384q0 -18 -3.5 -53.5t-3.5 -42.5h-827q31 -124 130.5 -197.5t242.5 -73.5q186 0 291 117l116 -117q-152 -165 -403 -165q-241 0 -397 150.5t-156 381.5zM252 580h670q-17 137 -103.5 219t-216.5 82
q-135 0 -231.5 -84t-118.5 -217zM618 1495q42 0 72.5 -30.5t30.5 -73.5q0 -42 -30.5 -72.5t-72.5 -30.5q-43 0 -73.5 30t-30.5 73t30.5 73.5t73.5 30.5z" />
    <glyph glyph-name="Eogonek" unicode="&#x118;" horiz-adv-x="1196" 
d="M184 1475h930v-164h-766v-451h684v-164h-684v-532h766v-164q-56 -58 -99 -121t-44 -100q0 -34 20.5 -47.5t46.5 -10t56 16.5l12 -105q-43 -14 -87 -15t-82.5 12.5t-62.5 48.5t-24 88q0 90 125 233h-791v1475z" />
    <glyph glyph-name="eogonek" unicode="&#x119;" horiz-adv-x="1173" 
d="M82 512q0 229 148 380.5t372 151.5q218 0 354 -148t136 -384q0 -18 -3.5 -53.5t-3.5 -42.5h-827q31 -124 130.5 -197.5t242.5 -73.5q186 0 291 117l116 -117q-44 -46 -112 -90q-101 -66 -162.5 -142.5t-61.5 -135.5q0 -41 33 -52.5t90 11.5l13 -105q-43 -14 -87 -15
t-82.5 12t-62.5 48t-24 88q0 94 133 220q-54 -4 -80 -4q-241 0 -397 150.5t-156 381.5zM602 881q-135 0 -231.5 -84t-118.5 -217h670q-17 137 -103.5 219t-216.5 82z" />
    <glyph glyph-name="Ecaron" unicode="&#x11a;" horiz-adv-x="1196" 
d="M184 1475h930v-164h-766v-451h684v-164h-684v-532h766v-164h-930v1475zM541 1642l-252 285h172l178 -184l178 184h172l-252 -285h-196z" />
    <glyph glyph-name="ecaron" unicode="&#x11b;" horiz-adv-x="1173" 
d="M82 512q0 229 148 380.5t372 151.5q218 0 354 -148t136 -384q0 -18 -3.5 -53.5t-3.5 -42.5h-827q31 -124 130.5 -197.5t242.5 -73.5q186 0 291 117l116 -117q-152 -165 -403 -165q-241 0 -397 150.5t-156 381.5zM252 580h670q-17 137 -103.5 219t-216.5 82
q-135 0 -231.5 -84t-118.5 -217zM506 1192l-252 285h170l178 -185l180 185h170l-250 -285h-196z" />
    <glyph glyph-name="Gcircumflex" unicode="&#x11c;" horiz-adv-x="1521" 
d="M82 737q0 157 56.5 297.5t154 241.5t233 160t287.5 59q171 0 326.5 -71.5t259.5 -198.5l-117 -115q-82 103 -207.5 162t-261.5 59q-159 0 -289 -78t-204 -214t-74 -302q0 -165 74 -301.5t204 -214.5t287 -78q231 0 418 129v322h-418v164h582v-563q-117 -103 -269.5 -159
t-310.5 -56q-152 0 -287.5 59t-233 159.5t-154 241t-56.5 297.5zM694 1927h197l252 -285h-172l-178 185l-179 -185h-172z" />
    <glyph glyph-name="gcircumflex" unicode="&#x11d;" horiz-adv-x="1290" 
d="M614 1044q111 0 212 -56t157 -136v172h164v-1004q0 -229 -146 -360t-401 -131q-125 0 -245 42.5t-208 123.5l117 117q63 -56 156.5 -87.5t187.5 -31.5q175 0 275 83.5t100 231.5v164q-56 -80 -157 -136t-212 -56q-144 0 -266.5 71.5t-194 194t-71.5 266.5t71.5 266.5
t194 194t266.5 71.5zM614 881q-152 0 -260 -108.5t-108 -260.5t108 -260.5t260 -108.5t260.5 108.5t108.5 260.5t-108.5 260.5t-260.5 108.5zM537 1477h196l252 -285h-172l-178 184l-178 -184h-172z" />
    <glyph glyph-name="Gbreve" unicode="&#x11e;" horiz-adv-x="1521" 
d="M82 737q0 157 56.5 297.5t154 241.5t233 160t287.5 59q171 0 326.5 -71.5t259.5 -198.5l-117 -115q-82 103 -207.5 162t-261.5 59q-159 0 -289 -78t-204 -214t-74 -302q0 -165 74 -301.5t204 -214.5t287 -78q231 0 418 129v322h-418v164h582v-563q-117 -103 -269.5 -159
t-310.5 -56q-152 0 -287.5 59t-233 159.5t-154 241t-56.5 297.5zM485 1925h131q15 -164 195 -164t195 164h133q-6 -146 -92 -222.5t-236 -76.5t-235 76.5t-91 222.5z" />
    <glyph glyph-name="gbreve" unicode="&#x11f;" horiz-adv-x="1290" 
d="M614 1044q111 0 212 -56t157 -136v172h164v-1004q0 -229 -146 -360t-401 -131q-125 0 -245 42.5t-208 123.5l117 117q63 -56 156.5 -87.5t187.5 -31.5q175 0 275 83.5t100 231.5v164q-56 -80 -157 -136t-212 -56q-144 0 -266.5 71.5t-194 194t-71.5 266.5t71.5 266.5
t194 194t266.5 71.5zM614 881q-152 0 -260 -108.5t-108 -260.5t108 -260.5t260 -108.5t260.5 108.5t108.5 260.5t-108.5 260.5t-260.5 108.5zM289 1475h131q15 -164 194 -164q180 0 195 164h131q-4 -146 -90 -222.5t-236 -76.5t-235.5 76.5t-89.5 222.5z" />
    <glyph glyph-name="Gdotaccent" unicode="&#x120;" horiz-adv-x="1521" 
d="M82 737q0 157 56.5 297.5t154 241.5t233 160t287.5 59q171 0 326.5 -71.5t259.5 -198.5l-117 -115q-82 103 -207.5 162t-261.5 59q-159 0 -289 -78t-204 -214t-74 -302q0 -165 74 -301.5t204 -214.5t287 -78q231 0 418 129v322h-418v164h582v-563q-117 -103 -269.5 -159
t-310.5 -56q-152 0 -287.5 59t-233 159.5t-154 241t-56.5 297.5zM811 1872q43 0 73.5 -31t30.5 -74t-30.5 -72.5t-73.5 -29.5t-72.5 29.5t-29.5 72.5t30 74t72 31z" />
    <glyph glyph-name="gdotaccent" unicode="&#x121;" horiz-adv-x="1290" 
d="M614 1044q111 0 212 -56t157 -136v172h164v-1004q0 -229 -146 -360t-401 -131q-125 0 -245 42.5t-208 123.5l117 117q63 -56 156.5 -87.5t187.5 -31.5q175 0 275 83.5t100 231.5v164q-56 -80 -157 -136t-212 -56q-144 0 -266.5 71.5t-194 194t-71.5 266.5t71.5 266.5
t194 194t266.5 71.5zM614 881q-152 0 -260 -108.5t-108 -260.5t108 -260.5t260 -108.5t260.5 108.5t108.5 260.5t-108.5 260.5t-260.5 108.5zM614 1495q43 0 74 -30.5t31 -73.5t-31 -73t-74 -30t-73.5 30t-30.5 73t30.5 73.5t73.5 30.5z" />
    <glyph glyph-name="uni0122" unicode="&#x122;" horiz-adv-x="1521" 
d="M82 737q0 157 56.5 297.5t154 241.5t233 160t287.5 59q171 0 326.5 -71.5t259.5 -198.5l-117 -115q-82 103 -207.5 162t-261.5 59q-159 0 -289 -78t-204 -214t-74 -302q0 -165 74 -301.5t204 -214.5t287 -78q231 0 418 129v322h-418v164h582v-563q-117 -103 -269.5 -159
t-310.5 -56q-152 0 -287.5 59t-233 159.5t-154 241t-56.5 297.5zM733 -92h185l-66 -314h-147z" />
    <glyph glyph-name="uni0123" unicode="&#x123;" horiz-adv-x="1290" 
d="M614 1044q111 0 212 -56t157 -136v172h164v-1004q0 -229 -146 -360t-401 -131q-125 0 -245 42.5t-208 123.5l117 117q63 -56 156.5 -87.5t187.5 -31.5q175 0 275 83.5t100 231.5v164q-56 -80 -157 -136t-212 -56q-144 0 -266.5 71.5t-194 194t-71.5 266.5t71.5 266.5
t194 194t266.5 71.5zM614 881q-152 0 -260 -108.5t-108 -260.5t108 -260.5t260 -108.5t260.5 108.5t108.5 260.5t-108.5 260.5t-260.5 108.5zM588 1475h147l-28 -314h-185z" />
    <glyph glyph-name="Hcircumflex" unicode="&#x124;" 
d="M184 1475h164v-615h811v615h164v-1475h-164v696h-811v-696h-164v1475zM655 1927h197l252 -285h-172l-178 185l-179 -185h-172z" />
    <glyph glyph-name="hcircumflex" unicode="&#x125;" horiz-adv-x="1187" 
d="M143 1475h164v-590q62 71 147 115t185 44q185 0 295 -117t110 -319v-608h-163v600q0 156 -70.5 229.5t-194.5 73.5q-131 0 -220 -88t-89 -233v-582h-164v1475zM129 1927h197l252 -285h-172l-179 185l-178 -185h-172z" />
    <glyph glyph-name="Hbar" unicode="&#x126;" 
d="M72 1092v163h112v220h164v-220h811v220h164v-220h113v-163h-113v-1092h-164v696h-811v-696h-164v1092h-112zM1159 1092h-811v-232h811v232z" />
    <glyph glyph-name="hbar" unicode="&#x127;" horiz-adv-x="1187" 
d="M31 1186v127h112v162h164v-162h256v-127h-256v-301q62 71 147 115t185 44q185 0 295 -117t110 -319v-608h-163v600q0 156 -70.5 229.5t-194.5 73.5q-131 0 -220 -88t-89 -233v-582h-164v1186h-112z" />
    <glyph glyph-name="Itilde" unicode="&#x128;" horiz-adv-x="532" 
d="M348 1475v-1475h-164v1475h164zM129 1925q53 0 96.5 -20.5t67 -45t52.5 -45t58 -20.5q40 0 57.5 24.5t18.5 86.5h131q-9 -240 -207 -240q-54 0 -98 20.5t-67 45t-52 45t-57 20.5q-40 0 -57.5 -23.5t-20.5 -82.5h-129q9 235 207 235z" />
    <glyph glyph-name="itilde" unicode="&#x129;" horiz-adv-x="450" 
d="M143 1024h164v-1024h-164v1024zM88 1495q53 0 96.5 -20.5t67 -45t52.5 -45t58 -20.5q40 0 57.5 24.5t18.5 86.5h131q-9 -240 -207 -240q-54 0 -98 20.5t-67 45t-52 45t-57 20.5q-40 0 -57.5 -23.5t-20.5 -82.5h-129q9 235 207 235z" />
    <glyph glyph-name="Imacron" unicode="&#x12a;" horiz-adv-x="532" 
d="M348 1475v-1475h-164v1475h164zM51 1825h430v-127h-430v127z" />
    <glyph glyph-name="imacron" unicode="&#x12b;" horiz-adv-x="450" 
d="M143 1024h164v-1024h-164v1024zM20 1395h410v-127h-410v127z" />
    <glyph glyph-name="Ibreve" unicode="&#x12c;" horiz-adv-x="532" 
d="M348 1475v-1475h-164v1475h164zM-59 1925h131q15 -164 194 -164q180 0 195 164h131q-4 -146 -90 -222.5t-236 -76.5t-235.5 76.5t-89.5 222.5z" />
    <glyph glyph-name="ibreve" unicode="&#x12d;" horiz-adv-x="450" 
d="M-100 1475h131q15 -164 194 -164q180 0 195 164h131q-4 -146 -90 -222.5t-236 -76.5t-235.5 76.5t-89.5 222.5zM143 1024h164v-1024h-164v1024z" />
    <glyph glyph-name="Iogonek" unicode="&#x12e;" horiz-adv-x="532" 
d="M184 1475h164v-1475h-10q-58 -58 -100.5 -121t-42.5 -102q0 -34 20 -47.5t46 -10t56 16.5l13 -105q-43 -14 -87 -15t-82.5 12t-62.5 48t-24 88q0 95 127 236h-17v1475z" />
    <glyph glyph-name="iogonek" unicode="&#x12f;" horiz-adv-x="450" 
d="M225 1495q43 0 74 -30.5t31 -73.5t-31 -73t-74 -30t-73.5 30t-30.5 73t30.5 73.5t73.5 30.5zM143 1024h164v-1024h-10q-58 -58 -100.5 -121t-42.5 -102q0 -34 20 -47.5t46 -10t56 16.5l13 -105q-43 -14 -87 -15t-82.5 12t-62.5 48t-24 88q0 95 127 236h-17v1024z" />
    <glyph glyph-name="Idotaccent" unicode="&#x130;" horiz-adv-x="532" 
d="M348 1475v-1475h-164v1475h164zM266 1872q43 0 74 -31t31 -74q0 -42 -31 -72t-74 -30t-73.5 29.5t-30.5 72.5t30.5 74t73.5 31z" />
    <glyph glyph-name="dotlessi" unicode="&#x131;" horiz-adv-x="450" 
d="M143 1024h164v-1024h-164v1024z" />
    <glyph glyph-name="IJ" unicode="&#x132;" horiz-adv-x="1773" 
d="M348 1475v-1475h-164v1475h164zM776 1475h813v-947q0 -243 -143.5 -395.5t-372.5 -152.5q-162 0 -301 85.5t-229 241.5l139 88q65 -117 169 -184.5t222 -67.5q158 0 255 106t97 279v783h-649v164z" />
    <glyph glyph-name="ij" unicode="&#x133;" horiz-adv-x="860" 
d="M225 1495q43 0 74 -30.5t31 -73.5t-31 -73t-74 -30t-73.5 30t-30.5 73t30.5 73.5t73.5 30.5zM143 1024h164v-1024h-164v1024zM553 1024h164v-1139q0 -194 -66.5 -275t-226.5 -81h-31v164h19q85 0 113 39.5t28 158.5v1133zM635 1495q-43 0 -74 -30.5t-31 -73.5t31 -73
t74 -30t73.5 30t30.5 73t-30.5 73.5t-73.5 30.5z" />
    <glyph glyph-name="Jcircumflex" unicode="&#x134;" horiz-adv-x="1282" 
d="M285 1475h813v-947q0 -243 -143.5 -395.5t-372.5 -152.5q-162 0 -301.5 85.5t-229.5 241.5l139 88q65 -117 169.5 -184.5t222.5 -67.5q158 0 255 106t97 279v783h-649v164zM590 1927h196l252 -285h-172l-178 185l-178 -185h-172z" />
    <glyph glyph-name="jcircumflex" unicode="&#x135;" horiz-adv-x="430" 
d="M123 -109v1133h164v-1139q0 -194 -66.5 -275t-226.5 -81h-31v164h19q85 0 113 39.5t28 158.5zM-145 1192l251 285h197l252 -285h-172l-178 184l-178 -184h-172z" />
    <glyph glyph-name="uni0136" unicode="&#x136;" horiz-adv-x="1269" 
d="M184 1475h164v-598l639 598h236l-750 -703l776 -772h-233l-668 668v-668h-164v1475zM557 -92h184l-65 -314h-148z" />
    <glyph glyph-name="uni0137" unicode="&#x137;" horiz-adv-x="1019" 
d="M143 1475h164v-883l428 432h234l-488 -492l518 -532h-229l-463 475v-475h-164v1475zM442 -92h185l-66 -314h-147z" />
    <glyph glyph-name="kgreenlandic" unicode="&#x138;" horiz-adv-x="1019" 
d="M143 1024h164v-432l428 432h234l-488 -492l518 -532h-229l-463 475v-475h-164v1024z" />
    <glyph glyph-name="Lacute" unicode="&#x139;" horiz-adv-x="1191" 
d="M184 1475h164v-1311h772v-164h-936v1475zM164 1642l153 285h164l-168 -285h-149z" />
    <glyph glyph-name="lacute" unicode="&#x13a;" horiz-adv-x="450" 
d="M143 1536h164v-1536h-164v1536zM137 1665l142 262h165l-155 -262h-152z" />
    <glyph glyph-name="uni013B" unicode="&#x13b;" horiz-adv-x="1191" 
d="M184 1475h164v-1311h772v-164h-936v1475zM596 -92h184l-67 -314h-148z" />
    <glyph glyph-name="uni013C" unicode="&#x13c;" horiz-adv-x="532" 
d="M348 1536v-1536h-164v1536h164zM174 -92h184l-65 -314h-148z" />
    <glyph glyph-name="Lcaron" unicode="&#x13d;" horiz-adv-x="1191" 
d="M801 1475h184l-65 -314h-150zM184 1475h164v-1311h772v-164h-936v1475z" />
    <glyph glyph-name="lcaron" unicode="&#x13e;" horiz-adv-x="651" 
d="M307 1536v-1536h-164v1536h164zM481 1475h185l-66 -314h-147z" />
    <glyph glyph-name="Ldot" unicode="&#x13f;" horiz-adv-x="1191" 
d="M623 737q0 47 33.5 81t80.5 34q49 0 83 -33.5t34 -81.5q0 -47 -34 -80.5t-83 -33.5q-47 0 -80.5 33.5t-33.5 80.5zM184 0v1475h164v-1311h772v-164h-936z" />
    <glyph glyph-name="ldot" unicode="&#x140;" horiz-adv-x="661" 
d="M307 1536v-1536h-164v1536h164zM557 791q49 0 83 -33.5t34 -81.5t-34 -81.5t-83 -33.5q-47 0 -81 34t-34 81t34 81t81 34z" />
    <glyph glyph-name="Lslash" unicode="&#x141;" horiz-adv-x="1191" 
d="M184 1475h164v-678l342 184v-186l-342 -185v-446h772v-164h-936v522l-123 -67v186l123 68v766z" />
    <glyph glyph-name="lslash" unicode="&#x142;" horiz-adv-x="450" 
d="M143 1536h164v-668l144 78v-186l-144 -78v-682h-164v594l-143 -76v187l143 75v756z" />
    <glyph glyph-name="Nacute" unicode="&#x143;" 
d="M184 1475h158l817 -1178v1178h164v-1475h-158l-817 1178v-1178h-164v1475zM676 1642l153 285h166l-170 -285h-149z" />
    <glyph glyph-name="nacute" unicode="&#x144;" horiz-adv-x="1187" 
d="M143 1024h164v-139q62 71 147 115t185 44q185 0 295 -117t110 -319v-608h-163v600q0 156 -70.5 229.5t-194.5 73.5q-131 0 -220 -88t-89 -233v-582h-164v1024zM516 1192l154 285h166l-170 -285h-150z" />
    <glyph glyph-name="uni0145" unicode="&#x145;" 
d="M184 1475h158l817 -1178v1178h164v-1475h-158l-817 1178v-1178h-164v1475zM676 -92h184l-65 -314h-148z" />
    <glyph glyph-name="uni0146" unicode="&#x146;" horiz-adv-x="1187" 
d="M143 1024h164v-139q62 71 147 115t185 44q185 0 295 -117t110 -319v-608h-163v600q0 156 -70.5 229.5t-194.5 73.5q-131 0 -220 -88t-89 -233v-582h-164v1024zM516 -92h184l-65 -314h-148z" />
    <glyph glyph-name="Ncaron" unicode="&#x147;" 
d="M184 1475h158l817 -1178v1178h164v-1475h-158l-817 1178v-1178h-164v1475zM686 1642l-252 285h172l178 -184l179 184h172l-252 -285h-197z" />
    <glyph glyph-name="ncaron" unicode="&#x148;" horiz-adv-x="1187" 
d="M143 1024h164v-139q62 71 147 115t185 44q185 0 295 -117t110 -319v-608h-163v600q0 156 -70.5 229.5t-194.5 73.5q-131 0 -220 -88t-89 -233v-582h-164v1024zM516 1192l-252 285h172l178 -185l179 185h172l-252 -285h-197z" />
    <glyph glyph-name="napostrophe" unicode="&#x149;" horiz-adv-x="1267" 
d="M-8 1337h184l-65 -313h-148zM223 1024h164v-139q62 71 147 115t185 44q185 0 295 -117t110 -319v-608h-163v600q0 156 -70.5 229.5t-194.5 73.5q-131 0 -220 -88t-89 -233v-582h-164v1024z" />
    <glyph glyph-name="Eng" unicode="&#x14a;" 
d="M184 1475h158l817 -1178v1178h164v-1590q0 -87 -30 -156.5t-80.5 -112t-113 -65t-130.5 -22.5q-25 0 -37 2v168q24 -4 37 -4q78 0 134 51t56 145v117l-811 1170v-1178h-164v1475z" />
    <glyph glyph-name="eng" unicode="&#x14b;" horiz-adv-x="1187" 
d="M143 1024h164v-139q62 71 147 115t185 44q185 0 295 -117t110 -319v-723q0 -194 -66.5 -275t-225.5 -81h-31v164h18q85 0 113.5 40t28.5 158v709q0 156 -70.5 229.5t-194.5 73.5q-131 0 -220 -88t-89 -233v-582h-164v1024z" />
    <glyph glyph-name="Omacron" unicode="&#x14c;" horiz-adv-x="1679" 
d="M82 737q0 154 60 294.5t161.5 242t242 161.5t294.5 60t294 -60t241.5 -161.5t161.5 -242t60 -294.5q0 -206 -101.5 -380t-275.5 -275.5t-380 -101.5q-154 0 -294.5 60t-242 161.5t-161.5 241.5t-60 294zM246 737q0 -161 79.5 -298t216.5 -216.5t298 -79.5t298 79.5
t216.5 216.5t79.5 298t-79.5 298t-216.5 216.5t-298 79.5t-298 -79.5t-216.5 -216.5t-79.5 -298zM584 1825h512v-127h-512v127z" />
    <glyph glyph-name="omacron" unicode="&#x14d;" horiz-adv-x="1228" 
d="M248 512q0 -153 107 -261t259 -108t260.5 108.5t108.5 260.5t-108.5 259.5t-260.5 107.5t-259.5 -107.5t-106.5 -259.5zM82 512q0 144 71.5 266.5t194 194t266.5 71.5t267 -71.5t194.5 -194t71.5 -266.5q0 -145 -71.5 -267.5t-194.5 -193.5t-267 -71t-266.5 71
t-194 193.5t-71.5 267.5zM358 1268v127h512v-127h-512z" />
    <glyph glyph-name="Obreve" unicode="&#x14e;" horiz-adv-x="1679" 
d="M82 737q0 154 60 294.5t161.5 242t242 161.5t294.5 60t294 -60t241.5 -161.5t161.5 -242t60 -294.5q0 -206 -101.5 -380t-275.5 -275.5t-380 -101.5q-154 0 -294.5 60t-242 161.5t-161.5 241.5t-60 294zM246 737q0 -161 79.5 -298t216.5 -216.5t298 -79.5t298 79.5
t216.5 216.5t79.5 298t-79.5 298t-216.5 216.5t-298 79.5t-298 -79.5t-216.5 -216.5t-79.5 -298zM514 1925h131q15 -164 195 -164q179 0 194 164h131q-4 -146 -89.5 -222.5t-235.5 -76.5t-236 76.5t-90 222.5z" />
    <glyph glyph-name="obreve" unicode="&#x14f;" horiz-adv-x="1228" 
d="M248 512q0 -153 107 -261t259 -108t260.5 108.5t108.5 260.5t-108.5 259.5t-260.5 107.5t-259.5 -107.5t-106.5 -259.5zM82 512q0 144 71.5 266.5t194 194t266.5 71.5t267 -71.5t194.5 -194t71.5 -266.5q0 -145 -71.5 -267.5t-194.5 -193.5t-267 -71t-266.5 71
t-194 193.5t-71.5 267.5zM289 1475h131q15 -164 194 -164q180 0 195 164h131q-4 -146 -90 -222.5t-236 -76.5t-235.5 76.5t-89.5 222.5z" />
    <glyph glyph-name="Ohungarumlaut" unicode="&#x150;" horiz-adv-x="1679" 
d="M82 737q0 154 60 294.5t161.5 242t242 161.5t294.5 60t294 -60t241.5 -161.5t161.5 -242t60 -294.5q0 -206 -101.5 -380t-275.5 -275.5t-380 -101.5q-154 0 -294.5 60t-242 161.5t-161.5 241.5t-60 294zM246 737q0 -161 79.5 -298t216.5 -216.5t298 -79.5t298 79.5
t216.5 216.5t79.5 298t-79.5 298t-216.5 216.5t-298 79.5t-298 -79.5t-216.5 -216.5t-79.5 -298zM936 1642l154 285h165l-170 -285h-149zM578 1642l153 285h166l-170 -285h-149z" />
    <glyph glyph-name="ohungarumlaut" unicode="&#x151;" horiz-adv-x="1228" 
d="M248 512q0 -153 107 -261t259 -108t260.5 108.5t108.5 260.5t-108.5 259.5t-260.5 107.5t-259.5 -107.5t-106.5 -259.5zM82 512q0 144 71.5 266.5t194 194t266.5 71.5t267 -71.5t194.5 -194t71.5 -266.5q0 -145 -71.5 -267.5t-194.5 -193.5t-267 -71t-266.5 71
t-194 193.5t-71.5 267.5zM846 1192h-150l154 285h166zM485 1192h-149l153 285h166z" />
    <glyph glyph-name="OE" unicode="&#x152;" horiz-adv-x="2050" 
d="M807 1475h1161v-164h-766v-533h684v-164h-684v-450h766v-164h-1161q-156 0 -291 55t-230 152t-149.5 234t-54.5 296t54.5 296.5t149.5 234.5t230 152t291 55zM807 1311q-249 0 -405 -159.5t-156 -414.5t156 -414t405 -159h231v1147h-231z" />
    <glyph glyph-name="oe" unicode="&#x153;" horiz-adv-x="2078" 
d="M614 1044q139 0 258 -66.5t191 -178.5q69 114 185 179.5t259 65.5q218 0 354 -148t136 -384q0 -3 -6 -96h-828q31 -124 130.5 -197.5t242.5 -73.5q186 0 291 117l117 -117q-77 -83 -182 -124t-222 -41q-155 0 -279.5 65.5t-195.5 181.5q-71 -114 -190.5 -180.5
t-260.5 -66.5q-144 0 -266.5 71.5t-194 194t-71.5 266.5t71.5 266.5t194 194t266.5 71.5zM614 879q-152 0 -259.5 -107.5t-106.5 -259.5q0 -152 107 -259.5t259 -109.5q152 0 259.5 108t109.5 261q0 152 -108.5 259.5t-260.5 107.5zM1507 881q-135 0 -231.5 -84t-118.5 -217
h670q-17 137 -103.5 219t-216.5 82z" />
    <glyph glyph-name="Racute" unicode="&#x154;" horiz-adv-x="1337" 
d="M184 1475h623q201 0 331 -136.5t130 -345.5q0 -146 -66 -259.5t-180 -172.5l274 -561h-182l-252 514q-8 0 -26 -1t-29 -1h-459v-512h-164v1475zM348 1311v-635h459q129 0 213 90t84 227q0 138 -83.5 228t-211.5 90h-461zM551 1642l154 285h165l-170 -285h-149z" />
    <glyph glyph-name="racute" unicode="&#x155;" horiz-adv-x="679" 
d="M143 1024h164v-150q122 170 332 170v-141q-141 0 -236.5 -89.5t-95.5 -231.5v-582h-164v1024zM293 1192l153 285h166l-170 -285h-149z" />
    <glyph glyph-name="uni0156" unicode="&#x156;" horiz-adv-x="1357" 
d="M184 1475h623q201 0 331 -136.5t130 -345.5q0 -146 -66 -259.5t-180 -172.5l274 -561h-182l-252 514q-8 0 -26 -1t-29 -1h-459v-512h-164v1475zM348 1311v-635h459q129 0 213 90t84 227q0 138 -83.5 228t-211.5 90h-461zM631 -92h184l-65 -314h-148z" />
    <glyph glyph-name="uni0157" unicode="&#x157;" horiz-adv-x="679" 
d="M143 1024h164v-150q122 170 332 170v-141q-141 0 -236.5 -89.5t-95.5 -231.5v-582h-164v1024zM131 -92h184l-65 -314h-148z" />
    <glyph glyph-name="Rcaron" unicode="&#x158;" horiz-adv-x="1357" 
d="M184 1475h623q201 0 331 -136.5t130 -345.5q0 -146 -66 -259.5t-180 -172.5l274 -561h-182l-252 514q-8 0 -26 -1t-29 -1h-459v-512h-164v1475zM348 1311v-635h459q129 0 213 90t84 227q0 138 -83.5 228t-211.5 90h-461zM541 1642l-252 285h170l180 -184l178 184h172
l-252 -285h-196z" />
    <glyph glyph-name="rcaron" unicode="&#x159;" horiz-adv-x="679" 
d="M143 1024h164v-150q122 170 332 170v-141q-141 0 -236.5 -89.5t-95.5 -231.5v-582h-164v1024zM272 1190l-252 285h173l178 -185l178 185h172l-252 -285h-197z" />
    <glyph glyph-name="Sacute" unicode="&#x15a;" horiz-adv-x="1320" 
d="M659 1495q157 0 298 -61.5t237 -173.5l-117 -117q-76 90 -185 139t-233 49q-172 0 -265 -59.5t-93 -161.5q0 -82 79.5 -135t291.5 -115q211 -62 300 -105q203 -97 245 -257q12 -46 12 -97q0 -181 -159.5 -301t-401.5 -120q-368 0 -600 235l114 117q189 -189 486 -189
q170 0 283.5 74.5t113.5 183.5q0 98 -86.5 162t-306.5 127q-213 60 -303 104q-194 92 -225 248q-7 32 -7 68q0 176 139.5 280.5t382.5 104.5zM563 1642l154 285h164l-168 -285h-150z" />
    <glyph glyph-name="sacute" unicode="&#x15b;" horiz-adv-x="942" 
d="M453 1044q118 0 226 -44.5t179 -120.5l-117 -117q-117 117 -290 117q-90 0 -144.5 -33.5t-54.5 -81.5q0 -26 16.5 -47t61 -40t68 -26.5t90.5 -26.5q13 -4 20 -6q45 -12 74.5 -21.5t72.5 -26.5t71.5 -33.5t60 -42.5t50.5 -55.5t31.5 -69.5t12.5 -86q0 -131 -116.5 -217
t-293.5 -86q-245 0 -410 165l117 117q116 -119 297 -119q100 0 171 41t71 99q0 24 -9.5 45t-29 37.5t-37.5 28.5t-48.5 24t-48.5 18t-50 15t-41 12q-146 43 -195 66q-156 71 -170 201q-2 14 -2 30q0 127 103.5 205.5t263.5 78.5zM375 1192l153 285h166l-170 -285h-149z" />
    <glyph glyph-name="Scircumflex" unicode="&#x15c;" horiz-adv-x="1320" 
d="M659 1495q157 0 298 -61.5t237 -173.5l-117 -117q-76 90 -185 139t-233 49q-172 0 -265 -59.5t-93 -161.5q0 -82 79.5 -135t291.5 -115q211 -62 300 -105q203 -97 245 -257q12 -46 12 -97q0 -181 -159.5 -301t-401.5 -120q-368 0 -600 235l114 117q189 -189 486 -189
q170 0 283.5 74.5t113.5 183.5q0 98 -86.5 162t-306.5 127q-213 60 -303 104q-194 92 -225 248q-7 32 -7 68q0 176 139.5 280.5t382.5 104.5zM584 1927h196l250 -285h-170l-178 185l-180 -185h-170z" />
    <glyph glyph-name="scircumflex" unicode="&#x15d;" horiz-adv-x="942" 
d="M453 1044q118 0 226 -44.5t179 -120.5l-117 -117q-117 117 -290 117q-90 0 -144.5 -33.5t-54.5 -81.5q0 -26 16.5 -47t61 -40t68 -26.5t90.5 -26.5q13 -4 20 -6q45 -12 74.5 -21.5t72.5 -26.5t71.5 -33.5t60 -42.5t50.5 -55.5t31.5 -69.5t12.5 -86q0 -131 -116.5 -217
t-293.5 -86q-245 0 -410 165l117 117q116 -119 297 -119q100 0 171 41t71 99q0 24 -9.5 45t-29 37.5t-37.5 28.5t-48.5 24t-48.5 18t-50 15t-41 12q-146 43 -195 66q-156 71 -170 201q-2 14 -2 30q0 127 103.5 205.5t263.5 78.5zM373 1477h196l252 -285h-172l-178 184
l-178 -184h-172z" />
    <glyph glyph-name="Scedilla" unicode="&#x15e;" horiz-adv-x="1320" 
d="M659 1495q157 0 298 -61.5t237 -173.5l-117 -117q-76 90 -185 139t-233 49q-172 0 -265 -59.5t-93 -161.5q0 -82 79.5 -135t291.5 -115q211 -62 300 -105q203 -97 245 -257q12 -46 12 -97q0 -168 -139 -284t-357 -135l-6 -58q75 -20 116.5 -59t41.5 -90q0 -80 -72 -128
t-182 -48q-96 0 -195 36l45 103q81 -35 174 -35q42 0 75 16t34 45q0 65 -180 97l18 121q-322 18 -534 233l114 117q189 -189 486 -189q170 0 283.5 74.5t113.5 183.5q0 98 -86.5 161t-306.5 128q-213 60 -303 104q-194 92 -225 248q-7 32 -7 68q0 176 139.5 280.5
t382.5 104.5z" />
    <glyph glyph-name="scedilla" unicode="&#x15f;" horiz-adv-x="942" 
d="M453 1044q118 0 226 -44.5t179 -120.5l-117 -117q-117 117 -290 117q-90 0 -144.5 -33.5t-54.5 -81.5q0 -26 16.5 -47t61 -40t68 -26.5t90.5 -26.5q13 -4 20 -6q45 -12 74.5 -21.5t72.5 -26.5t71.5 -33.5t60 -42.5t50.5 -55.5t31.5 -69.5t12.5 -86q0 -116 -93 -198
t-243 -101l-8 -60q76 -20 117 -59t40 -90q0 -80 -71 -128t-181 -48q-95 0 -194 36l45 103q81 -35 172 -35q42 0 75 16t33 45q0 35 -44.5 58t-133.5 39l19 121q-209 19 -353 163l117 117q116 -119 297 -119q100 0 171 41t71 99q0 24 -9.5 45t-29 37.5t-37.5 28.5t-48.5 24
t-48.5 18t-50 15t-41 12q-146 43 -195 66q-156 71 -170 201q-2 14 -2 30q0 127 103.5 205.5t263.5 78.5z" />
    <glyph glyph-name="Scaron" unicode="&#x160;" horiz-adv-x="1320" 
d="M659 1495q157 0 298 -61.5t237 -173.5l-117 -117q-76 90 -185 139t-233 49q-172 0 -265 -59.5t-93 -161.5q0 -82 79.5 -135t291.5 -115q211 -62 300 -105q203 -97 245 -257q12 -46 12 -97q0 -181 -159.5 -301t-401.5 -120q-368 0 -600 235l114 117q189 -189 486 -189
q170 0 283.5 74.5t113.5 183.5q0 98 -86.5 162t-306.5 127q-213 60 -303 104q-194 92 -225 248q-7 32 -7 68q0 176 139.5 280.5t382.5 104.5zM578 1642l-252 285h170l180 -184l178 184h170l-250 -285h-196z" />
    <glyph glyph-name="scaron" unicode="&#x161;" horiz-adv-x="942" 
d="M453 1044q118 0 226 -44.5t179 -120.5l-117 -117q-117 117 -290 117q-90 0 -144.5 -33.5t-54.5 -81.5q0 -26 16.5 -47t61 -40t68 -26.5t90.5 -26.5q13 -4 20 -6q45 -12 74.5 -21.5t72.5 -26.5t71.5 -33.5t60 -42.5t50.5 -55.5t31.5 -69.5t12.5 -86q0 -131 -116.5 -217
t-293.5 -86q-245 0 -410 165l117 117q116 -119 297 -119q100 0 171 41t71 99q0 24 -9.5 45t-29 37.5t-37.5 28.5t-48.5 24t-48.5 18t-50 15t-41 12q-146 43 -195 66q-156 71 -170 201q-2 14 -2 30q0 127 103.5 205.5t263.5 78.5zM383 1192l-252 285h172l178 -185l178 185
h172l-251 -285h-197z" />
    <glyph glyph-name="uni0162" unicode="&#x162;" horiz-adv-x="1277" 
d="M51 1475h1176v-164h-506v-1311h-16l-11 -76q75 -20 116.5 -59t41.5 -90q0 -80 -71 -128t-181 -48q-95 0 -194 36l45 103q81 -35 172 -35q42 0 75 16t33 45q0 65 -180 97l22 139h-16v1311h-506v164z" />
    <glyph glyph-name="uni0163" unicode="&#x163;" horiz-adv-x="780" 
d="M246 1298h164v-274h288v-164h-288v-518q0 -119 28 -159t111 -40q53 0 149 15v-158q-68 -17 -133 -20l-6 -56q74 -21 116 -60t42 -91q0 -78 -72.5 -126t-181.5 -48q-96 0 -195 36l45 103q81 -35 174 -35q42 0 75.5 16t33.5 45q-3 66 -180 97l18 129q-100 23 -144 104.5
t-44 241.5v524h-205v164h139q29 0 47.5 17.5t18.5 45.5v211z" />
    <glyph glyph-name="Tcaron" unicode="&#x164;" horiz-adv-x="1277" 
d="M51 1475h1176v-164h-506v-1311h-164v1311h-506v164zM541 1642l-252 285h172l178 -184l178 184h172l-252 -285h-196z" />
    <glyph glyph-name="tcaron" unicode="&#x165;" horiz-adv-x="780" 
d="M565 1475h185l-66 -314h-147zM246 1298h164v-274h288v-164h-288v-518q0 -119 28 -159t111 -40q53 0 149 15v-158q-75 -20 -159 -20q-160 0 -226.5 81t-66.5 275v524h-205v164h139q29 0 47.5 17.5t18.5 45.5v211z" />
    <glyph glyph-name="Tbar" unicode="&#x166;" horiz-adv-x="1277" 
d="M51 1311v164h1176v-164h-506v-408h338v-164h-338v-739h-164v739h-338v164h338v408h-506z" />
    <glyph glyph-name="tbar" unicode="&#x167;" horiz-adv-x="780" 
d="M246 1298h164v-274h288v-164h-288v-244h288v-127h-288v-147q0 -119 28 -159t111 -40q53 0 149 15v-158q-75 -20 -159 -20q-160 0 -226.5 81t-66.5 275v153h-205v127h205v244h-205v164h139q29 0 47.5 17.5t18.5 45.5v211z" />
    <glyph glyph-name="Utilde" unicode="&#x168;" 
d="M184 1475h164v-908q0 -193 110.5 -308.5t295.5 -115.5t295 115.5t110 308.5v908h164v-908q0 -261 -158 -424t-411 -163t-411.5 163t-158.5 424v908zM616 1925q44 0 80 -13.5t60 -32.5t45 -38.5t43.5 -33t46.5 -13.5q40 0 57.5 24.5t18.5 86.5h131q-9 -240 -207 -240
q-54 0 -98 20.5t-67.5 45t-52.5 45t-57 20.5q-40 0 -57 -23t-20 -83h-129q9 235 206 235z" />
    <glyph glyph-name="utilde" unicode="&#x169;" horiz-adv-x="1187" 
d="M1044 0h-163v139q-62 -71 -147 -115t-185 -44q-185 0 -295.5 117t-110.5 319v608h164v-600q0 -156 70.5 -229.5t193.5 -73.5q132 0 221 88t89 233v582h163v-1024zM457 1495q53 0 96.5 -20.5t67 -45t52.5 -45t58 -20.5q40 0 57.5 24.5t18.5 86.5h131q-9 -240 -207 -240
q-54 0 -98 20.5t-67 45t-52 45t-57 20.5q-40 0 -57.5 -23.5t-20.5 -82.5h-129q9 235 207 235z" />
    <glyph glyph-name="Umacron" unicode="&#x16a;" 
d="M184 1475h164v-908q0 -193 110.5 -308.5t295.5 -115.5t295 115.5t110 308.5v908h164v-908q0 -261 -158 -424t-411 -163t-411.5 163t-158.5 424v908zM498 1825h512v-127h-512v127z" />
    <glyph glyph-name="umacron" unicode="&#x16b;" horiz-adv-x="1187" 
d="M1044 0h-163v139q-62 -71 -147 -115t-185 -44q-185 0 -295.5 117t-110.5 319v608h164v-600q0 -156 70.5 -229.5t193.5 -73.5q132 0 221 88t89 233v582h163v-1024zM338 1395h512v-127h-512v127z" />
    <glyph glyph-name="Ubreve" unicode="&#x16c;" 
d="M184 1475h164v-908q0 -193 110.5 -308.5t295.5 -115.5t295 115.5t110 308.5v908h164v-908q0 -261 -158 -424t-411 -163t-411.5 163t-158.5 424v908zM428 1925h131q15 -164 195 -164q179 0 194 164h133q-6 -146 -91.5 -222.5t-235.5 -76.5t-236 76.5t-90 222.5z" />
    <glyph glyph-name="ubreve" unicode="&#x16d;" horiz-adv-x="1187" 
d="M1044 0h-163v139q-62 -71 -147 -115t-185 -44q-185 0 -295.5 117t-110.5 319v608h164v-600q0 -156 70.5 -229.5t193.5 -73.5q132 0 221 88t89 233v582h163v-1024zM268 1475h131q15 -164 195 -164q179 0 194 164h132q-4 -146 -90 -222.5t-236 -76.5t-236 76.5t-90 222.5z
" />
    <glyph glyph-name="Uring" unicode="&#x16e;" 
d="M184 1475h164v-908q0 -193 110.5 -308.5t295.5 -115.5t295 115.5t110 308.5v908h164v-908q0 -261 -158 -424t-411 -163t-411.5 163t-158.5 424v908zM502 1874q0 104 74 178t178 74t178 -74t74 -178t-74 -178t-178 -74t-178 74t-74 178zM633 1874q0 -50 35.5 -85.5
t85.5 -35.5q51 0 85.5 35.5t34.5 85.5q0 51 -34.5 86t-85.5 35q-50 0 -85.5 -35t-35.5 -86z" />
    <glyph glyph-name="uring" unicode="&#x16f;" horiz-adv-x="1187" 
d="M1044 0h-163v139q-62 -71 -147 -115t-185 -44q-185 0 -295.5 117t-110.5 319v608h164v-600q0 -156 70.5 -229.5t193.5 -73.5q132 0 221 88t89 233v582h163v-1024zM342 1423q0 104 74 178t178 74t178 -74t74 -178t-74 -178t-178 -74t-178 74t-74 178zM473 1423
q0 -50 35 -85t86 -35t86 35t35 85q0 51 -35 86t-86 35t-86 -35t-35 -86z" />
    <glyph glyph-name="Uhungarumlaut" unicode="&#x170;" 
d="M184 1475h164v-908q0 -193 110.5 -308.5t295.5 -115.5t295 115.5t110 308.5v908h164v-908q0 -261 -158 -424t-411 -163t-411.5 163t-158.5 424v908zM850 1642l154 285h165l-170 -285h-149zM492 1642l153 285h164l-168 -285h-149z" />
    <glyph glyph-name="uhungarumlaut" unicode="&#x171;" horiz-adv-x="1187" 
d="M1044 0h-163v139q-62 -71 -147 -115t-185 -44q-185 0 -295.5 117t-110.5 319v608h164v-600q0 -156 70.5 -229.5t193.5 -73.5q132 0 221 88t89 233v582h163v-1024zM676 1192l153 285h166l-170 -285h-149zM315 1192l154 285h166l-170 -285h-150z" />
    <glyph glyph-name="Uogonek" unicode="&#x172;" 
d="M184 1475h164v-908q0 -193 110.5 -308.5t295.5 -115.5t295 115.5t110 308.5v908h164v-908q0 -155 -58 -279.5t-163 -201.5q-62 -65 -115 -155.5t-53 -153.5q0 -34 20.5 -47.5t46.5 -10t56 16.5l12 -105q-43 -14 -87 -15t-82.5 12t-62.5 48t-24 88q0 98 117 240
q-80 -24 -176 -24q-253 0 -411.5 163t-158.5 424v908z" />
    <glyph glyph-name="uogonek" unicode="&#x173;" horiz-adv-x="1187" 
d="M143 1024h164v-600q0 -156 70.5 -229.5t193.5 -73.5q132 0 221 88t89 233v582h163v-1024h-12q-58 -58 -100.5 -121t-42.5 -102q0 -34 20.5 -47.5t46.5 -10t56 16.5l12 -105q-43 -14 -87 -15t-82.5 12t-62.5 48t-24 88q0 95 127 236h-14v139q-62 -71 -147 -115t-185 -44
q-185 0 -295.5 117t-110.5 319v608z" />
    <glyph glyph-name="Wcircumflex" unicode="&#x174;" horiz-adv-x="2013" 
d="M10 1475h176l373 -1223l371 1223h153l373 -1223l371 1223h176l-469 -1475h-158l-368 1161l-371 -1161h-158zM909 1927h197l252 -285h-172l-178 185l-181 -185h-170z" />
    <glyph glyph-name="wcircumflex" unicode="&#x175;" horiz-adv-x="1441" 
d="M20 1024h173l225 -729l223 729h160l223 -729l225 729h172l-315 -1024h-162l-223 723l-223 -723h-162zM623 1477h196l252 -285h-172l-178 184l-178 -184h-172z" />
    <glyph glyph-name="Ycircumflex" unicode="&#x176;" horiz-adv-x="1257" 
d="M547 520l-537 955h187l432 -764l432 764h186l-536 -955v-520h-164v520zM279 1642l251 285h197l252 -285h-172l-178 185l-178 -185h-172z" />
    <glyph glyph-name="ycircumflex" unicode="&#x177;" horiz-adv-x="1081" 
d="M20 1024h179l346 -809l338 809h178l-514 -1237q-109 -258 -344 -258q-46 0 -66 2v164q14 -2 45 -2q81 0 127 35.5t86 126.5l62 145zM442 1477h197l252 -285h-172l-178 184l-179 -184h-172z" />
    <glyph glyph-name="Ydieresis" unicode="&#x178;" horiz-adv-x="1257" 
d="M547 520l-537 955h187l432 -764l432 764h186l-536 -955v-520h-164v520zM424 1872q43 0 73.5 -31t30.5 -74t-30.5 -72.5t-73.5 -29.5t-74 30t-31 72q0 43 31 74t74 31zM834 1872q43 0 73.5 -31t30.5 -74t-30.5 -72.5t-73.5 -29.5t-74 30t-31 72q0 43 31 74t74 31z" />
    <glyph glyph-name="Zacute" unicode="&#x179;" horiz-adv-x="1255" 
d="M147 1475h979v-138l-796 -1173h833v-164h-1050v137l796 1174h-762v164zM510 1642l154 285h163l-168 -285h-149z" />
    <glyph glyph-name="zacute" unicode="&#x17a;" horiz-adv-x="1003" 
d="M127 1024h764v-141l-565 -719h596v-164h-820v143l562 717h-537v164zM383 1192l154 285h165l-170 -285h-149z" />
    <glyph glyph-name="Zdotaccent" unicode="&#x17b;" horiz-adv-x="1255" 
d="M147 1475h979v-138l-796 -1173h833v-164h-1050v137l796 1174h-762v164zM629 1872q41 0 71.5 -31t30.5 -74q0 -42 -30 -72t-72 -30q-43 0 -74 30t-31 72q0 43 31 74t74 31z" />
    <glyph glyph-name="zdotaccent" unicode="&#x17c;" horiz-adv-x="1003" 
d="M127 1024h764v-141l-565 -719h596v-164h-820v143l562 717h-537v164zM502 1495q43 0 73.5 -30.5t30.5 -73.5t-30.5 -73t-73.5 -30t-74 30t-31 73t31 73.5t74 30.5z" />
    <glyph glyph-name="Zcaron" unicode="&#x17d;" horiz-adv-x="1255" 
d="M147 1475h979v-138l-796 -1173h833v-164h-1050v137l796 1174h-762v164zM510 1642l-252 285h170l178 -184l180 184h170l-249 -285h-197z" />
    <glyph glyph-name="zcaron" unicode="&#x17e;" horiz-adv-x="1003" 
d="M127 1024h764v-141l-565 -719h596v-164h-820v143l562 717h-537v164zM403 1192l-251 285h172l178 -185l178 185h172l-252 -285h-197z" />
    <glyph glyph-name="longs" unicode="&#x17f;" horiz-adv-x="661" 
d="M143 0v1079q0 416 412 416h66l-21 -164h-45q-126 0 -187 -54t-61 -198v-1079h-164z" />
    <glyph glyph-name="florin" unicode="&#x192;" horiz-adv-x="1028" 
d="M242 819h221l63 357q30 171 131.5 245t274.5 74h65l-16 -164h-49q-105 0 -164.5 -35.5t-75.5 -126.5l-61 -350h252l-17 -164h-264l-143 -809q-30 -169 -131 -243t-273 -74h-35l15 164h20q104 0 164 36.5t76 129.5l139 796h-209z" />
    <glyph glyph-name="Aringacute" unicode="&#x1fa;" horiz-adv-x="1386" 
d="M20 0l586 1475h174l586 -1475h-176l-141 358h-709l-143 -358h-177zM983 522l-289 729l-291 -729h580zM442 1833q0 -104 74 -178t178 -74t178 74t74 178q0 102 -75 176t-177 76q-103 1 -177.5 -73.5t-74.5 -178.5zM573 1833q0 51 35 86t86 35t86 -35t35 -86
q0 -50 -35 -85.5t-86 -35.5t-86 35.5t-35 85.5zM739 2357l-118 -221h153l131 221h-166z" />
    <glyph glyph-name="aringacute" unicode="&#x1fb;" horiz-adv-x="1290" 
d="M82 512q0 144 71.5 266.5t194 194t266.5 71.5q111 0 212 -56t157 -136v172h164v-1024h-164v172q-56 -80 -157 -136t-212 -56q-144 0 -266.5 71.5t-194 194t-71.5 266.5zM246 512q0 -152 108 -260.5t260 -108.5t260.5 108.5t108.5 260.5t-108.5 260.5t-260.5 108.5
t-260 -108.5t-108 -260.5zM362 1423q0 104 74.5 178.5t177.5 73.5q102 -2 177 -76t75 -176q0 -104 -74 -178t-178 -74t-178 74t-74 178zM494 1423q0 -50 34.5 -85t85.5 -35t86 35t35 85q0 51 -35 86t-86 35t-85.5 -35t-34.5 -86zM541 1726l118 222h166l-131 -222h-153z" />
    <glyph glyph-name="AEacute" unicode="&#x1fc;" horiz-adv-x="1988" 
d="M750 1475h1157v-164h-766v-451h684v-164h-684v-532h766v-164h-930v358h-602l-178 -358h-177zM852 1311l-395 -789h520v789h-125zM999 1642l154 285h164l-168 -285h-150z" />
    <glyph glyph-name="aeacute" unicode="&#x1fd;" horiz-adv-x="2078" 
d="M614 -20q-144 0 -266.5 71.5t-194 194t-71.5 266.5t71.5 266.5t194 194t266.5 71.5q111 0 212 -56t157 -136v172h164v-119q145 139 360 139q218 0 353 -147.5t137 -384.5q0 -3 -6 -96h-828q31 -124 130.5 -197.5t240.5 -73.5q185 0 293 117l117 -117q-156 -165 -404 -165
q-236 0 -393 147v-127h-164v172q-56 -80 -157 -136t-212 -56zM614 881q-152 0 -260 -108.5t-108 -260.5t108 -260.5t260 -108.5t260.5 108.5t108.5 260.5t-108.5 260.5t-260.5 108.5zM1157 580h670q-19 137 -105.5 219t-216.5 82q-134 0 -231 -84t-117 -217zM981 1192
l154 285h165l-170 -285h-149z" />
    <glyph glyph-name="Oslashacute" unicode="&#x1fe;" horiz-adv-x="1679" 
d="M840 1495q138 0 268 -49l74 151h151l-100 -213q167 -101 265.5 -273t98.5 -374q0 -206 -101.5 -380t-275.5 -275.5t-380 -101.5q-136 0 -252 43l-70 -146h-151l96 203q-174 100 -277.5 275t-103.5 382q0 154 60 294.5t161.5 242t242 161.5t294.5 60zM840 1331
q-161 0 -298 -79.5t-216.5 -216.5t-79.5 -298q0 -159 77.5 -294t208.5 -214l506 1067q-93 35 -198 35zM1161 1237l-504 -1065q92 -29 183 -29q161 0 298 79.5t216.5 216.5t79.5 298q0 154 -74 286.5t-199 213.5zM762 1642l153 285h166l-170 -285h-149z" />
    <glyph glyph-name="oslashacute" unicode="&#x1ff;" horiz-adv-x="1228" 
d="M535 1192l153 285h166l-170 -285h-149zM780 1018l60 129h153l-90 -189q112 -72 178 -190.5t66 -255.5q0 -145 -71.5 -267.5t-194.5 -193.5t-267 -71q-84 0 -163 24l-60 -127h-151l88 186q-112 72 -179 191t-67 258q0 144 71.5 266.5t194 194t266.5 71.5q89 0 166 -26z
M709 868q-57 11 -95 11q-152 0 -259.5 -107.5t-106.5 -259.5q0 -91 40.5 -169t110.5 -128zM831 809l-309 -653q37 -9 92 -13q152 0 259.5 108t109.5 261q0 89 -41 167t-111 130z" />
    <glyph glyph-name="uni0218" unicode="&#x218;" horiz-adv-x="1320" 
d="M659 1495q157 0 298 -61.5t237 -173.5l-117 -117q-76 90 -185 139t-233 49q-172 0 -265 -59.5t-93 -161.5q0 -82 79.5 -135t291.5 -115q211 -62 300 -105q203 -97 245 -257q12 -46 12 -97q0 -181 -159.5 -301t-401.5 -120q-368 0 -600 235l114 117q189 -189 486 -189
q170 0 283.5 74.5t113.5 183.5q0 98 -86.5 162t-306.5 127q-213 60 -303 104q-194 92 -225 248q-7 32 -7 68q0 176 139.5 280.5t382.5 104.5zM604 -92h184l-65 -314h-148z" />
    <glyph glyph-name="uni0219" unicode="&#x219;" horiz-adv-x="942" 
d="M453 1044q118 0 226 -44.5t179 -120.5l-117 -117q-117 117 -290 117q-90 0 -144.5 -33.5t-54.5 -81.5q0 -26 16.5 -47t61 -40t68 -26.5t90.5 -26.5q13 -4 20 -6q45 -12 74.5 -21.5t72.5 -26.5t71.5 -33.5t60 -42.5t50.5 -55.5t31.5 -69.5t12.5 -86q0 -131 -116.5 -217
t-293.5 -86q-245 0 -410 165l117 117q116 -119 297 -119q100 0 171 41t71 99q0 24 -9.5 45t-29 37.5t-37.5 28.5t-48.5 24t-48.5 18t-50 15t-41 12q-146 43 -195 66q-156 71 -170 201q-2 14 -2 30q0 127 103.5 205.5t263.5 78.5zM393 -92h185l-66 -314h-147z" />
    <glyph glyph-name="uni021A" unicode="&#x21a;" horiz-adv-x="1277" 
d="M51 1475h1176v-164h-506v-1311h-164v1311h-506v164zM545 -92h184l-65 -314h-148z" />
    <glyph glyph-name="uni021B" unicode="&#x21b;" horiz-adv-x="780" 
d="M416 -92h184l-65 -314h-148zM246 1298h164v-274h288v-164h-288v-518q0 -119 28 -159t111 -40q53 0 149 15v-158q-75 -20 -159 -20q-160 0 -226.5 81t-66.5 275v524h-205v164h139q29 0 47.5 17.5t18.5 45.5v211z" />
    <glyph glyph-name="uni0237" unicode="&#x237;" horiz-adv-x="450" 
d="M143 -109v1133h164v-1139q0 -194 -66.5 -275t-226.5 -81h-30v164h18q85 0 113 39.5t28 158.5z" />
    <glyph glyph-name="circumflex" unicode="&#x2c6;" horiz-adv-x="864" 
d="M334 1477h196l252 -285h-172l-178 184l-178 -184h-172z" />
    <glyph glyph-name="caron" unicode="&#x2c7;" horiz-adv-x="864" 
d="M334 1192l-252 285h172l178 -185l178 185h172l-252 -285h-196z" />
    <glyph glyph-name="uni02C9" unicode="&#x2c9;" horiz-adv-x="772" 
d="M129 1268v127h514v-127h-514z" />
    <glyph glyph-name="breve" unicode="&#x2d8;" horiz-adv-x="854" 
d="M100 1475h133q12 -164 193 -164q180 0 195 164h133q-6 -146 -91.5 -222.5t-236.5 -76.5q-150 0 -235 76.5t-91 222.5z" />
    <glyph glyph-name="dotaccent" unicode="&#x2d9;" horiz-adv-x="409" 
d="M205 1495q43 0 73.5 -30.5t30.5 -73.5t-30.5 -73t-73.5 -30t-74 30t-31 73t31 73.5t74 30.5z" />
    <glyph glyph-name="ring" unicode="&#x2da;" horiz-adv-x="704" 
d="M100 1423q0 104 74 178t178 74t178 -74t74 -178t-74 -178t-178 -74t-178 74t-74 178zM231 1423q0 -49 35.5 -84.5t85.5 -35.5q51 0 86 35t35 85q0 51 -35 86t-86 35q-50 0 -85.5 -35t-35.5 -86z" />
    <glyph glyph-name="ogonek" unicode="&#x2db;" horiz-adv-x="428" 
d="M82 -236q0 95 127 236h137q-58 -58 -100.5 -121t-42.5 -102q0 -34 20.5 -47.5t46.5 -10t56 16.5l12 -105q-43 -14 -87 -15t-82.5 12t-62.5 48t-24 88z" />
    <glyph glyph-name="tilde" unicode="&#x2dc;" horiz-adv-x="931" 
d="M330 1495q44 0 80 -13.5t60 -32.5t44 -38.5t42.5 -33t45.5 -13.5q41 0 58 24t20 87h129q-6 -240 -207 -240q-44 0 -80 13.5t-60 32.5t-44 38.5t-42.5 33t-45.5 13.5q-41 0 -58 -23t-20 -83h-129q9 235 207 235z" />
    <glyph glyph-name="hungarumlaut" unicode="&#x2dd;" horiz-adv-x="841" 
d="M440 1192l154 285h166l-170 -285h-150zM82 1192l154 285h165l-170 -285h-149z" />
    <glyph glyph-name="uni0302" unicode="&#x302;" horiz-adv-x="864" 
d="M334 1477h196l252 -285h-172l-178 184l-178 -184h-172z" />
    <glyph glyph-name="uni0304" unicode="&#x304;" horiz-adv-x="757" 
d="M123 1268v127h512v-127h-512z" />
    <glyph glyph-name="uni0306" unicode="&#x306;" horiz-adv-x="854" 
d="M100 1475h133q12 -164 193 -164q180 0 195 164h133q-6 -146 -91.5 -222.5t-236.5 -76.5q-150 0 -235 76.5t-91 222.5z" />
    <glyph glyph-name="uni0307" unicode="&#x307;" horiz-adv-x="409" 
d="M205 1495q43 0 73.5 -30.5t30.5 -73.5t-30.5 -73t-73.5 -30t-74 30t-31 73t31 73.5t74 30.5z" />
    <glyph glyph-name="uni0308" unicode="&#x308;" horiz-adv-x="819" 
d="M205 1495q43 0 73.5 -30.5t30.5 -73.5t-30.5 -73t-73.5 -30t-74 30t-31 73t31 73.5t74 30.5zM614 1495q43 0 74 -30.5t31 -73.5t-31 -73t-74 -30t-73.5 30t-30.5 73t30.5 73.5t73.5 30.5z" />
    <glyph glyph-name="uni030A" unicode="&#x30a;" horiz-adv-x="704" 
d="M100 1423q0 104 74 178t178 74t178 -74t74 -178t-74 -178t-178 -74t-178 74t-74 178zM231 1423q0 -49 35.5 -84.5t85.5 -35.5q51 0 86 35t35 85q0 51 -35 86t-86 35q-50 0 -85.5 -35t-35.5 -86z" />
    <glyph glyph-name="uni030B" unicode="&#x30b;" horiz-adv-x="841" 
d="M440 1192l154 285h166l-170 -285h-150zM82 1192l154 285h165l-170 -285h-149z" />
    <glyph glyph-name="uni030C" unicode="&#x30c;" horiz-adv-x="864" 
d="M334 1192l-252 285h172l178 -185l178 185h172l-252 -285h-196z" />
    <glyph glyph-name="uni0315" unicode="&#x315;" horiz-adv-x="483" 
d="M82 1192l154 285h165l-170 -285h-149z" />
    <glyph glyph-name="uni0326" unicode="&#x326;" horiz-adv-x="376" 
d="M111 -92h184l-66 -314h-147z" />
    <glyph glyph-name="uni0327" unicode="&#x327;" horiz-adv-x="612" 
d="M127 -262q81 -35 172 -35q44 0 76.5 16t32.5 45q0 35 -45 58t-134 39l21 139h131l-10 -76q76 -20 117.5 -59.5t41.5 -91.5q0 -78 -72.5 -126t-181.5 -48q-95 0 -194 36z" />
    <glyph glyph-name="uni0328" unicode="&#x328;" horiz-adv-x="428" 
d="M82 -236q0 95 127 236h137q-58 -58 -100.5 -121t-42.5 -102q0 -34 20.5 -47.5t46.5 -10t56 16.5l12 -105q-43 -14 -87 -15t-82.5 12t-62.5 48t-24 88z" />
    <glyph glyph-name="uni0374" unicode="&#x374;" horiz-adv-x="409" 
d="M82 926l41 549h184l-92 -549h-133z" />
    <glyph glyph-name="uni0375" unicode="&#x375;" horiz-adv-x="405" 
d="M324 0l-37 -451h-185l88 451h134z" />
    <glyph glyph-name="uni037E" unicode="&#x37e;" horiz-adv-x="477" 
d="M238 963q-47 0 -81 -34t-34 -81q0 -49 33.5 -83t81.5 -34q49 0 82.5 33.5t33.5 83.5q0 48 -33.5 81.5t-82.5 33.5zM98 -336l41 508h185l-93 -508h-133z" />
    <glyph glyph-name="tonos" unicode="&#x384;" horiz-adv-x="483" 
d="M104 1190l105 285h164l-119 -285h-150z" />
    <glyph glyph-name="dieresistonos" unicode="&#x385;" horiz-adv-x="817" 
d="M328 1497l104 285h164l-119 -285h-149zM205 1495q43 0 72.5 -30.5t29.5 -73.5t-29.5 -73t-72.5 -30t-74 30t-31 73t31 73.5t74 30.5zM614 1495q43 0 73 -30.5t30 -73.5t-30 -73t-73 -30t-73.5 30t-30.5 73t30.5 73.5t73.5 30.5z" />
    <glyph glyph-name="Alphatonos" unicode="&#x386;" horiz-adv-x="1386" 
d="M20 0l586 1475h174l586 -1475h-176l-141 358h-709l-143 -358h-177zM983 522l-289 729l-291 -729h580zM301 1190h-149l104 285h164z" />
    <glyph glyph-name="anoteleia" unicode="&#x387;" horiz-adv-x="395" 
d="M197 852q49 0 82.5 -33.5t33.5 -81.5t-33.5 -81t-82.5 -33q-47 0 -81 33.5t-34 80.5t34 81t81 34z" />
    <glyph glyph-name="Epsilontonos" unicode="&#x388;" horiz-adv-x="1476" 
d="M465 1475h930v-164h-766v-451h684v-164h-684v-532h766v-164h-930v1475zM72 1190l104 285h166l-121 -285h-149z" />
    <glyph glyph-name="Etatonos" unicode="&#x389;" horiz-adv-x="1769" 
d="M444 1475h164v-615h813v615h164v-1475h-164v696h-813v-696h-164v1475zM72 1190l104 285h166l-121 -285h-149z" />
    <glyph glyph-name="Iotatonos" unicode="&#x38a;" horiz-adv-x="813" 
d="M629 1475v-1475h-164v1475h164zM72 1190l104 285h166l-121 -285h-149z" />
    <glyph glyph-name="Omicrontonos" unicode="&#x38c;" horiz-adv-x="1841" 
d="M244 737q0 154 60 294.5t161.5 242t241.5 161.5t294 60t294.5 -60t242 -161.5t161.5 -242t60 -294.5t-60 -294t-161.5 -241.5t-242 -161.5t-294.5 -60q-206 0 -380 101.5t-275.5 275.5t-101.5 380zM408 737q0 -121 47 -231t126 -189.5t189 -126.5t231 -47q161 0 298 79.5
t216.5 216.5t79.5 298t-79.5 298t-216.5 216.5t-298 79.5q-121 0 -231 -47t-189 -126.5t-126 -189.5t-47 -231zM72 1190l104 285h166l-121 -285h-149z" />
    <glyph glyph-name="Upsilontonos" unicode="&#x38e;" horiz-adv-x="1542" 
d="M10 1190l105 285h166l-121 -285h-150zM295 1475h186l432 -764l433 764h186l-537 -955v-520h-164v520z" />
    <glyph glyph-name="Omegatonos" unicode="&#x38f;" horiz-adv-x="1824" 
d="M72 1190l104 285h166l-121 -285h-149zM985 1495q154 0 294.5 -60t242 -161.5t161.5 -242t60 -294.5q0 -168 -69.5 -317.5t-192.5 -255.5h262v-164h-574v172q181 59 295.5 214t114.5 351q0 161 -79.5 298t-216.5 216.5t-298 79.5t-298 -79.5t-216.5 -216.5t-79.5 -298
q0 -196 114.5 -351t295.5 -214v-172h-574v164h262q-123 106 -192.5 255.5t-69.5 317.5q0 154 60 294.5t161.5 242t242 161.5t294.5 60z" />
    <glyph glyph-name="iotadieresistonos" unicode="&#x390;" horiz-adv-x="677" 
d="M143 1024h164v-682q0 -119 28.5 -159t113.5 -40q51 0 147 15v-158q-75 -20 -160 -20q-160 0 -226.5 81t-66.5 275v688zM145 1497q9 25 52.5 142.5t52.5 142.5h164q-10 -24 -59.5 -142t-59.5 -143h-150zM23 1495q43 0 72.5 -30.5t29.5 -73.5t-29.5 -73t-72.5 -30t-74 30
t-31 73t31 73.5t74 30.5zM432 1495q43 0 73 -30.5t30 -73.5t-30 -73t-73 -30t-73.5 30t-30.5 73t30.5 73.5t73.5 30.5z" />
    <glyph glyph-name="Alpha" unicode="&#x391;" horiz-adv-x="1386" 
d="M20 0l586 1475h174l586 -1475h-176l-141 358h-709l-143 -358h-177zM983 522l-289 729l-291 -729h580z" />
    <glyph glyph-name="Beta" unicode="&#x392;" horiz-adv-x="1347" 
d="M184 1475h627q165 0 278 -105t113 -264q0 -101 -48.5 -186t-135.5 -138q110 -54 173.5 -153.5t63.5 -220.5q0 -175 -125 -291.5t-305 -116.5h-641v1475zM348 694v-530h477q110 0 188.5 77.5t78.5 186.5q0 110 -78.5 188t-188.5 78h-477zM348 1311v-453h463
q94 0 160.5 66.5t66.5 160.5q0 93 -67 159.5t-160 66.5h-463z" />
    <glyph glyph-name="Gamma" unicode="&#x393;" horiz-adv-x="1165" 
d="M184 1475h930v-164h-766v-1311h-164v1475z" />
    <glyph glyph-name="uni0394" unicode="&#x394;" horiz-adv-x="1404" 
d="M618 1475h168l598 -1475h-1364zM702 1245l-438 -1081h879z" />
    <glyph glyph-name="Epsilon" unicode="&#x395;" horiz-adv-x="1196" 
d="M184 1475h930v-164h-766v-451h684v-164h-684v-532h766v-164h-930v1475z" />
    <glyph glyph-name="Zeta" unicode="&#x396;" horiz-adv-x="1255" 
d="M147 1475h979v-138l-796 -1173h833v-164h-1050v137l796 1174h-762v164z" />
    <glyph glyph-name="Eta" unicode="&#x397;" 
d="M184 1475h164v-615h811v615h164v-1475h-164v696h-811v-696h-164v1475z" />
    <glyph glyph-name="Theta" unicode="&#x398;" horiz-adv-x="1679" 
d="M82 737q0 154 60 294.5t161.5 242t242 161.5t294.5 60t294 -60t241.5 -161.5t161.5 -242t60 -294.5q0 -206 -101.5 -380t-275.5 -275.5t-380 -101.5q-154 0 -294.5 60t-242 161.5t-161.5 241.5t-60 294zM246 737q0 -161 79.5 -298t216.5 -216.5t298 -79.5t298 79.5
t216.5 216.5t79.5 298t-79.5 298t-216.5 216.5t-298 79.5t-298 -79.5t-216.5 -216.5t-79.5 -298zM379 819h921v-164h-921v164z" />
    <glyph glyph-name="Iota" unicode="&#x399;" horiz-adv-x="532" 
d="M348 1475v-1475h-164v1475h164z" />
    <glyph glyph-name="Kappa" unicode="&#x39a;" horiz-adv-x="1269" 
d="M184 1475h164v-598l639 598h236l-750 -703l776 -772h-233l-668 668v-668h-164v1475z" />
    <glyph glyph-name="Lambda" unicode="&#x39b;" horiz-adv-x="1382" 
d="M20 0l596 1475h152l594 -1475h-176l-494 1223l-495 -1223h-177z" />
    <glyph glyph-name="Mu" unicode="&#x39c;" horiz-adv-x="1699" 
d="M184 1475h135l531 -918l530 918h136v-1475h-164v1100l-437 -758h-129l-438 758v-1100h-164v1475z" />
    <glyph glyph-name="Nu" unicode="&#x39d;" 
d="M184 1475h158l817 -1178v1178h164v-1475h-158l-817 1178v-1178h-164v1475z" />
    <glyph glyph-name="Xi" unicode="&#x39e;" horiz-adv-x="1236" 
d="M82 1475h1073v-164h-1073v164zM82 164h1073v-164h-1073v164zM164 860h909v-164h-909v164z" />
    <glyph glyph-name="Omicron" unicode="&#x39f;" horiz-adv-x="1679" 
d="M82 737q0 154 60 294.5t161.5 242t242 161.5t294.5 60t294 -60t241.5 -161.5t161.5 -242t60 -294.5q0 -206 -101.5 -380t-275.5 -275.5t-380 -101.5q-154 0 -294.5 60t-242 161.5t-161.5 241.5t-60 294zM246 737q0 -161 79.5 -298t216.5 -216.5t298 -79.5t298 79.5
t216.5 216.5t79.5 298t-79.5 298t-216.5 216.5t-298 79.5t-298 -79.5t-216.5 -216.5t-79.5 -298z" />
    <glyph glyph-name="Pi" unicode="&#x3a0;" 
d="M184 0v1475h1139v-1475h-164v1311h-811v-1311h-164z" />
    <glyph glyph-name="Rho" unicode="&#x3a1;" horiz-adv-x="1308" 
d="M768 1311h-420v-635h418q129 0 213 90t84 227q0 138 -83.5 228t-211.5 90zM184 0v1475h582q201 0 331 -136.5t130 -345.5t-130 -345t-331 -136h-418v-512h-164z" />
    <glyph glyph-name="Sigma" unicode="&#x3a3;" horiz-adv-x="1269" 
d="M113 1475h1065v-164h-834l455 -523v-102l-455 -522h834v-164h-1065v152l514 585l-514 586v152z" />
    <glyph glyph-name="Tau" unicode="&#x3a4;" horiz-adv-x="1277" 
d="M51 1475h1176v-164h-506v-1311h-164v1311h-506v164z" />
    <glyph glyph-name="Upsilon" unicode="&#x3a5;" horiz-adv-x="1257" 
d="M547 520l-537 955h187l432 -764l432 764h186l-536 -955v-520h-164v520z" />
    <glyph glyph-name="Phi" unicode="&#x3a6;" horiz-adv-x="1597" 
d="M82 737q0 111 40.5 209t117.5 176.5t199.5 128t277.5 58.5v166h164v-166q155 -9 277.5 -58.5t199.5 -128t117.5 -176.5t40.5 -209t-40.5 -209t-117.5 -176t-199.5 -127.5t-277.5 -58.5v-166h-164v166q-155 9 -277.5 58.5t-199.5 127.5t-117.5 176t-40.5 209zM246 737
q0 -78 27.5 -146t82.5 -125t148 -93t213 -43v815q-120 -7 -213 -43.5t-148 -93t-82.5 -125t-27.5 -146.5zM1352 737q0 78 -27.5 146.5t-82.5 125t-148 93t-213 43.5v-815q120 7 213 43t148 93t82.5 125t27.5 146z" />
    <glyph glyph-name="Chi" unicode="&#x3a7;" horiz-adv-x="1247" 
d="M61 1475h197l367 -564l364 564h197l-463 -713l494 -762h-195l-397 610l-398 -610h-196l495 762z" />
    <glyph glyph-name="Psi" unicode="&#x3a8;" horiz-adv-x="1605" 
d="M143 1475h164v-514q0 -177 106 -280t308 -120v914h164v-914q202 17 307.5 120t105.5 280v514h164v-514q0 -245 -151.5 -394.5t-425.5 -171.5v-395h-164v395q-274 22 -426 171.5t-152 394.5v514z" />
    <glyph glyph-name="uni03A9" unicode="&#x3a9;" horiz-adv-x="1679" 
d="M840 1495q154 0 294 -60t241.5 -161.5t161.5 -242t60 -294.5q0 -168 -69.5 -317.5t-192.5 -255.5h262v-164h-573v172q181 59 295.5 214t114.5 351q0 161 -79.5 298t-216.5 216.5t-298 79.5t-298 -79.5t-216.5 -216.5t-79.5 -298q0 -196 114 -351t295 -214v-172h-573v164
h262q-123 106 -192.5 255.5t-69.5 317.5q0 154 60 294.5t161.5 242t242 161.5t294.5 60z" />
    <glyph glyph-name="Iotadieresis" unicode="&#x3aa;" horiz-adv-x="532" 
d="M348 1475v-1475h-164v1475h164zM61 1872q43 0 74 -31t31 -74q0 -42 -31 -72t-74 -30t-73.5 29.5t-30.5 72.5t30.5 74t73.5 31zM471 1872q43 0 73.5 -31t30.5 -74t-30.5 -72.5t-73.5 -29.5t-73.5 29.5t-30.5 72.5t30.5 74t73.5 31z" />
    <glyph glyph-name="Upsilondieresis" unicode="&#x3ab;" horiz-adv-x="1257" 
d="M547 520l-537 955h187l432 -764l432 764h186l-536 -955v-520h-164v520zM424 1872q43 0 73.5 -31t30.5 -74t-30.5 -72.5t-73.5 -29.5t-74 30t-31 72q0 43 31 74t74 31zM834 1872q43 0 73.5 -31t30.5 -74t-30.5 -72.5t-73.5 -29.5t-74 30t-31 72q0 43 31 74t74 31z" />
    <glyph glyph-name="alphatonos" unicode="&#x3ac;" horiz-adv-x="1290" 
d="M614 881q-152 0 -260 -108.5t-108 -260.5t108 -260.5t260 -108.5t260.5 108.5t108.5 260.5t-108.5 260.5t-260.5 108.5zM614 1044q111 0 212 -56t157 -136q0 93 70 172h176q-82 -97 -82 -264v-447q0 -170 94 -170h29v-163h-31q-217 0 -254 180l-2 12q-56 -80 -157 -136
t-212 -56q-144 0 -266.5 71.5t-194 194t-71.5 266.5t71.5 266.5t194 194t266.5 71.5zM557 1192l154 285h166l-170 -285h-150z" />
    <glyph glyph-name="epsilontonos" unicode="&#x3ad;" horiz-adv-x="1052" 
d="M518 1044q242 0 393 -163l-118 -113q-107 113 -277 113q-99 0 -158 -34.5t-59 -92.5q0 -54 49 -86.5t129 -32.5h191v-164h-203q-97 0 -158 -46.5t-61 -119.5q0 -78 69 -120t197 -42q224 0 358 146l121 -111q-177 -198 -475 -198q-196 0 -315 83.5t-119 223.5
q0 179 205 272v6q-29 15 -50.5 29.5t-48 39.5t-41 60t-14.5 78q0 120 108.5 196t276.5 76zM428 1192l154 285h166l-170 -285h-150z" />
    <glyph glyph-name="etatonos" unicode="&#x3ae;" horiz-adv-x="1187" 
d="M143 1024h164v-139q62 71 147 115t185 44q185 0 295 -117t110 -319v-1059h-163v1051q0 156 -70.5 229.5t-194.5 73.5q-131 0 -220 -88t-89 -233v-582h-164v1024zM516 1192l154 285h166l-170 -285h-150z" />
    <glyph glyph-name="iotatonos" unicode="&#x3af;" horiz-adv-x="677" 
d="M143 1024h164v-682q0 -119 28.5 -159t113.5 -40q51 0 147 15v-158q-75 -20 -160 -20q-160 0 -226.5 81t-66.5 275v688zM127 1192l154 285h165l-170 -285h-149z" />
    <glyph glyph-name="upsilondieresistonos" unicode="&#x3b0;" horiz-adv-x="1091" 
d="M143 416v608h164v-600q0 -130 73.5 -205.5t199.5 -75.5q59 0 105 18t75.5 48t48.5 72.5t27 89t8 100.5q0 34 -2.5 66t-11 67.5t-14 60.5t-21 64t-22 57t-28 62t-27 56t-31.5 62t-30 58h185q82 -161 125 -287.5t43 -265.5q0 -228 -114 -361t-312 -133q-195 0 -318 122.5
t-123 316.5zM571 1391q0 43 31 73.5t74 30.5t73.5 -30.5t30.5 -73.5t-30.5 -73t-73.5 -30t-74 30t-31 73zM266 1495q43 0 74 -30.5t31 -73.5t-31 -73t-74 -30t-73.5 30t-30.5 73t30.5 73.5t73.5 30.5zM494 1782h165q-4 -9 -56 -133.5t-64 -151.5h-150q8 23 52.5 142
t52.5 143z" />
    <glyph glyph-name="alpha" unicode="&#x3b1;" horiz-adv-x="1290" 
d="M614 881q-152 0 -260 -108.5t-108 -260.5t108 -260.5t260 -108.5t260.5 108.5t108.5 260.5t-108.5 260.5t-260.5 108.5zM614 1044q111 0 212 -56t157 -136q0 93 70 172h176q-82 -97 -82 -264v-447q0 -170 94 -170h29v-163h-31q-217 0 -254 180l-2 12q-56 -80 -157 -136
t-212 -56q-144 0 -266.5 71.5t-194 194t-71.5 266.5t71.5 266.5t194 194t266.5 71.5z" />
    <glyph glyph-name="beta" unicode="&#x3b2;" horiz-adv-x="1243" 
d="M629 1497q188 2 310.5 -109t119.5 -282q0 -80 -33.5 -154.5t-97.5 -128.5q111 -53 172 -154.5t61 -238.5q0 -207 -139 -328.5t-375 -121.5q-150 0 -340 53v-484h-164v1444q0 224 135.5 362.5t350.5 141.5zM623 1333q-141 -2 -228.5 -94t-87.5 -244v-790q209 -62 350 -62
q164 0 252.5 74.5t87.5 210.5q-2 132 -82.5 206.5t-222.5 74.5h-243v163h155q143 6 217 71.5t74 156.5q0 103 -77.5 169.5t-194.5 63.5z" />
    <glyph glyph-name="gamma" unicode="&#x3b3;" horiz-adv-x="1101" 
d="M20 1024h179l354 -817l350 817h178l-422 -985q-17 -38 -51 -115.5t-42 -97.5t-26.5 -67.5t-22.5 -71t-10 -60t-9 -78.5h-168q10 115 36 198t99 253z" />
    <glyph glyph-name="delta" unicode="&#x3b4;" horiz-adv-x="1228" 
d="M82 514q0 178 100.5 327.5t311.5 284.5l-340 285v125h921v-164h-618l465 -389q225 -188 225 -469q0 -233 -150.5 -383.5t-382.5 -150.5t-382 150.5t-150 383.5zM248 504q0 -159 102 -260t264 -101q164 0 266.5 103t102.5 266q0 107 -41.5 191t-132.5 161l-197 164
q-195 -130 -279.5 -252t-84.5 -272z" />
    <glyph glyph-name="epsilon" unicode="&#x3b5;" horiz-adv-x="1052" 
d="M518 1044q242 0 393 -163l-118 -113q-107 113 -277 113q-99 0 -158 -34.5t-59 -92.5q0 -54 49 -86.5t129 -32.5h191v-164h-203q-97 0 -158 -46.5t-61 -119.5q0 -78 69 -120t197 -42q224 0 358 146l121 -111q-177 -198 -475 -198q-196 0 -315 83.5t-119 223.5
q0 179 205 272v6q-29 15 -50.5 29.5t-48 39.5t-41 60t-14.5 78q0 120 108.5 196t276.5 76z" />
    <glyph glyph-name="zeta" unicode="&#x3b6;" horiz-adv-x="968" 
d="M113 1536h815v-125q-93 -45 -187.5 -111t-183.5 -153t-158 -181.5t-111 -204t-42 -214.5q0 -101 41.5 -181t106.5 -129t154 -81t175 -44.5t178 -13.5l-53 -323h-168l29 174q-286 39 -456.5 196t-170.5 404q0 223 139 446t365 377h-473v164z" />
    <glyph glyph-name="eta" unicode="&#x3b7;" horiz-adv-x="1187" 
d="M143 1024h164v-139q62 71 147 115t185 44q185 0 295 -117t110 -319v-1059h-163v1051q0 156 -70.5 229.5t-194.5 73.5q-131 0 -220 -88t-89 -233v-582h-164v1024z" />
    <glyph glyph-name="theta" unicode="&#x3b8;" horiz-adv-x="1310" 
d="M82 737q0 355 152.5 556.5t420.5 201.5q269 0 421.5 -201.5t152.5 -556.5t-152.5 -556t-421.5 -201t-421 201t-152 556zM248 801h815q-11 257 -116 393.5t-292 136.5t-291.5 -136.5t-115.5 -393.5zM1063 674h-815q11 -257 115.5 -394t291.5 -137t292 137t116 394z" />
    <glyph glyph-name="iota" unicode="&#x3b9;" horiz-adv-x="677" 
d="M143 1024h164v-682q0 -119 28.5 -159t113.5 -40q51 0 147 15v-158q-75 -20 -160 -20q-160 0 -226.5 81t-66.5 275v688z" />
    <glyph glyph-name="kappa" unicode="&#x3ba;" horiz-adv-x="1019" 
d="M143 1024h164v-432l428 432h234l-488 -492l518 -532h-229l-463 475v-475h-164v1024z" />
    <glyph glyph-name="lambda" unicode="&#x3bb;" horiz-adv-x="1155" 
d="M203 1495q235 0 344 -258l389 -936q39 -94 64 -126t69 -32h25v-163h-35q-92 0 -147 39.5t-91 127.5l-276 662l-346 -809h-179l437 1024l-62 145q-38 91 -84.5 126.5t-128.5 35.5q-31 0 -45 -2v164q20 2 66 2z" />
    <glyph glyph-name="uni03BC" unicode="&#x3bc;" horiz-adv-x="1187" 
d="M143 1024h164v-600q0 -156 70.5 -229.5t193.5 -73.5q132 0 221 88t89 233v582h163v-1024h-163v139q-62 -71 -147 -115t-185 -44q-141 0 -242 69v-500h-164v1475z" />
    <glyph glyph-name="nu" unicode="&#x3bd;" horiz-adv-x="1101" 
d="M20 1024h179l364 -848q140 147 238 386t108 462h172q-38 -317 -141 -557.5t-297 -466.5h-182z" />
    <glyph glyph-name="xi" unicode="&#x3be;" horiz-adv-x="991" 
d="M135 1536h815v-125q-234 -42 -350 -92q-201 -86 -201 -221q0 -64 46 -112t106.5 -68.5t122.5 -20.5h141v-164h-223q-142 0 -244 -87t-102 -212q0 -58 25.5 -106t66.5 -80.5t99 -57.5t116 -40t124.5 -25.5t117 -15.5t101.5 -9q19 -1 28 -2l-54 -323h-168l29 174
q-320 44 -484.5 163.5t-164.5 309.5q0 133 79 242t224 180v6q-72 54 -112 113.5t-40 140.5q0 162 170 268h-268v164z" />
    <glyph glyph-name="omicron" unicode="&#x3bf;" horiz-adv-x="1228" 
d="M248 512q0 -153 107 -261t259 -108t260.5 108.5t108.5 260.5t-108.5 259.5t-260.5 107.5t-259.5 -107.5t-106.5 -259.5zM82 512q0 144 71.5 266.5t194 194t266.5 71.5t267 -71.5t194.5 -194t71.5 -266.5q0 -145 -71.5 -267.5t-194.5 -193.5t-267 -71t-266.5 71
t-194 193.5t-71.5 267.5z" />
    <glyph glyph-name="pi" unicode="&#x3c0;" horiz-adv-x="1169" 
d="M1026 860v-860h-164v860h-555v-860h-164v860h-112v164h1106v-164h-111z" />
    <glyph glyph-name="rho" unicode="&#x3c1;" horiz-adv-x="1290" 
d="M143 512q0 144 71 266.5t194 194t268 71.5q144 0 266.5 -71.5t194 -194t71.5 -266.5t-71.5 -266.5t-194 -194t-266.5 -71.5q-111 0 -212 56t-157 136v-684h-164v1024zM307 512q0 -152 108.5 -260.5t260.5 -108.5t260 108.5t108 260.5t-108 260.5t-260 108.5
t-260.5 -108.5t-108.5 -260.5z" />
    <glyph glyph-name="sigma1" unicode="&#x3c2;" horiz-adv-x="1060" 
d="M614 1044q112 0 212 -43.5t173 -121.5l-116 -117q-50 55 -120.5 86t-148.5 31q-153 0 -259.5 -109.5t-106.5 -271.5q0 -79 28 -142.5t78.5 -106t112.5 -73t138.5 -47t147.5 -23.5t148 -8l-53 -323h-168l29 174q-190 23 -328 88t-218.5 181.5t-80.5 275.5q0 153 71.5 280
t193.5 198.5t267 71.5z" />
    <glyph glyph-name="sigma" unicode="&#x3c3;" horiz-adv-x="1228" 
d="M82 512q0 144 71 266.5t193.5 194t267.5 71.5h574v-126h-230q88 -75 138.5 -181t50.5 -225q0 -145 -71.5 -267.5t-194.5 -193.5t-267 -71t-266.5 71t-194 193.5t-71.5 267.5zM248 512q0 -153 107 -261t259 -108q153 2 260.5 109.5t106.5 259.5q0 152 -107.5 259.5
t-259.5 107.5q-152 1 -259 -106.5t-107 -260.5z" />
    <glyph glyph-name="tau" unicode="&#x3c4;" horiz-adv-x="780" 
d="M41 1024h657v-164h-288v-518q0 -119 28 -159t111 -40q53 0 149 15v-158q-75 -20 -159 -20q-160 0 -226.5 81t-66.5 275v524h-205v164z" />
    <glyph glyph-name="upsilon" unicode="&#x3c5;" horiz-adv-x="1091" 
d="M143 416v608h164v-600q0 -130 73.5 -205.5t199.5 -75.5q59 0 105 18t75.5 48t48.5 72.5t27 89t8 100.5q0 34 -2.5 66t-11 67.5t-14 60.5t-21 64t-22 57t-28 62t-27 56t-31.5 62t-30 58h185q82 -161 125 -287.5t43 -265.5q0 -228 -114 -361t-312 -133q-195 0 -318 122.5
t-123 316.5z" />
    <glyph glyph-name="phi" unicode="&#x3c6;" horiz-adv-x="1392" 
d="M82 512q0 144 71 266.5t193.5 194t267.5 71.5v431h164v-431q144 0 267 -71.5t194.5 -194t71.5 -266.5q0 -145 -71.5 -267.5t-194.5 -193.5t-267 -71v-431h-164v431q-145 0 -267.5 71.5t-193.5 194t-71 266.5zM1145 512q0 152 -107.5 259.5t-259.5 107.5v-736
q152 0 259.5 108.5t107.5 260.5zM246 512q0 -152 107.5 -259.5t260.5 -109.5v736q-152 0 -260 -107.5t-108 -259.5z" />
    <glyph glyph-name="chi" unicode="&#x3c7;" horiz-adv-x="1173" 
d="M53 881v163h35q88 0 142.5 -40t109.5 -127l248 -402l338 549h186l-430 -702l297 -478q53 -85 89 -118.5t79 -32.5h16v-164h-37q-86 0 -141.5 41t-107.5 127l-291 469l-377 -617h-189l472 768l-254 412q-56 87 -91 120t-77 32h-17z" />
    <glyph glyph-name="psi" unicode="&#x3c8;" horiz-adv-x="1482" 
d="M143 1024h164v-500q0 -184 78 -274t274 -107v1332h164v-1332q196 17 274.5 107t78.5 274v500h163v-500q0 -251 -123.5 -387.5t-392.5 -156.5v-431h-164v431q-269 20 -392.5 156.5t-123.5 387.5v500z" />
    <glyph glyph-name="omega" unicode="&#x3c9;" horiz-adv-x="1486" 
d="M250 1024h184q-40 -73 -58.5 -108.5t-48 -100.5t-43.5 -111t-25 -108.5t-11 -124.5q0 -165 56.5 -246.5t148.5 -81.5q91 0 150 74.5t59 206.5v334h163v-334q0 -132 58.5 -206.5t148.5 -74.5q93 0 150 81.5t57 246.5q0 62 -11 124.5t-25 108.5t-43.5 111t-48 100.5
t-58.5 108.5h184q83 -152 125.5 -279.5t42.5 -273.5q0 -243 -104.5 -367t-264.5 -124q-86 0 -163 38.5t-130 112.5q-52 -74 -128.5 -112.5t-165.5 -38.5q-76 0 -141.5 29.5t-116.5 87.5t-80 154t-29 220q0 146 42.5 273.5t125.5 279.5z" />
    <glyph glyph-name="iotadieresis" unicode="&#x3ca;" horiz-adv-x="677" 
d="M143 1024h164v-682q0 -119 28.5 -159t113.5 -40q51 0 147 15v-158q-75 -20 -160 -20q-160 0 -226.5 81t-66.5 275v688zM20 1495q43 0 73 -30.5t30 -73.5t-30 -73t-73 -30t-73.5 30t-30.5 73t30.5 73.5t73.5 30.5zM430 1495q43 0 72.5 -30.5t29.5 -73.5t-29.5 -73
t-72.5 -30t-73.5 30t-30.5 73t30.5 73.5t73.5 30.5z" />
    <glyph glyph-name="upsilondieresis" unicode="&#x3cb;" horiz-adv-x="1091" 
d="M143 416v608h164v-600q0 -130 73.5 -205.5t199.5 -75.5q59 0 105 18t75.5 48t48.5 72.5t27 89t8 100.5q0 34 -2.5 66t-11 67.5t-14 60.5t-21 64t-22 57t-28 62t-27 56t-31.5 62t-30 58h185q82 -161 125 -287.5t43 -265.5q0 -228 -114 -361t-312 -133q-195 0 -318 122.5
t-123 316.5zM678 1495q41 0 71.5 -30.5t30.5 -73.5t-30 -73t-72 -30q-43 0 -74 30t-31 73t31 73.5t74 30.5zM268 1495q42 0 72.5 -30.5t30.5 -73.5q0 -42 -30.5 -72.5t-72.5 -30.5q-43 0 -73.5 30t-30.5 73t30.5 73.5t73.5 30.5z" />
    <glyph glyph-name="omicrontonos" unicode="&#x3cc;" horiz-adv-x="1228" 
d="M248 512q0 -153 107 -261t259 -108t260.5 108.5t108.5 260.5t-108.5 259.5t-260.5 107.5t-259.5 -107.5t-106.5 -259.5zM82 512q0 144 71.5 266.5t194 194t266.5 71.5t267 -71.5t194.5 -194t71.5 -266.5q0 -145 -71.5 -267.5t-194.5 -193.5t-267 -71t-266.5 71
t-194 193.5t-71.5 267.5zM684 1192h-149l153 285h166z" />
    <glyph glyph-name="upsilontonos" unicode="&#x3cd;" horiz-adv-x="1091" 
d="M143 416v608h164v-600q0 -130 73.5 -205.5t199.5 -75.5q59 0 105 18t75.5 48t48.5 72.5t27 89t8 100.5q0 34 -2.5 66t-11 67.5t-14 60.5t-21 64t-22 57t-28 62t-27 56t-31.5 62t-30 58h185q82 -161 125 -287.5t43 -265.5q0 -228 -114 -361t-312 -133q-195 0 -318 122.5
t-123 316.5zM557 1192h-149l153 285h164z" />
    <glyph glyph-name="omegatonos" unicode="&#x3ce;" horiz-adv-x="1486" 
d="M250 1024h184q-40 -73 -58.5 -108.5t-48 -100.5t-43.5 -111t-25 -108.5t-11 -124.5q0 -165 56.5 -246.5t148.5 -81.5q91 0 150 74.5t59 206.5v334h163v-334q0 -132 58.5 -206.5t148.5 -74.5q93 0 150 81.5t57 246.5q0 62 -11 124.5t-25 108.5t-43.5 111t-48 100.5
t-58.5 108.5h184q83 -152 125.5 -279.5t42.5 -273.5q0 -243 -104.5 -367t-264.5 -124q-86 0 -163 38.5t-130 112.5q-52 -74 -128.5 -112.5t-165.5 -38.5q-76 0 -141.5 29.5t-116.5 87.5t-80 154t-29 220q0 146 42.5 273.5t125.5 279.5zM795 1192h-150l154 285h166z" />
    <glyph glyph-name="uni0400" unicode="&#x400;" horiz-adv-x="1196" 
d="M184 1475h930v-164h-766v-451h684v-164h-684v-532h766v-164h-930v1475zM776 1642h-149l-170 285h166z" />
    <glyph glyph-name="uni0401" unicode="&#x401;" horiz-adv-x="1196" 
d="M184 1475h930v-164h-766v-451h684v-164h-684v-532h766v-164h-930v1475zM854 1872q43 0 73.5 -31t30.5 -74t-30.5 -72.5t-73.5 -29.5t-73.5 29.5t-30.5 72.5t30.5 74t73.5 31zM444 1872q43 0 74 -31t31 -74q0 -42 -31 -72t-74 -30t-73.5 29.5t-30.5 72.5t30.5 74t73.5 31z
" />
    <glyph glyph-name="uni0402" unicode="&#x402;" horiz-adv-x="1722" 
d="M51 1475h1176v-164h-506v-379q82 53 183.5 82.5t201.5 29.5q206 0 339.5 -123t133.5 -313v-166q1 -196 -118 -319t-310 -123h-31v164h21q134 0 204 76.5t70 222.5v125q0 135 -80.5 213t-218.5 78q-99 0 -209.5 -38.5t-185.5 -103.5v-737h-164v1311h-506v164z" />
    <glyph glyph-name="uni0403" unicode="&#x403;" horiz-adv-x="1165" 
d="M184 1475h930v-164h-766v-1311h-164v1475zM578 1642l153 285h166l-170 -285h-149z" />
    <glyph glyph-name="uni0404" unicode="&#x404;" horiz-adv-x="1466" 
d="M82 737q0 154 60 294.5t161.5 242t242 161.5t294.5 60q162 0 305.5 -64t249.5 -178l-117 -116q-84 91 -197 142.5t-241 51.5q-147 0 -275 -67.5t-211 -184.5t-102 -260h825v-164h-825q19 -143 102 -260t211 -184.5t275 -67.5q128 0 241 52t197 143l117 -117
q-106 -114 -249.5 -177.5t-305.5 -63.5q-154 0 -294.5 60t-242 161.5t-161.5 241.5t-60 294z" />
    <glyph glyph-name="uni0405" unicode="&#x405;" horiz-adv-x="1320" 
d="M659 1495q157 0 298 -61.5t237 -173.5l-117 -117q-76 90 -185 139t-233 49q-172 0 -265 -59.5t-93 -161.5q0 -82 79.5 -135t291.5 -115q211 -62 300 -105q203 -97 245 -257q12 -46 12 -97q0 -181 -159.5 -301t-401.5 -120q-368 0 -600 235l114 117q189 -189 486 -189
q170 0 283.5 74.5t113.5 183.5q0 98 -86.5 162t-306.5 127q-213 60 -303 104q-194 92 -225 248q-7 32 -7 68q0 176 139.5 280.5t382.5 104.5z" />
    <glyph glyph-name="uni0406" unicode="&#x406;" horiz-adv-x="532" 
d="M348 1475v-1475h-164v1475h164z" />
    <glyph glyph-name="uni0407" unicode="&#x407;" horiz-adv-x="532" 
d="M348 1475v-1475h-164v1475h164zM61 1872q43 0 74 -31t31 -74q0 -42 -31 -72t-74 -30t-73.5 29.5t-30.5 72.5t30.5 74t73.5 31zM471 1872q43 0 73.5 -31t30.5 -74t-30.5 -72.5t-73.5 -29.5t-73.5 29.5t-30.5 72.5t30.5 74t73.5 31z" />
    <glyph glyph-name="uni0408" unicode="&#x408;" horiz-adv-x="1282" 
d="M285 1475h813v-947q0 -243 -143.5 -395.5t-372.5 -152.5q-162 0 -301.5 85.5t-229.5 241.5l139 88q65 -117 169.5 -184.5t222.5 -67.5q158 0 255 106t97 279v783h-649v164z" />
    <glyph glyph-name="uni0409" unicode="&#x409;" horiz-adv-x="2162" 
d="M1659 694h-342v-530h342q83 0 144 39.5t89 98.5t27 128q0 107 -68.5 185.5t-191.5 78.5zM1659 858q102 0 184 -36.5t133 -98t78 -137.5t27 -158t-27 -157t-78 -136.5t-133 -98t-184 -36.5h-506l-2 1311h-598q-38 -500 -64 -713q-26 -211 -50 -301q-68 -251 -245 -303
q-48 -14 -106 -14q-5 0 -14 1t-13 1v163h17q47 0 84.5 19t63.5 64.5t42 78t29 103.5t16 94t11 94q3 23 4 33q33 279 73 844h916v-617h342z" />
    <glyph glyph-name="uni040A" unicode="&#x40a;" horiz-adv-x="2211" 
d="M1706 858q82 0 152.5 -24t119.5 -65.5t84 -96.5t51.5 -117t16.5 -127q0 -82 -27 -157t-78 -136.5t-134 -98t-185 -36.5h-547v696h-811v-696h-164v1475h164v-615h811v615h164v-617h383zM1706 694h-383v-530h383q124 0 193 79t69 187q0 107 -69 185.5t-193 78.5z" />
    <glyph glyph-name="uni040B" unicode="&#x40b;" horiz-adv-x="1703" 
d="M51 1475h1176v-164h-506v-377q81 52 183 81t202 29q208 0 331.5 -121t123.5 -315v-608h-164v600q0 128 -73.5 205.5t-205.5 77.5q-95 0 -208 -39.5t-189 -106.5v-737h-164v1311h-506v164z" />
    <glyph glyph-name="uni040C" unicode="&#x40c;" horiz-adv-x="1269" 
d="M184 1475h164v-598l639 598h236l-750 -703l776 -772h-233l-668 668v-668h-164v1475zM557 1642l154 285h166l-170 -285h-150z" />
    <glyph glyph-name="uni040D" unicode="&#x40d;" 
d="M1323 1475v-1475h-164v1178l-817 -1178h-158v1475h164v-1178l817 1178h158zM872 1642h-149l-170 285h166z" />
    <glyph glyph-name="uni040E" unicode="&#x40e;" horiz-adv-x="1153" 
d="M10 1475h185l417 -842l351 842h180l-514 -1239q-110 -256 -344 -256q-45 0 -68 2v163q16 -2 47 -2q82 0 128 35t83 127l53 129zM248 1925h133q15 -164 194 -164q181 0 193 164h133q-6 -146 -91 -222.5t-235 -76.5t-235.5 76.5t-91.5 222.5z" />
    <glyph glyph-name="uni040F" unicode="&#x40f;" horiz-adv-x="1503" 
d="M184 1475h164v-1311h807v1311h164v-1475h-485v-225h-164v225h-486v1475z" />
    <glyph glyph-name="uni0410" unicode="&#x410;" horiz-adv-x="1386" 
d="M20 0l586 1475h174l586 -1475h-176l-141 358h-709l-143 -358h-177zM983 522l-289 729l-291 -729h580z" />
    <glyph glyph-name="uni0411" unicode="&#x411;" horiz-adv-x="1341" 
d="M825 858q82 0 152.5 -24t119.5 -65.5t84 -96.5t51.5 -117t16.5 -127q0 -82 -27 -157t-78 -136.5t-134 -98t-185 -36.5h-641v1475h930v-164h-766v-453h477zM825 694h-477v-530h477q125 0 193.5 79t68.5 187q0 107 -69 185.5t-193 78.5z" />
    <glyph glyph-name="uni0412" unicode="&#x412;" horiz-adv-x="1347" 
d="M184 1475h627q165 0 278 -105t113 -264q0 -101 -48.5 -186t-135.5 -138q110 -54 173.5 -153.5t63.5 -220.5q0 -175 -125 -291.5t-305 -116.5h-641v1475zM348 694v-530h477q110 0 188.5 77.5t78.5 186.5q0 110 -78.5 188t-188.5 78h-477zM348 1311v-453h463
q94 0 160.5 66.5t66.5 160.5q0 93 -67 159.5t-160 66.5h-463z" />
    <glyph glyph-name="uni0413" unicode="&#x413;" horiz-adv-x="1165" 
d="M184 1475h930v-164h-766v-1311h-164v1475z" />
    <glyph glyph-name="uni0414" unicode="&#x414;" horiz-adv-x="1652" 
d="M457 1475h915v-1311h199v-389h-164v225h-1161v-225h-164v389h131q46 25 78.5 77t49.5 122.5t25 124t15 120.5q1 16 2 23q33 261 74 844zM610 1311q-39 -514 -65 -713q-12 -105 -18.5 -152.5t-29 -135t-53.5 -146.5h764v1147h-598z" />
    <glyph glyph-name="uni0415" unicode="&#x415;" horiz-adv-x="1196" 
d="M184 1475h930v-164h-766v-451h684v-164h-684v-532h766v-164h-930v1475z" />
    <glyph glyph-name="uni0416" unicode="&#x416;" horiz-adv-x="2007" 
d="M920 1475h163l2 -596l637 596h238l-750 -703l775 -772h-234l-666 666v-666h-163l-2 666l-666 -666h-234l777 772l-750 703h236l637 -596v596z" />
    <glyph glyph-name="uni0417" unicode="&#x417;" horiz-adv-x="1177" 
d="M559 1497q204 0 339.5 -111t135.5 -278q0 -193 -211 -330v-6q262 -102 262 -358q0 -105 -41.5 -189.5t-112.5 -138t-161.5 -81.5t-191.5 -28q-336 0 -558 265l119 106q177 -205 439 -205q66 0 126 16t109.5 47t79 84.5t29.5 121.5q0 91 -52 156t-128.5 94.5t-166.5 29.5
h-241v164h241q115 0 205 69t90 181q0 97 -88 162t-219 65q-214 0 -370 -174l-127 111q211 227 493 227z" />
    <glyph glyph-name="uni0418" unicode="&#x418;" 
d="M1323 1475v-1475h-164v1178l-817 -1178h-158v1475h164v-1178l817 1178h158z" />
    <glyph glyph-name="uni0419" unicode="&#x419;" 
d="M1323 1475v-1475h-164v1178l-817 -1178h-158v1475h164v-1178l817 1178h158zM428 1925h131q15 -164 195 -164q179 0 194 164h131q-4 -146 -89.5 -222.5t-235.5 -76.5t-236 76.5t-90 222.5z" />
    <glyph glyph-name="uni041A" unicode="&#x41a;" horiz-adv-x="1269" 
d="M184 1475h164v-598l639 598h236l-750 -703l776 -772h-233l-668 668v-668h-164v1475z" />
    <glyph glyph-name="uni041B" unicode="&#x41b;" horiz-adv-x="1501" 
d="M401 1475h916v-1475h-164v1311h-600q-38 -500 -64 -713q-26 -211 -50 -301q-68 -251 -245 -303q-48 -14 -106 -14q-5 0 -14 1t-13 1v163h17q47 0 84.5 19t63.5 64.5t42 78t29 103.5t16 94t11 94q3 23 4 33q33 279 73 844z" />
    <glyph glyph-name="uni041C" unicode="&#x41c;" horiz-adv-x="1699" 
d="M184 1475h135l531 -918l530 918h136v-1475h-164v1100l-437 -758h-129l-438 758v-1100h-164v1475z" />
    <glyph glyph-name="uni041D" unicode="&#x41d;" 
d="M184 1475h164v-615h811v615h164v-1475h-164v696h-811v-696h-164v1475z" />
    <glyph glyph-name="uni041E" unicode="&#x41e;" horiz-adv-x="1679" 
d="M82 737q0 154 60 294.5t161.5 242t242 161.5t294.5 60t294 -60t241.5 -161.5t161.5 -242t60 -294.5q0 -206 -101.5 -380t-275.5 -275.5t-380 -101.5q-154 0 -294.5 60t-242 161.5t-161.5 241.5t-60 294zM246 737q0 -161 79.5 -298t216.5 -216.5t298 -79.5t298 79.5
t216.5 216.5t79.5 298t-79.5 298t-216.5 216.5t-298 79.5t-298 -79.5t-216.5 -216.5t-79.5 -298z" />
    <glyph glyph-name="uni041F" unicode="&#x41f;" 
d="M184 0v1475h1139v-1475h-164v1311h-811v-1311h-164z" />
    <glyph glyph-name="uni0420" unicode="&#x420;" horiz-adv-x="1308" 
d="M768 1311h-420v-635h418q129 0 213 90t84 227q0 138 -83.5 228t-211.5 90zM184 0v1475h582q201 0 331 -136.5t130 -345.5t-130 -345t-331 -136h-418v-512h-164z" />
    <glyph glyph-name="uni0421" unicode="&#x421;" horiz-adv-x="1466" 
d="M840 1495q162 0 305.5 -64t249.5 -178l-117 -116q-84 91 -197 142.5t-241 51.5q-161 0 -298 -79.5t-216.5 -216.5t-79.5 -298t79.5 -298t216.5 -216.5t298 -79.5q128 0 241 52t197 143l117 -117q-106 -114 -249.5 -177.5t-305.5 -63.5q-154 0 -294.5 60t-242 161.5
t-161.5 241.5t-60 294t60 294.5t161.5 242t242 161.5t294.5 60z" />
    <glyph glyph-name="uni0422" unicode="&#x422;" horiz-adv-x="1277" 
d="M51 1475h1176v-164h-506v-1311h-164v1311h-506v164z" />
    <glyph glyph-name="uni0423" unicode="&#x423;" horiz-adv-x="1153" 
d="M10 1475h185l417 -842l351 842h180l-514 -1239q-110 -256 -344 -256q-45 0 -68 2v163q16 -2 47 -2q82 0 128 35t83 127l53 129z" />
    <glyph glyph-name="uni0424" unicode="&#x424;" horiz-adv-x="1638" 
d="M61 737q0 252 178.5 402.5t497.5 169.5v166h164v-166q319 -19 497.5 -169.5t178.5 -402.5q0 -251 -178.5 -401.5t-497.5 -169.5v-166h-164v166q-319 19 -497.5 169.5t-178.5 401.5zM225 737q0 -184 131 -288t381 -119v815q-249 -15 -380.5 -119.5t-131.5 -288.5z
M1413 737q0 184 -131.5 288.5t-380.5 119.5v-815q250 15 381 119t131 288z" />
    <glyph glyph-name="uni0425" unicode="&#x425;" horiz-adv-x="1247" 
d="M61 1475h197l367 -564l364 564h197l-463 -713l494 -762h-195l-397 610l-398 -610h-196l495 762z" />
    <glyph glyph-name="uni0426" unicode="&#x426;" horiz-adv-x="1550" 
d="M184 0v1475h164v-1311h758v1311h164v-1311h198v-389h-163v225h-1121z" />
    <glyph glyph-name="uni0427" unicode="&#x427;" horiz-adv-x="1384" 
d="M143 1475h164v-588q0 -121 84 -196t209 -75q232 0 436 183v676h164v-1475h-164v596q-88 -69 -202.5 -107t-233.5 -38q-195 0 -326 122.5t-131 313.5v588z" />
    <glyph glyph-name="uni0428" unicode="&#x428;" horiz-adv-x="2129" 
d="M184 0v1475h164v-1311h635v1311h164v-1311h635v1311h164v-1475h-1762z" />
    <glyph glyph-name="uni0429" unicode="&#x429;" horiz-adv-x="2226" 
d="M184 0v1475h164v-1311h635v1311h164v-1311h635v1311h164v-1311h198v-389h-164v225h-1796z" />
    <glyph glyph-name="uni042A" unicode="&#x42a;" horiz-adv-x="1441" 
d="M938 858q102 0 184.5 -36.5t133 -98t77.5 -137.5t27 -158t-27 -157t-78 -136.5t-133 -98t-184 -36.5h-547v1311h-350v164h514v-617h383zM938 694h-383v-530h383q123 0 192.5 79t69.5 187q0 107 -69.5 185.5t-192.5 78.5z" />
    <glyph glyph-name="uni042B" unicode="&#x42b;" horiz-adv-x="1687" 
d="M731 858q82 0 152.5 -24t119.5 -65.5t84 -96.5t51.5 -117t16.5 -127q0 -82 -27 -157t-78 -136.5t-134 -98t-185 -36.5h-547v1475h164v-617h383zM731 694h-383v-530h383q123 0 192.5 79t69.5 187q0 107 -69.5 185.5t-192.5 78.5zM1339 1475h164v-1475h-164v1475z" />
    <glyph glyph-name="uni042C" unicode="&#x42c;" horiz-adv-x="1236" 
d="M184 0v1475h164v-617h383q82 0 152.5 -24t119.5 -65.5t84 -96.5t51.5 -117t16.5 -127q0 -82 -27 -157t-78 -136.5t-134 -98t-185 -36.5h-547zM731 694h-383v-530h383q123 0 192.5 79t69.5 187q0 107 -69.5 185.5t-192.5 78.5z" />
    <glyph glyph-name="uni042D" unicode="&#x42d;" horiz-adv-x="1466" 
d="M1384 737q0 -206 -101.5 -380t-275.5 -275.5t-380 -101.5q-162 0 -305.5 63.5t-249.5 177.5l116 117q84 -91 197.5 -143t241.5 -52q147 0 275 67.5t210.5 184.5t101.5 260h-825v164h825q-19 143 -101.5 260t-210.5 184.5t-275 67.5q-128 0 -242 -51.5t-197 -142.5
l-116 116q106 114 249.5 178t305.5 64q154 0 294 -60t241.5 -161.5t161.5 -242t60 -294.5z" />
    <glyph glyph-name="uni042E" unicode="&#x42e;" horiz-adv-x="2301" 
d="M1462 1495q154 0 294.5 -60t242 -161.5t161.5 -242t60 -294.5t-60 -294t-161.5 -241.5t-242 -161.5t-294.5 -60q-150 0 -286 56t-236.5 152t-163.5 228.5t-71 279.5h-357v-696h-164v1475h164v-615h367q29 178 134 323t266.5 228.5t346.5 83.5zM1462 1331
q-161 0 -298 -79.5t-216.5 -216.5t-79.5 -298t79.5 -298t216.5 -216.5t298 -79.5t298 79.5t216.5 216.5t79.5 298t-79.5 298t-216.5 216.5t-298 79.5z" />
    <glyph glyph-name="uni042F" unicode="&#x42f;" horiz-adv-x="1357" 
d="M1174 1475v-1475h-164v512h-459q-9 0 -27.5 1t-27.5 1l-252 -514h-183l275 561q-114 59 -179 172.5t-65 259.5q0 209 130 345.5t329 136.5h623zM1010 1311h-459q-129 0 -213 -90t-84 -228q0 -136 84.5 -226.5t212.5 -90.5h459v635z" />
    <glyph glyph-name="uni0430" unicode="&#x430;" horiz-adv-x="1290" 
d="M614 1044q111 0 212 -56t157 -136v172h164v-1024h-164v172q-56 -80 -157 -136t-212 -56q-144 0 -266.5 71.5t-194 194t-71.5 266.5t71.5 266.5t194 194t266.5 71.5zM614 881q-152 0 -260 -108.5t-108 -260.5t108 -260.5t260 -108.5t260.5 108.5t108.5 260.5t-108.5 260.5
t-260.5 108.5z" />
    <glyph glyph-name="uni0431" unicode="&#x431;" horiz-adv-x="1275" 
d="M113 578q1 109 8.5 192.5t28 175.5t63 170t106.5 139q58 55 133.5 92.5t153 58.5t154.5 40.5t159.5 52t147.5 78.5l82 -156q-66 -47 -147 -76.5t-154.5 -43.5t-145 -29t-141 -45.5t-121.5 -79.5q-113 -105 -143 -291q63 86 163 136.5t220 51.5q141 2 260 -70t186.5 -195
t67.5 -267q0 -150 -71.5 -272t-195.5 -191t-274 -69q-132 0 -237 48t-170.5 130.5t-99.5 189.5t-33 230zM276 512q0 -161 108 -265t269 -104q160 0 267.5 105t107.5 264q0 158 -109.5 262.5t-265.5 104.5q-153 0 -265 -108t-112 -259z" />
    <glyph glyph-name="uni0432" unicode="&#x432;" horiz-adv-x="1071" 
d="M143 1024h539q114 0 192 -72.5t78 -183.5q0 -70 -33.5 -129t-93.5 -96q75 -37 119.5 -106t44.5 -152q0 -123 -86 -204t-211 -81h-549v1024zM307 457v-293h338q85 0 132.5 43t47.5 102q0 60 -47 104t-133 44h-338zM307 860v-239h328q73 0 114.5 35.5t41.5 84.5
q0 48 -42 83.5t-114 35.5h-328z" />
    <glyph glyph-name="uni0433" unicode="&#x433;" horiz-adv-x="901" 
d="M143 1024h717v-164h-553v-860h-164v1024z" />
    <glyph glyph-name="uni0434" unicode="&#x434;" horiz-adv-x="1218" 
d="M291 1024h713v-860h133v-389h-164v225h-789v-225h-164v389h121q12 9 22.5 22.5t18 26t15 32l12.5 32.5t10 36.5t7.5 35t6 37t4.5 33.5t4 32.5t3 27.5q27 245 47 545zM440 862q-16 -244 -41 -450q-17 -165 -47 -248h488v698h-400z" />
    <glyph glyph-name="uni0435" unicode="&#x435;" horiz-adv-x="1173" 
d="M82 512q0 229 148 380.5t372 151.5q218 0 354 -148t136 -384q0 -18 -3.5 -53.5t-3.5 -42.5h-827q31 -124 130.5 -197.5t242.5 -73.5q186 0 291 117l116 -117q-152 -165 -403 -165q-241 0 -397 150.5t-156 381.5zM252 580h670q-17 137 -103.5 219t-216.5 82
q-135 0 -231.5 -84t-118.5 -217z" />
    <glyph glyph-name="uni0436" unicode="&#x436;" horiz-adv-x="1589" 
d="M713 1024h164v-432l428 432h233l-487 -492l518 -532h-230l-462 475v-475h-164v475l-463 -475h-230l519 532l-488 492h234l428 -432v432z" />
    <glyph glyph-name="uni0437" unicode="&#x437;" horiz-adv-x="1052" 
d="M535 1044q168 0 276.5 -76t108.5 -196q0 -43 -14.5 -78t-41 -60t-48 -39.5t-50.5 -29.5v-6q205 -93 205 -272q0 -140 -119 -223.5t-315 -83.5q-299 0 -476 198l121 111q134 -146 359 -146q128 0 197 42t69 120q0 73 -61 119.5t-158 46.5h-203v164h190q80 0 129.5 32.5
t49.5 86.5q0 58 -59 92.5t-158 34.5q-170 0 -277 -113l-119 113q151 163 394 163z" />
    <glyph glyph-name="uni0438" unicode="&#x438;" horiz-adv-x="1200" 
d="M1057 1024v-1024h-164v752l-592 -752h-158v1024h164v-752l592 752h158z" />
    <glyph glyph-name="uni0439" unicode="&#x439;" horiz-adv-x="1200" 
d="M1057 1024v-1024h-164v752l-592 -752h-158v1024h164v-752l592 752h158zM274 1475h132q15 -164 194 -164q180 0 195 164h133q-6 -146 -92 -222.5t-236 -76.5t-236 76.5t-90 222.5z" />
    <glyph glyph-name="uni043A" unicode="&#x43a;" horiz-adv-x="1019" 
d="M143 1024h164v-432l428 432h234l-488 -492l518 -532h-229l-463 475v-475h-164v1024z" />
    <glyph glyph-name="uni043B" unicode="&#x43b;" horiz-adv-x="1153" 
d="M297 1024h713v-1024h-164v862h-400q-28 -350 -40 -450q-22 -167 -44 -237q-69 -191 -237 -195h-64v159h13q24 0 44 7t36 24t28 32t21.5 44t15.5 45.5t12 52t8 48t6.5 48t4.5 39.5q27 245 47 545z" />
    <glyph glyph-name="uni043C" unicode="&#x43c;" horiz-adv-x="1316" 
d="M143 1024h154l360 -610l363 610h154v-1024h-164v682l-293 -483h-117l-293 483v-682h-164v1024z" />
    <glyph glyph-name="uni043D" unicode="&#x43d;" horiz-adv-x="1179" 
d="M143 1024h164v-430h565v430h164v-1024h-164v430h-565v-430h-164v1024z" />
    <glyph glyph-name="uni043E" unicode="&#x43e;" horiz-adv-x="1228" 
d="M248 512q0 -153 107 -261t259 -108t260.5 108.5t108.5 260.5t-108.5 259.5t-260.5 107.5t-259.5 -107.5t-106.5 -259.5zM82 512q0 144 71.5 266.5t194 194t266.5 71.5t267 -71.5t194.5 -194t71.5 -266.5q0 -145 -71.5 -267.5t-194.5 -193.5t-267 -71t-266.5 71
t-194 193.5t-71.5 267.5z" />
    <glyph glyph-name="uni043F" unicode="&#x43f;" horiz-adv-x="1169" 
d="M1026 1024v-1024h-164v860h-555v-860h-164v1024h883z" />
    <glyph glyph-name="uni0440" unicode="&#x440;" horiz-adv-x="1290" 
d="M676 1044q144 0 266.5 -71.5t194 -194t71.5 -266.5t-71.5 -266.5t-194 -194t-266.5 -71.5q-111 0 -212 56t-157 136v-684h-164v1536h164v-172q56 80 157 136t212 56zM676 881q-152 0 -260.5 -108.5t-108.5 -260.5t108.5 -260.5t260.5 -108.5t260 108.5t108 260.5
t-108 260.5t-260 108.5z" />
    <glyph glyph-name="uni0441" unicode="&#x441;" horiz-adv-x="1060" 
d="M82 512q0 144 71.5 266.5t194 194t266.5 71.5q112 0 212 -43.5t173 -121.5l-116 -117q-50 55 -120.5 86t-148.5 31q-152 0 -259.5 -107.5t-106.5 -259.5q0 -153 107 -261t259 -108q78 0 148 32t121 87l116 -117q-73 -78 -173 -121.5t-212 -43.5q-144 0 -266.5 71
t-194 193.5t-71.5 267.5z" />
    <glyph glyph-name="uni0442" unicode="&#x442;" horiz-adv-x="929" 
d="M41 1024h848v-164h-342v-860h-164v860h-342v164z" />
    <glyph glyph-name="uni0443" unicode="&#x443;" horiz-adv-x="1081" 
d="M20 1024h179l346 -809l338 809h178l-514 -1237q-109 -258 -344 -258q-46 0 -66 2v164q14 -2 45 -2q81 0 127 35.5t86 126.5l62 145z" />
    <glyph glyph-name="uni0444" unicode="&#x444;" horiz-adv-x="1392" 
d="M82 512q0 144 71 266.5t193.5 194t267.5 71.5v431h164v-431q144 0 267 -71.5t194.5 -194t71.5 -266.5q0 -145 -71.5 -267.5t-194.5 -193.5t-267 -71v-431h-164v431q-145 0 -267.5 71.5t-193.5 194t-71 266.5zM1145 512q0 152 -107.5 259.5t-259.5 107.5v-736
q152 0 259.5 108.5t107.5 260.5zM246 512q0 -152 107.5 -259.5t260.5 -109.5v736q-152 0 -260 -107.5t-108 -259.5z" />
    <glyph glyph-name="uni0445" unicode="&#x445;" horiz-adv-x="1087" 
d="M440 532l-387 492h209l283 -358l280 358h209l-385 -492l418 -532h-207l-315 401l-316 -401h-209z" />
    <glyph glyph-name="uni0446" unicode="&#x446;" horiz-adv-x="1257" 
d="M1042 164h134v-389h-164v225h-869v1024h164v-860h572v860h163v-860z" />
    <glyph glyph-name="uni0447" unicode="&#x447;" horiz-adv-x="1200" 
d="M143 1024h164v-401q0 -61 17.5 -104.5t49 -66t66.5 -32.5t78 -10q99 0 196 45.5t179 119.5v449h164v-1024h-164v373q-71 -54 -178 -90.5t-203 -36.5q-99 0 -181.5 41t-135 128.5t-52.5 207.5v401z" />
    <glyph glyph-name="uni0448" unicode="&#x448;" horiz-adv-x="1716" 
d="M143 0v1024h164v-860h469v860h164v-860h469v860h164v-1024h-1430z" />
    <glyph glyph-name="uni0449" unicode="&#x449;" horiz-adv-x="1787" 
d="M143 0v1024h164v-860h469v860h164v-860h469v860h164v-860h133v-389h-164v225h-1399z" />
    <glyph glyph-name="uni044A" unicode="&#x44a;" horiz-adv-x="1273" 
d="M791 694q101 0 180.5 -29.5t126 -79.5t70.5 -110t24 -127t-24 -128t-70.5 -111t-126 -79.5t-180.5 -29.5h-476v860h-274v164h438v-330h312zM791 530h-312v-366h312q121 0 180 53t59 129q0 77 -59 130.5t-180 53.5z" />
    <glyph glyph-name="uni044B" unicode="&#x44b;" horiz-adv-x="1495" 
d="M143 1024h164v-330h311q102 0 182 -29.5t127 -79.5t71 -110t24 -127t-24 -128t-71 -111t-127 -79.5t-182 -29.5h-475v1024zM307 164h311q121 0 181.5 53.5t60.5 128.5q0 77 -60 130.5t-182 53.5h-311v-366zM1188 1024h164v-1024h-164v1024z" />
    <glyph glyph-name="uni044C" unicode="&#x44c;" horiz-adv-x="1103" 
d="M143 1024h164v-330h311q102 0 182 -29.5t127 -79.5t71 -110t24 -127t-24 -128t-71 -111t-127 -79.5t-182 -29.5h-475v1024zM307 164h311q121 0 181.5 53.5t60.5 128.5q0 77 -60 130.5t-182 53.5h-311v-366z" />
    <glyph glyph-name="uni044D" unicode="&#x44d;" horiz-adv-x="1060" 
d="M979 512q0 -144 -71 -266.5t-194 -194t-268 -71.5q-112 0 -212 43.5t-173 121.5l117 117q112 -119 268 -119q131 0 231 81.5t128 205.5h-422v164h422q-28 124 -128 204.5t-231 80.5q-158 0 -268 -117l-117 117q73 78 173 121.5t212 43.5q145 0 268 -71.5t194 -194
t71 -266.5z" />
    <glyph glyph-name="uni044E" unicode="&#x44e;" horiz-adv-x="1679" 
d="M1065 1044q144 0 266.5 -71.5t194 -194t71.5 -266.5q0 -145 -71.5 -267.5t-194 -193.5t-266.5 -71q-198 0 -347.5 128.5t-178.5 321.5h-232v-430h-164v1024h164v-430h232q29 193 178.5 321.5t347.5 128.5zM1065 879q-152 0 -259.5 -107.5t-107.5 -259.5t107.5 -260.5
t259.5 -108.5t260.5 108.5t108.5 260.5t-108.5 259.5t-260.5 107.5z" />
    <glyph glyph-name="uni044F" unicode="&#x44f;" horiz-adv-x="1046" 
d="M379 1024h524v-1024h-164v356h-258h-16l-232 -356h-192l242 371q-101 30 -161.5 116t-60.5 203q0 145 90 239.5t228 94.5zM379 860q-74 0 -115 -50t-41 -120q0 -73 43 -122.5t113 -49.5h360v342h-360z" />
    <glyph glyph-name="uni0450" unicode="&#x450;" horiz-adv-x="1173" 
d="M82 512q0 229 148 380.5t372 151.5q218 0 354 -148t136 -384q0 -18 -3.5 -53.5t-3.5 -42.5h-827q31 -124 130.5 -197.5t242.5 -73.5q186 0 291 117l116 -117q-152 -165 -403 -165q-241 0 -397 150.5t-156 381.5zM252 580h670q-17 137 -103.5 219t-216.5 82
q-135 0 -231.5 -84t-118.5 -217zM705 1192h-150l-168 285h164z" />
    <glyph glyph-name="uni0451" unicode="&#x451;" horiz-adv-x="1173" 
d="M82 512q0 229 148 380.5t372 151.5q218 0 354 -148t136 -384q0 -18 -3.5 -53.5t-3.5 -42.5h-827q31 -124 130.5 -197.5t242.5 -73.5q186 0 291 117l116 -117q-152 -165 -403 -165q-241 0 -397 150.5t-156 381.5zM252 580h670q-17 137 -103.5 219t-216.5 82
q-135 0 -231.5 -84t-118.5 -217zM383 1495q41 0 71.5 -30.5t30.5 -73.5t-30.5 -73t-71.5 -30q-43 0 -73.5 30t-30.5 73t30.5 73.5t73.5 30.5zM793 1495q41 0 71.5 -30.5t30.5 -73.5t-30.5 -73t-71.5 -30q-43 0 -74 30t-31 73t31 73.5t74 30.5z" />
    <glyph glyph-name="uni0452" unicode="&#x452;" horiz-adv-x="1187" 
d="M143 1313v162h164v-162h256v-127h-256v-301q62 71 147 115t185 44q185 0 295 -117t110 -319v-723q0 -194 -66.5 -275t-225.5 -81h-31v164h18q85 0 113.5 40t28.5 158v709q0 156 -70.5 229.5t-194.5 73.5q-131 0 -220 -88t-89 -233v-582h-164v1186h-112v127h112z" />
    <glyph glyph-name="uni0453" unicode="&#x453;" horiz-adv-x="901" 
d="M143 1024h717v-164h-553v-860h-164v1024zM401 1192l154 285h164l-168 -285h-150z" />
    <glyph glyph-name="uni0454" unicode="&#x454;" horiz-adv-x="1060" 
d="M82 512q0 144 71.5 266.5t194 194t266.5 71.5q112 0 212 -43.5t173 -121.5l-116 -117q-51 55 -121 87t-148 32q-129 0 -229.5 -81.5t-128.5 -205.5h422v-164h-422q28 -124 128 -204.5t230 -80.5q78 0 148.5 31t120.5 86l116 -117q-73 -78 -173 -121.5t-212 -43.5
q-144 0 -266.5 71.5t-194 194t-71.5 266.5z" />
    <glyph glyph-name="uni0455" unicode="&#x455;" horiz-adv-x="942" 
d="M453 1044q118 0 226 -44.5t179 -120.5l-117 -117q-117 117 -290 117q-90 0 -144.5 -33.5t-54.5 -81.5q0 -26 16.5 -47t61 -40t68 -26.5t90.5 -26.5q13 -4 20 -6q45 -12 74.5 -21.5t72.5 -26.5t71.5 -33.5t60 -42.5t50.5 -55.5t31.5 -69.5t12.5 -86q0 -131 -116.5 -217
t-293.5 -86q-245 0 -410 165l117 117q116 -119 297 -119q100 0 171 41t71 99q0 24 -9.5 45t-29 37.5t-37.5 28.5t-48.5 24t-48.5 18t-50 15t-41 12q-146 43 -195 66q-156 71 -170 201q-2 14 -2 30q0 127 103.5 205.5t263.5 78.5z" />
    <glyph glyph-name="uni0456" unicode="&#x456;" horiz-adv-x="450" 
d="M225 1495q43 0 74 -30.5t31 -73.5t-31 -73t-74 -30t-73.5 30t-30.5 73t30.5 73.5t73.5 30.5zM143 1024h164v-1024h-164v1024z" />
    <glyph glyph-name="uni0457" unicode="&#x457;" horiz-adv-x="450" 
d="M143 1024h164v-1024h-164v1024zM20 1495q43 0 74 -30.5t31 -73.5t-31 -73t-74 -30t-73.5 30t-30.5 73t30.5 73.5t73.5 30.5zM430 1495q43 0 74 -30.5t31 -73.5t-31 -73t-74 -30t-73.5 30t-30.5 73t30.5 73.5t73.5 30.5z" />
    <glyph glyph-name="uni0458" unicode="&#x458;" horiz-adv-x="450" 
d="M143 -109v1133h164v-1139q0 -194 -66.5 -275t-226.5 -81h-30v164h18q85 0 113 39.5t28 158.5zM225 1495q-43 0 -73.5 -30.5t-30.5 -73.5t30.5 -73t73.5 -30t74 30t31 73t-31 73.5t-74 30.5z" />
    <glyph glyph-name="uni0459" unicode="&#x459;" horiz-adv-x="1804" 
d="M1321 694q101 0 180.5 -29.5t126 -79.5t70.5 -110t24 -127t-24 -128t-70.5 -111t-126 -79.5t-180.5 -29.5h-475v862h-400q-28 -350 -40 -450q-22 -167 -44 -237q-69 -191 -237 -195h-64v159h13q24 0 44 7t36 24t28 32t21.5 44t15.5 45.5t12 52t8 48t6.5 48t4.5 39.5
q27 245 47 545h713v-330h311zM1321 530h-311v-366h311q121 0 180.5 53t59.5 129q0 77 -59.5 130.5t-180.5 53.5z" />
    <glyph glyph-name="uni045A" unicode="&#x45a;" horiz-adv-x="1832" 
d="M1348 694q102 0 181.5 -29.5t126.5 -79.5t71 -110t24 -127t-24 -128t-71 -111t-126.5 -79.5t-181.5 -29.5h-476v530h-565v-530h-164v1024h164v-330h565v330h164v-330h312zM1348 530h-312v-366h312q123 0 182 53t59 129q0 77 -59 130.5t-182 53.5z" />
    <glyph glyph-name="uni045B" unicode="&#x45b;" horiz-adv-x="1187" 
d="M31 1186v127h112v162h164v-162h256v-127h-256v-301q62 71 147 115t185 44q185 0 295 -117t110 -319v-608h-163v600q0 156 -70.5 229.5t-194.5 73.5q-131 0 -220 -88t-89 -233v-582h-164v1186h-112z" />
    <glyph glyph-name="uni045C" unicode="&#x45c;" horiz-adv-x="1019" 
d="M424 1192l154 285h165l-170 -285h-149zM143 1024h164v-432l428 432h234l-488 -492l518 -532h-229l-463 475v-475h-164v1024z" />
    <glyph glyph-name="uni045D" unicode="&#x45d;" horiz-adv-x="1200" 
d="M1057 1024v-1024h-164v752l-592 -752h-158v1024h164v-752l592 752h158zM698 1192h-149l-170 285h166z" />
    <glyph glyph-name="uni045E" unicode="&#x45e;" horiz-adv-x="1081" 
d="M20 1024h179l346 -809l338 809h178l-514 -1237q-109 -258 -344 -258q-46 0 -66 2v164q14 -2 45 -2q81 0 127 35.5t86 126.5l62 145zM215 1475h131q15 -164 195 -164q179 0 194 164h131q-4 -146 -89.5 -222.5t-235.5 -76.5t-236 76.5t-90 222.5z" />
    <glyph glyph-name="uni045F" unicode="&#x45f;" horiz-adv-x="1185" 
d="M143 1024h164v-860h572v860h163v-1024h-366v-225h-164v225h-369v1024z" />
    <glyph glyph-name="uni0462" unicode="&#x462;" horiz-adv-x="1236" 
d="M731 858q82 0 152.5 -24t119.5 -65.5t84 -96.5t51.5 -117t16.5 -127q0 -82 -27 -157t-78 -136.5t-134 -98t-185 -36.5h-547v1124h-133v127h133v224h164v-224h256v-127h-256v-266h383zM731 694h-383v-530h383q123 0 192.5 79t69.5 187q0 107 -69.5 185.5t-192.5 78.5z" />
    <glyph glyph-name="uni0463" unicode="&#x463;" horiz-adv-x="1103" 
d="M143 1475h164v-324h256v-127h-256v-330h311q102 0 182 -29.5t127 -79.5t71 -110t24 -127t-24 -128t-71 -111t-127 -79.5t-182 -29.5h-475v1024h-112v127h112v324zM307 164h311q121 0 181.5 53.5t60.5 128.5q0 77 -60 130.5t-182 53.5h-311v-366z" />
    <glyph glyph-name="uni0472" unicode="&#x472;" horiz-adv-x="1679" 
d="M840 1495q154 0 294 -60t241.5 -161.5t161.5 -242t60 -294.5q0 -206 -101.5 -380t-275.5 -275.5t-380 -101.5q-154 0 -294.5 60t-242 161.5t-161.5 241.5t-60 294t60 294.5t161.5 242t242 161.5t294.5 60zM1427 655h-1175q19 -143 102 -260t211 -184.5t275 -67.5
t275 67.5t210.5 184.5t101.5 260zM840 1331q-147 0 -275 -67.5t-211 -184.5t-102 -260h1175q-19 143 -101.5 260t-210.5 184.5t-275 67.5z" />
    <glyph glyph-name="uni0473" unicode="&#x473;" horiz-adv-x="1228" 
d="M614 1044q144 0 267 -71.5t194.5 -194t71.5 -266.5q0 -145 -71.5 -267.5t-194.5 -193.5t-267 -71t-266.5 71t-194 193.5t-71.5 267.5q0 144 71.5 266.5t194 194t266.5 71.5zM614 879q-130 0 -230 -80.5t-128 -204.5h717q-28 124 -128.5 204.5t-230.5 80.5zM973 430h-717
q28 -124 128.5 -205.5t229.5 -81.5t230 81.5t129 205.5z" />
    <glyph glyph-name="uni0474" unicode="&#x474;" horiz-adv-x="1431" 
d="M10 1475h176l476 -1223l366 944q33 87 60.5 138.5t67 90.5t91.5 54.5t127 15.5h37v-164h-37q-79 0 -109.5 -27t-62.5 -114l-463 -1190h-157z" />
    <glyph glyph-name="uni0475" unicode="&#x475;" horiz-adv-x="1175" 
d="M20 1024h179l352 -821l262 608q51 119 118 166t185 47h19v-164h-19q-59 0 -89 -18t-54 -74l-330 -768h-182z" />
    <glyph glyph-name="uni0490" unicode="&#x490;" horiz-adv-x="1093" 
d="M879 1700h163v-389h-694v-1311h-164v1475h695v225z" />
    <glyph glyph-name="uni0491" unicode="&#x491;" horiz-adv-x="899" 
d="M694 1249h164v-389h-551v-860h-164v1024h551v225z" />
    <glyph glyph-name="uni049A" unicode="&#x49a;" horiz-adv-x="1386" 
d="M184 0v1475h164v-598l639 598h236l-750 -703l612 -608h220v-389h-164v225h-125l-668 668v-668h-164z" />
    <glyph glyph-name="uni049B" unicode="&#x49b;" horiz-adv-x="1136" 
d="M143 0v1024h164v-432l428 432h234l-488 -492l361 -368h213v-389h-164v225h-121l-463 475v-475h-164z" />
    <glyph glyph-name="uni04AE" unicode="&#x4ae;" horiz-adv-x="1257" 
d="M547 520l-537 955h187l432 -764l432 764h186l-536 -955v-520h-164v520z" />
    <glyph glyph-name="uni04AF" unicode="&#x4af;" horiz-adv-x="1107" 
d="M20 1024h179l354 -817l356 817h178l-452 -1040v-435h-164v435z" />
    <glyph glyph-name="uni058F" unicode="&#x58f;" horiz-adv-x="1323" 
d="M539 1495q97 0 183.5 -31.5t158 -95t113.5 -172t42 -250.5v-65h246v-164h-246v-164h246v-164h-246v-409h-164v409h-254v164h254v164h-254v164h254v65q0 103 -28 180t-76 120t-105.5 64t-123.5 21q-65 0 -122.5 -21t-106 -64t-77 -120t-28.5 -180h-164q0 114 28 207.5
t75 156t111.5 105t135.5 61.5t148 19z" />
    <glyph glyph-name="Wgrave" unicode="&#x1e80;" horiz-adv-x="2013" 
d="M10 1475h176l373 -1223l371 1223h153l373 -1223l371 1223h176l-469 -1475h-158l-368 1161l-371 -1161h-158zM1085 1642h-149l-170 285h166z" />
    <glyph glyph-name="wgrave" unicode="&#x1e81;" horiz-adv-x="1441" 
d="M20 1024h173l225 -729l223 729h160l223 -729l225 729h172l-315 -1024h-162l-223 723l-223 -723h-162zM799 1192h-150l-170 285h166z" />
    <glyph glyph-name="Wacute" unicode="&#x1e82;" horiz-adv-x="2013" 
d="M10 1475h176l373 -1223l371 1223h153l373 -1223l371 1223h176l-469 -1475h-158l-368 1161l-371 -1161h-158zM930 1642l153 285h166l-170 -285h-149z" />
    <glyph glyph-name="wacute" unicode="&#x1e83;" horiz-adv-x="1441" 
d="M20 1024h173l225 -729l223 729h160l223 -729l225 729h172l-315 -1024h-162l-223 723l-223 -723h-162zM643 1192l154 285h166l-170 -285h-150z" />
    <glyph glyph-name="Wdieresis" unicode="&#x1e84;" horiz-adv-x="2013" 
d="M10 1475h176l373 -1223l371 1223h153l373 -1223l371 1223h176l-469 -1475h-158l-368 1161l-371 -1161h-158zM803 1872q42 0 72 -31t30 -74t-29.5 -72.5t-72.5 -29.5t-74 30t-31 72q0 43 31 74t74 31zM1212 1872q43 0 73 -31t30 -74t-30 -72.5t-73 -29.5t-73.5 29.5
t-30.5 72.5t30.5 74t73.5 31z" />
    <glyph glyph-name="wdieresis" unicode="&#x1e85;" horiz-adv-x="1441" 
d="M20 1024h173l225 -729l223 729h160l223 -729l225 729h172l-315 -1024h-162l-223 723l-223 -723h-162zM516 1495q43 0 74 -30.5t31 -73.5t-31 -73t-74 -30t-73.5 30t-30.5 73t30.5 73.5t73.5 30.5zM926 1495q43 0 73.5 -30.5t30.5 -73.5t-30.5 -73t-73.5 -30t-74 30
t-31 73t31 73.5t74 30.5z" />
    <glyph glyph-name="Germandbls" unicode="&#x1e9e;" horiz-adv-x="1445" 
d="M686 1475h522v-146l-280 -416q189 -25 307.5 -155t118.5 -316q0 -115 -42 -204.5t-116 -145t-168 -84t-203 -28.5q-170 0 -309 51l27 166q131 -53 293 -56q73 0 135 17.5t112 52.5t78.5 94.5t28.5 136.5q0 140 -96 228t-248 88q-37 0 -68 -8l-80 118l301 443h-315
q-155 0 -245.5 -90.5t-90.5 -245.5v-975h-164v973q0 226 138 364t364 138z" />
    <glyph glyph-name="Ygrave" unicode="&#x1ef2;" horiz-adv-x="1257" 
d="M547 520l-537 955h187l432 -764l432 764h186l-536 -955v-520h-164v520zM635 1927l153 -285h-149l-170 285h166z" />
    <glyph glyph-name="ygrave" unicode="&#x1ef3;" horiz-adv-x="1081" 
d="M20 1024h179l346 -809l338 809h178l-514 -1237q-109 -258 -344 -258q-46 0 -66 2v164q14 -2 45 -2q81 0 127 35.5t86 126.5l62 145zM700 1192h-149l-170 285h166z" />
    <glyph glyph-name="endash" unicode="&#x2013;" horiz-adv-x="980" 
d="M0 412v163h981v-163h-981z" />
    <glyph glyph-name="emdash" unicode="&#x2014;" horiz-adv-x="1613" 
d="M0 412v163h1614v-163h-1614z" />
    <glyph glyph-name="uni2015" unicode="&#x2015;" horiz-adv-x="1613" 
d="M0 412v163h1614v-163h-1614z" />
    <glyph glyph-name="quoteleft" unicode="&#x2018;" horiz-adv-x="409" 
d="M328 1475l-41 -549h-185l93 549h133z" />
    <glyph glyph-name="quoteright" unicode="&#x2019;" horiz-adv-x="409" 
d="M82 926l41 549h184l-92 -549h-133z" />
    <glyph glyph-name="quotesinglbase" unicode="&#x201a;" horiz-adv-x="409" 
d="M82 -336l41 508h184l-92 -508h-133z" />
    <glyph glyph-name="quotedblleft" unicode="&#x201c;" horiz-adv-x="696" 
d="M614 1475l-41 -549h-184l92 549h133zM369 1475l-82 -549h-185l134 549h133z" />
    <glyph glyph-name="quotedblright" unicode="&#x201d;" horiz-adv-x="696" 
d="M82 926l41 549h184l-92 -549h-133zM328 926l82 549h184l-133 -549h-133z" />
    <glyph glyph-name="quotedblbase" unicode="&#x201e;" horiz-adv-x="696" 
d="M82 -336l41 508h184l-92 -508h-133zM328 -336l82 508h184l-133 -508h-133z" />
    <glyph glyph-name="dagger" unicode="&#x2020;" horiz-adv-x="735" 
d="M287 1475h164v-676h202v-164h-202v-635h-164v635h-205v164h205v676z" />
    <glyph glyph-name="daggerdbl" unicode="&#x2021;" horiz-adv-x="776" 
d="M307 1475h164v-492h223v-164h-223v-205h223v-163h-223v-451h-164v451h-225v163h225v205h-225v164h225v492z" />
    <glyph glyph-name="bullet" unicode="&#x2022;" horiz-adv-x="978" 
d="M489 981q119 0 202 -83.5t83 -201.5t-83 -201t-202 -83t-201.5 83t-82.5 201q0 119 83 202t201 83z" />
    <glyph glyph-name="ellipsis" unicode="&#x2026;" horiz-adv-x="1431" 
d="M238 211q49 0 82.5 -33.5t33.5 -83.5q0 -48 -33.5 -81t-82.5 -33q-47 0 -81 33.5t-34 80.5q0 49 33.5 83t81.5 34zM715 211q49 0 82.5 -33.5t33.5 -83.5q0 -48 -33.5 -81t-82.5 -33q-47 0 -81 33.5t-34 80.5q0 49 33.5 83t81.5 34zM1192 211q50 0 83.5 -33.5t33.5 -83.5
q0 -47 -34 -80.5t-83 -33.5q-47 0 -81 33.5t-34 80.5q0 49 33.5 83t81.5 34z" />
    <glyph glyph-name="perthousand" unicode="&#x2030;" horiz-adv-x="2613" 
d="M1470 1475h-167l-1002 -1475h170zM219 1135q0 -94 65.5 -160t157.5 -66q94 0 160 66t66 160q0 92 -66 157.5t-160 65.5q-92 0 -157.5 -65.5t-65.5 -157.5zM82 1135q0 149 105.5 254.5t254.5 105.5q151 0 257 -105.5t106 -254.5q0 -151 -106 -257t-257 -106
q-149 0 -254.5 106t-105.5 257zM1106 340q0 -92 65.5 -157.5t159.5 -65.5q92 0 157.5 65.5t65.5 157.5q0 94 -65.5 159.5t-157.5 65.5q-94 0 -159.5 -65.5t-65.5 -159.5zM969 340q0 151 105.5 256.5t256.5 105.5q149 0 255 -106t106 -256q0 -149 -106 -254.5t-255 -105.5
q-151 0 -256.5 105.5t-105.5 254.5zM1946 340q0 -92 65.5 -157.5t159.5 -65.5q92 0 157.5 65.5t65.5 157.5q0 94 -65.5 159.5t-157.5 65.5q-94 0 -159.5 -65.5t-65.5 -159.5zM1808 340q0 151 106 256.5t257 105.5q149 0 254.5 -105.5t105.5 -256.5q0 -149 -105.5 -254.5
t-254.5 -105.5q-151 0 -257 105.5t-106 254.5z" />
    <glyph glyph-name="guilsinglleft" unicode="&#x2039;" horiz-adv-x="729" 
d="M395 150l-272 382l272 383h211l-272 -383l272 -382h-211z" />
    <glyph glyph-name="guilsinglright" unicode="&#x203a;" horiz-adv-x="729" 
d="M334 150h-211l272 382l-272 383h211l272 -383z" />
    <glyph glyph-name="uni203D" unicode="&#x203d;" horiz-adv-x="1132" 
d="M92 1159q54 155 182.5 245.5t300.5 90.5q197 0 316 -112.5t119 -282.5q0 -66 -20 -124t-52 -102t-71 -85.5t-78.5 -84t-73 -88.5t-55.5 -107.5t-25 -131.5h-129l-17 559v231h164v-231l-4 -145q23 28 67.5 74.5t67.5 73t42.5 70t19.5 91.5q0 100 -71 165.5t-197 65.5
q-123 0 -210 -63t-120 -170zM455 94q0 49 34 83t82 34t81.5 -34t33.5 -83q0 -47 -34 -80.5t-81 -33.5t-81.5 33.5t-34.5 80.5z" />
    <glyph glyph-name="fraction" unicode="&#x2044;" horiz-adv-x="489" 
d="M674 1475h164l-1022 -1475h-164z" />
    <glyph glyph-name="uni2070" unicode="&#x2070;" horiz-adv-x="851" 
d="M82 1255q0 213 91.5 334t252.5 121t252.5 -121t91.5 -334q0 -212 -91.5 -333t-252.5 -121t-252.5 121t-91.5 333zM203 1255q0 -165 59.5 -246t163.5 -81t163.5 81t59.5 246t-59.5 246.5t-163.5 81.5t-163.5 -81.5t-59.5 -246.5z" />
    <glyph glyph-name="uni2074" unicode="&#x2074;" horiz-adv-x="786" 
d="M506 1333h123v-205h106v-122h-106v-193h-123v193h-445v104l330 588h141l-317 -570h291v205z" />
    <glyph glyph-name="uni2075" unicode="&#x2075;" horiz-adv-x="712" 
d="M117 1698h483v-123h-369l-14 -172q74 16 125 16q133 0 216 -82.5t83 -218.5q0 -150 -90 -233.5t-217 -83.5q-98 0 -178 54t-115 157l115 45q23 -66 71 -100.5t109 -34.5q77 0 130 50.5t54 145.5q0 85 -49 131.5t-133 46.5q-63 0 -131 -28h-123z" />
    <glyph glyph-name="uni2076" unicode="&#x2076;" horiz-adv-x="774" 
d="M82 1106q0 89 45 162l281 430h145l-184 -287h18q126 0 215.5 -89.5t89.5 -215.5t-89.5 -215.5t-215.5 -89.5t-215.5 89.5t-89.5 215.5zM205 1106q0 -75 53.5 -128.5t128.5 -53.5t128.5 53.5t53.5 128.5t-53.5 128.5t-128.5 53.5t-128.5 -53.5t-53.5 -128.5z" />
    <glyph glyph-name="uni2077" unicode="&#x2077;" horiz-adv-x="704" 
d="M51 1698h572v-105l-353 -780h-135l344 762h-428v123z" />
    <glyph glyph-name="uni2078" unicode="&#x2078;" horiz-adv-x="813" 
d="M408 1710q133 0 213.5 -67.5t80.5 -180.5q0 -124 -110 -194q139 -64 139 -211q0 -118 -82 -187t-241 -69q-160 0 -243 69t-83 187q0 145 139 211q-110 70 -110 194q0 113 81.5 180.5t215.5 67.5zM408 1196q-93 0 -149 -37t-56 -100q0 -137 205 -137q202 0 202 137
q0 63 -55 100t-147 37zM408 1587q-83 0 -129 -33.5t-46 -93.5q0 -59 49 -95t126 -36t124.5 35.5t47.5 95.5t-45 93.5t-127 33.5z" />
    <glyph glyph-name="uni2079" unicode="&#x2079;" horiz-adv-x="774" 
d="M387 1710q126 0 215.5 -89.5t89.5 -215.5q0 -94 -45 -162l-280 -430h-146l187 287h-21q-126 0 -215.5 89.5t-89.5 215.5t89.5 215.5t215.5 89.5zM387 1587q-75 0 -128.5 -53.5t-53.5 -128.5t53.5 -128.5t128.5 -53.5q76 0 129 53.5t53 128.5t-53.5 128.5t-128.5 53.5z
" />
    <glyph glyph-name="uni207A" unicode="&#x207a;" horiz-adv-x="665" 
d="M82 1196v123h190v190h123v-190h189v-123h-189v-190h-123v190h-190z" />
    <glyph glyph-name="uni207B" unicode="&#x207b;" horiz-adv-x="665" 
d="M82 1196v123h502v-123h-502z" />
    <glyph glyph-name="uni207C" unicode="&#x207c;" horiz-adv-x="665" 
d="M82 1321v123h502v-123h-502zM82 1075v123h502v-123h-502z" />
    <glyph glyph-name="uni207D" unicode="&#x207d;" horiz-adv-x="399" 
d="M348 1782q-145 -219 -145 -516t145 -516h-141q-125 210 -125 516t125 516h141z" />
    <glyph glyph-name="uni207E" unicode="&#x207e;" horiz-adv-x="399" 
d="M51 1782h142q124 -208 124 -516t-124 -516h-142q146 221 146 516t-146 516z" />
    <glyph glyph-name="uni207F" unicode="&#x207f;" horiz-adv-x="827" 
d="M123 1475h123v-84q82 96 198 96q117 0 189 -72.5t72 -189.5v-365h-123v340q0 80 -37.5 123t-112.5 43q-79 0 -132.5 -53.5t-53.5 -141.5v-311h-123v615z" />
    <glyph glyph-name="uni2080" unicode="&#x2080;" horiz-adv-x="851" 
d="M82 217q0 213 91.5 334t252.5 121t252.5 -121t91.5 -334t-91.5 -334t-252.5 -121t-252.5 121t-91.5 334zM203 217q0 -165 59.5 -246.5t163.5 -81.5t163.5 81.5t59.5 246.5t-59.5 246.5t-163.5 81.5t-163.5 -81.5t-59.5 -246.5z" />
    <glyph glyph-name="uni2081" unicode="&#x2081;" horiz-adv-x="571" 
d="M61 506l254 153h113v-884h-123v737l-182 -111z" />
    <glyph glyph-name="uni2082" unicode="&#x2082;" horiz-adv-x="755" 
d="M78 469q32 94 107.5 148.5t176.5 54.5q122 0 200.5 -74t78.5 -192q0 -78 -42 -152.5t-136 -167.5l-195 -190h385v-121h-569v104l291 293q44 43 70 72.5t49.5 75.5t23.5 90q0 63 -41.5 101t-111.5 38q-135 0 -183 -135z" />
    <glyph glyph-name="uni2083" unicode="&#x2083;" horiz-adv-x="698" 
d="M94 659h498v-98l-199 -239q105 -20 169.5 -97t64.5 -184q0 -123 -82 -201t-211 -78q-103 0 -181 56.5t-112 154.5l111 45q21 -64 70.5 -99.5t111.5 -35.5q76 0 123 43.5t47 114.5q0 73 -50 119.5t-130 46.5q-19 0 -43 -4l-60 92l197 242h-324v122z" />
    <glyph glyph-name="uni2084" unicode="&#x2084;" horiz-adv-x="786" 
d="M506 293h123v-205h106v-123h-106v-192h-123v192h-445v105l330 587h141l-317 -569h291v205z" />
    <glyph glyph-name="uni2085" unicode="&#x2085;" horiz-adv-x="712" 
d="M117 659h483v-122h-369l-14 -172q74 16 125 16q133 0 216 -82.5t83 -218.5q0 -150 -90 -234t-217 -84q-98 0 -178 54t-115 157l115 45q23 -66 71 -100.5t109 -34.5q77 0 130 51t54 146q0 85 -49 131.5t-133 46.5q-60 0 -131 -29h-123z" />
    <glyph glyph-name="uni2086" unicode="&#x2086;" horiz-adv-x="774" 
d="M82 68q0 88 45 161l281 430h145l-184 -286h18q126 0 215.5 -89.5t89.5 -215.5t-89.5 -216t-215.5 -90t-215.5 90t-89.5 216zM205 68q0 -75 53.5 -129t128.5 -54t128.5 54t53.5 129t-53.5 128.5t-128.5 53.5t-128.5 -53.5t-53.5 -128.5z" />
    <glyph glyph-name="uni2087" unicode="&#x2087;" horiz-adv-x="704" 
d="M51 659h572v-104l-353 -780h-135l344 762h-428v122z" />
    <glyph glyph-name="uni2088" unicode="&#x2088;" horiz-adv-x="813" 
d="M408 672q133 0 213.5 -67.5t80.5 -182.5q0 -123 -110 -193q139 -64 139 -213q0 -117 -82 -185.5t-241 -68.5q-160 0 -243 69t-83 185q0 147 139 213q-110 70 -110 193q0 115 81.5 182.5t215.5 67.5zM408 158q-93 0 -149 -38t-56 -102q0 -135 205 -135q202 0 202 135
q0 64 -55 102t-147 38zM408 549q-83 0 -129 -34t-46 -95q0 -58 49 -93.5t126 -35.5t124.5 35.5t47.5 93.5q0 61 -45 95t-127 34z" />
    <glyph glyph-name="uni2089" unicode="&#x2089;" horiz-adv-x="774" 
d="M387 672q126 0 215.5 -89.5t89.5 -215.5q0 -94 -45 -162l-280 -430h-146l187 286h-21q-126 0 -215.5 90t-89.5 216t89.5 215.5t215.5 89.5zM387 549q-75 0 -128.5 -53.5t-53.5 -128.5t53.5 -129t128.5 -54q76 0 129 54t53 129t-53.5 128.5t-128.5 53.5z" />
    <glyph glyph-name="uni208A" unicode="&#x208a;" horiz-adv-x="665" 
d="M82 154v122h190v191h123v-191h189v-122h-189v-191h-123v191h-190z" />
    <glyph glyph-name="uni208B" unicode="&#x208b;" horiz-adv-x="665" 
d="M82 154v122h502v-122h-502z" />
    <glyph glyph-name="uni208C" unicode="&#x208c;" horiz-adv-x="665" 
d="M82 276v123h502v-123h-502zM82 31v123h502v-123h-502z" />
    <glyph glyph-name="uni208D" unicode="&#x208d;" horiz-adv-x="399" 
d="M348 735q-145 -219 -145 -516t145 -516h-141q-125 210 -125 516t125 516h141z" />
    <glyph glyph-name="uni208E" unicode="&#x208e;" horiz-adv-x="399" 
d="M51 733h142q124 -208 124 -516t-124 -516h-142q146 221 146 516t-146 516z" />
    <glyph glyph-name="uni208F" unicode="&#x208f;" horiz-adv-x="827" 
d="M123 430h123v-84q82 96 198 96q117 0 189 -72.5t72 -189.5v-364h-123v340q0 80 -37.5 123t-112.5 43q-79 0 -132.5 -53.5t-53.5 -141.5v-311h-123v614z" />
    <glyph glyph-name="franc" unicode="&#x20a3;" horiz-adv-x="1257" 
d="M225 1475h930v-164h-766v-451h684v-164h-684v-245h285v-164h-285v-287h-164v287h-112v164h112v1024z" />
    <glyph glyph-name="lira" unicode="&#x20a4;" horiz-adv-x="1107" 
d="M715 1495q183 0 352 -98l-59 -154q-144 88 -293 88q-154 0 -220.5 -80.5t-66.5 -267.5v-82h440v-164h-440v-164h440v-163h-442q-15 -168 -115 -246h721v-164h-981v164q89 13 142 76.5t67 169.5h-199v163h203v164h-203v164h203v82q0 512 451 512z" />
    <glyph glyph-name="peseta" unicode="&#x20a7;" horiz-adv-x="2088" 
d="M768 1311h-420v-635h418q129 0 213 90t84 227q0 138 -83.5 228t-211.5 90zM184 0v1475h582q201 0 331 -136.5t130 -345.5t-130 -345t-331 -136h-418v-512h-164zM1716 1298h-164v-211q0 -28 -17 -45.5t-46 -17.5h-139v-164h202v-524q0 -193 67.5 -274.5t227.5 -81.5
q85 0 160 20v158q-96 -15 -149 -15q-85 0 -113.5 40t-28.5 159v518h291v164h-291v274z" />
    <glyph glyph-name="Euro" unicode="&#x20ac;" horiz-adv-x="1169" 
d="M758 1495q200 0 370 -98l-59 -154q-144 88 -311 88q-174 0 -291 -94t-166 -254h608v-164h-639q-4 -54 -4 -82t4 -82h639v-163h-608q49 -160 166 -254.5t291 -94.5q167 0 311 88l59 -153q-170 -98 -370 -98q-241 0 -404.5 140.5t-222.5 371.5h-111v163h86q-4 54 -4 82
t4 82h-86v164h111q59 231 222.5 371.5t404.5 140.5z" />
    <glyph glyph-name="uni20AE" unicode="&#x20ae;" horiz-adv-x="1359" 
d="M92 1311v164h1176v-164h-506v-277l244 148l86 -140l-330 -200v-226l244 150l86 -141l-330 -199v-426h-164v326l-256 -156l-86 141l342 207v225l-256 -155l-86 139l342 207v377h-506z" />
    <glyph glyph-name="uni20B4" unicode="&#x20b4;" horiz-adv-x="1503" 
d="M764 1495q223 0 361.5 -106.5t138.5 -278.5q0 -69 -25 -127h191v-164h-349q-46 -27 -113 -53t-108 -38.5t-129 -37.5q-147 -45 -215 -76h914v-163h-1088q-4 -28 -4 -50q0 -109 113.5 -183.5t283.5 -74.5q295 0 482 187l63 -164q-216 -186 -545 -186q-242 0 -402.5 120
t-160.5 301q0 18 4 50h-104v163h170q60 77 174 134q66 35 180 71h-524v164h960q68 51 68 127q0 100 -93 160.5t-245 60.5q-202 0 -434 -129l-60 154q261 139 496 139z" />
    <glyph glyph-name="uni20B8" unicode="&#x20b8;" horiz-adv-x="1196" 
d="M92 1126h1012v-163h-424v-963h-164v963h-424v163zM1104 1311h-1012v164h1012v-164z" />
    <glyph glyph-name="uni20BD" unicode="&#x20bd;" horiz-adv-x="1275" 
d="M1153 1053q0 -82 -26 -156.5t-77.5 -135t-138 -96.5t-196.5 -36h-326v-178h285v-164h-285v-287h-164v287h-112v164h112v178h-112v164h112v682h490q110 0 196.5 -36t137.5 -96.5t77.5 -134t26.5 -155.5zM989 1053q0 50 -15.5 95t-47 82t-86 59t-125.5 22h-326v-518h326
q71 0 125.5 22t86 60t47 83t15.5 95z" />
    <glyph glyph-name="uni2113" unicode="&#x2113;" horiz-adv-x="921" 
d="M502 1495q68 0 131 -24t114.5 -69.5t82 -120.5t30.5 -169q0 -96 -32 -182.5t-82.5 -152t-126 -127.5t-148 -105.5t-162.5 -87.5v-95q0 -115 64 -166t168 -53q101 0 209 41l61 -149q-122 -55 -262 -55q-82 0 -153.5 22.5t-129 67t-90.5 119.5t-33 173v21
q-25 -11 -67.5 -29.5t-59.5 -25.5v184q76 30 127 51v549q0 94 30.5 169t82 120.5t114.5 69.5t132 24zM502 1333q-79 0 -136.5 -57t-56.5 -164v-471q84 44 148.5 90.5t120.5 104.5t86 129t30 149q0 106 -56.5 162.5t-135.5 56.5z" />
    <glyph glyph-name="uni2116" unicode="&#x2116;" horiz-adv-x="2277" 
d="M184 1475h158l817 -1178v1178h164v-1475h-158l-817 1178v-1178h-164v1475zM1597 1176q0 82 57.5 139t139.5 57t139.5 -57t57.5 -139t-57.5 -139.5t-139.5 -57.5t-139.5 57.5t-57.5 139.5zM1475 1176q0 -132 93.5 -226t225.5 -94t226 94t94 226t-94 225.5t-226 93.5
t-225.5 -93.5t-93.5 -225.5zM1491 616v121h606v-121h-606z" />
    <glyph glyph-name="uni2117" unicode="&#x2117;" horiz-adv-x="1699" 
d="M860 1495q154 0 294.5 -60t242 -161.5t161.5 -242t60 -294.5t-60 -294t-161.5 -241.5t-242 -161.5t-294.5 -60t-294.5 60t-242 161.5t-161.5 241.5t-60 294t60 294.5t161.5 242t242 161.5t294.5 60zM860 1368q-128 0 -245 -50t-201.5 -134.5t-134.5 -201.5t-50 -245
t50 -245t134.5 -201.5t201.5 -134.5t245 -50t245 50t201.5 134.5t134.5 201.5t50 245t-50 245t-134.5 201.5t-201.5 134.5t-245 50zM745 1032v-293h205q58 0 96.5 41.5t38.5 106.5t-37.5 105t-95.5 40h-207zM606 1171h344q118 0 195.5 -80.5t77.5 -203.5q0 -124 -77 -204.5
t-196 -80.5h-205v-303h-139v872z" />
    <glyph glyph-name="trademark" unicode="&#x2122;" horiz-adv-x="1480" 
d="M862 909h-106v566h100l201 -347l200 347h101v-566h-107v340l-153 -266h-80l-156 266v-340zM123 1475h493v-107h-192v-459h-107v459h-194v107z" />
    <glyph glyph-name="estimated" unicode="&#x212e;" horiz-adv-x="1173" 
d="M602 1044q150 0 263 -72t170 -191.5t57 -268.5q0 -14 -5 -76h-745v-231q113 -101 289 -101q198 0 321 129l86 -88q-152 -165 -403 -165q-116 0 -217.5 39t-175.5 108.5t-117 169t-43 215.5q0 148 65.5 269.5t185 192t269.5 70.5zM602 922q-151 0 -260 -97v-266h498v275
q-94 88 -238 88z" />
    <glyph glyph-name="uni2150" unicode="&#x2150;" horiz-adv-x="2056" 
d="M1389 1475h174l-1022 -1475h-174zM123 1321l254 154h112v-869h-122v721l-183 -110zM1362 868h571v-102l-352 -766h-135l344 748h-428v120z" />
    <glyph glyph-name="uni2151" unicode="&#x2151;" horiz-adv-x="2035" 
d="M1389 1475h174l-1022 -1475h-174zM123 1321l254 154h112v-869h-122v721l-183 -110zM1608 889q126 0 215.5 -89.5t89.5 -215.5q0 -94 -45 -162l-281 -422h-145l186 279h-20q-126 0 -215.5 89.5t-89.5 215.5t89.5 215.5t215.5 89.5zM1608 766q-75 0 -129 -53.5t-54 -128.5
t54 -129t129 -54q76 0 129 54t53 129t-53.5 128.5t-128.5 53.5z" />
    <glyph glyph-name="onethird" unicode="&#x2153;" horiz-adv-x="2023" 
d="M1389 1475h174l-1022 -1475h-174zM123 1321l254 154h112v-869h-122v721l-183 -110zM1368 868h498v-96l-199 -233q105 -20 169.5 -97t64.5 -184q0 -123 -82 -200.5t-211 -77.5q-101 0 -180 61.5t-113 161.5l110 33q21 -64 71 -100t112 -36q76 0 123 43.5t47 114.5
q0 73 -50.5 119.5t-130.5 46.5q-19 0 -43 -4l-59 92l197 236h-324v120z" />
    <glyph glyph-name="twothirds" unicode="&#x2154;" horiz-adv-x="2129" 
d="M1495 1475h174l-1022 -1475h-174zM123 1292q32 94 108 148.5t177 54.5q123 0 200.5 -72t77.5 -190q0 -79 -41 -153t-137 -162l-195 -183h385v-121h-569v105l291 285q47 46 71 72t48 71.5t24 89.5q0 63 -41 99t-112 36q-135 0 -183 -135zM1475 868h497v-96l-198 -233
q105 -20 169 -97t64 -184q0 -123 -82 -200.5t-211 -77.5q-101 0 -180 61.5t-113 161.5l111 33q22 -64 71 -100t111 -36q76 0 123 43.5t47 114.5q0 73 -50 119.5t-130 46.5q-19 0 -43 -4l-59 92l196 236h-323v120z" />
    <glyph glyph-name="uni2155" unicode="&#x2155;" horiz-adv-x="2056" 
d="M1389 1475h174l-1022 -1475h-174zM123 1321l254 154h112v-869h-122v721l-183 -110zM1409 868h483v-123h-368l-15 -163q74 16 125 16q133 0 216 -82.5t83 -218.5q0 -150 -90 -233.5t-217 -83.5q-99 0 -178.5 53.5t-114.5 156.5l115 46q23 -66 71.5 -101t108.5 -35
q77 0 130 51t54 146q0 85 -49 131.5t-133 46.5q-60 0 -131 -29h-123z" />
    <glyph glyph-name="uni2156" unicode="&#x2156;" horiz-adv-x="2162" 
d="M1495 1475h174l-1022 -1475h-174zM123 1292q32 94 108 148.5t177 54.5q122 0 200 -74t78 -192q0 -79 -41.5 -154.5t-136.5 -165.5l-195 -184h385v-119h-569v103l291 286q44 43 70 72.5t49.5 75.5t23.5 90q0 63 -41.5 101t-111.5 38q-135 0 -183 -135zM1516 868h483v-120
h-369l-14 -166q74 16 125 16q133 0 216 -82.5t83 -218.5q0 -150 -90 -233.5t-217 -83.5q-99 0 -178.5 53.5t-114.5 156.5l114 46q23 -66 71.5 -101t109.5 -35q77 0 130 51t54 146q0 85 -49 131.5t-133 46.5q-60 0 -131 -29h-123z" />
    <glyph glyph-name="uni2157" unicode="&#x2157;" horiz-adv-x="2158" 
d="M176 1475h498v-97l-199 -233q105 -20 169.5 -97t64.5 -184q0 -123 -82 -200.5t-211 -77.5q-103 0 -181 56.5t-112 154.5l110 45q21 -64 70.5 -99.5t112.5 -35.5q76 0 123 43t47 114q0 73 -50 119.5t-130 46.5q-20 0 -44 -4l-59 92l197 236h-324v121zM1470 1475h175
l-1022 -1475h-174zM1511 868h484v-120h-369l-14 -166q74 16 125 16q133 0 216 -82.5t83 -218.5q0 -150 -90 -233.5t-217 -83.5q-99 0 -178.5 53.5t-114.5 156.5l114 46q23 -66 71.5 -101t109.5 -35q77 0 130 51t54 146q0 85 -49 131.5t-133 46.5q-60 0 -131 -29h-123z" />
    <glyph glyph-name="uni2158" unicode="&#x2158;" horiz-adv-x="2211" 
d="M1565 1475h174l-1022 -1475h-174zM1565 868h483v-120h-369l-14 -166q74 16 125 16q133 0 216 -82.5t83 -218.5q0 -150 -90 -233.5t-217 -83.5q-99 0 -178.5 53.5t-114.5 156.5l115 46q23 -66 71.5 -101t108.5 -35q77 0 130 51t54 146q0 85 -49 131.5t-133 46.5
q-60 0 -131 -29h-123zM567 1118h123v-205h107v-122h-107v-185h-123v185h-444v104l330 580h141l-318 -562h291v205z" />
    <glyph glyph-name="uni2159" unicode="&#x2159;" horiz-adv-x="1957" 
d="M1389 1475h174l-1022 -1475h-174zM123 1321l254 154h112v-869h-122v721l-183 -110zM1225 285q0 93 45 161l280 422h146l-185 -278h19q126 0 215.5 -89.5t89.5 -215.5t-89.5 -215.5t-215.5 -89.5t-215.5 89.5t-89.5 215.5zM1348 285q0 -75 53.5 -129t128.5 -54t128.5 54
t53.5 129t-53.5 128.5t-128.5 53.5t-128.5 -53.5t-53.5 -128.5z" />
    <glyph glyph-name="uni215A" unicode="&#x215a;" horiz-adv-x="2043" 
d="M1477 1475h174l-1022 -1475h-174zM199 1475h483v-121h-369l-14 -166q74 16 125 16q133 0 216 -82.5t83 -218.5q0 -150 -90 -233.5t-217 -83.5q-98 0 -178 54t-115 157l115 45q23 -66 71 -100.5t109 -34.5q77 0 130 50.5t54 145.5q0 85 -49 131.5t-133 46.5
q-63 0 -131 -28h-123zM1311 285q0 93 45 161l280 422h146l-185 -278h19q126 0 215.5 -89.5t89.5 -215.5t-89.5 -215.5t-215.5 -89.5t-215.5 89.5t-89.5 215.5zM1434 285q0 -75 53.5 -129t128.5 -54t128.5 54t53.5 129t-53.5 128.5t-128.5 53.5t-128.5 -53.5t-53.5 -128.5z
" />
    <glyph glyph-name="oneeighth" unicode="&#x215b;" horiz-adv-x="2066" 
d="M1389 1475h174l-1022 -1475h-174zM123 1321l254 154h112v-869h-122v721l-183 -110zM1620 889q133 0 214 -67.5t81 -182.5q0 -122 -111 -193q140 -65 140 -213q0 -116 -82.5 -184.5t-241.5 -68.5q-160 0 -243 68.5t-83 184.5q0 147 140 213q-111 71 -111 193
q0 115 81.5 182.5t215.5 67.5zM1620 375q-93 0 -149 -37.5t-56 -101.5q0 -136 205 -136q203 0 203 136q0 64 -55 101.5t-148 37.5zM1620 766q-83 0 -128.5 -33.5t-45.5 -95.5q0 -58 48.5 -93.5t125.5 -35.5t124.5 35.5t47.5 93.5q0 61 -45 95t-127 34z" />
    <glyph glyph-name="threeeighths" unicode="&#x215c;" horiz-adv-x="2148" 
d="M176 1475h498v-97l-199 -233q105 -20 169.5 -97t64.5 -184q0 -123 -82 -200.5t-211 -77.5q-103 0 -181 56.5t-112 154.5l110 45q21 -64 70.5 -99.5t112.5 -35.5q76 0 123 43t47 114q0 73 -50 119.5t-130 46.5q-20 0 -44 -4l-59 92l197 236h-324v121zM1470 1475h175
l-1022 -1475h-174zM1702 889q133 0 214 -67.5t81 -182.5q0 -122 -111 -193q139 -64 139 -213q0 -117 -82 -185t-241 -68q-160 0 -243 68.5t-83 184.5q0 147 140 213q-111 71 -111 193q0 115 81.5 182.5t215.5 67.5zM1702 375q-93 0 -149 -37.5t-56 -101.5q0 -136 205 -136
q203 0 203 136q0 64 -55 101.5t-148 37.5zM1702 766q-83 0 -128.5 -33.5t-45.5 -95.5q0 -58 48.5 -93.5t125.5 -35.5t124.5 35.5t47.5 93.5q0 61 -45 95t-127 34z" />
    <glyph glyph-name="fiveeighths" unicode="&#x215d;" horiz-adv-x="2154" 
d="M1477 1475h174l-1022 -1475h-174zM199 1475h483v-123h-369l-14 -164q74 16 125 16q133 0 216 -82.5t83 -218.5q0 -150 -90 -233.5t-217 -83.5q-98 0 -178 54t-115 157l115 45q23 -66 71 -100.5t109 -34.5q77 0 130 50.5t54 145.5q0 85 -49 131.5t-133 46.5
q-63 0 -131 -28h-123zM1708 889q133 0 214 -67.5t81 -182.5q0 -122 -111 -193q140 -65 140 -213q0 -116 -82.5 -184.5t-241.5 -68.5q-160 0 -243 68.5t-83 184.5q0 147 140 213q-111 71 -111 193q0 115 81.5 182.5t215.5 67.5zM1708 375q-93 0 -149 -37.5t-56 -101.5
q0 -136 205 -136q203 0 203 136q0 64 -55 101.5t-148 37.5zM1708 766q-83 0 -128.5 -33.5t-45.5 -95.5q0 -58 48.5 -93.5t125.5 -35.5t124.5 35.5t47.5 93.5q0 61 -45 95t-127 34z" />
    <glyph glyph-name="seveneighths" unicode="&#x215e;" horiz-adv-x="2007" 
d="M1329 1475h174l-1022 -1475h-174zM123 1475h571v-105l-352 -764h-135l344 746h-428v123zM1561 889q133 0 213.5 -67.5t80.5 -182.5q0 -123 -110 -193q139 -64 139 -213q0 -117 -82 -185t-241 -68q-160 0 -243 68.5t-83 184.5q0 147 139 213q-110 70 -110 193
q0 115 81.5 182.5t215.5 67.5zM1561 375q-93 0 -149 -37.5t-56 -101.5q0 -136 205 -136q202 0 202 136q0 64 -54.5 101.5t-147.5 37.5zM1561 766q-83 0 -129 -34t-46 -95q0 -58 49 -93.5t126 -35.5t124.5 35.5t47.5 93.5q0 61 -45 95t-127 34z" />
    <glyph glyph-name="partialdiff" unicode="&#x2202;" horiz-adv-x="1163" 
d="M82 451q0 227 155 373.5t394 146.5q84 0 209 -23q-70 140 -205 256q-143 122 -340 189l61 151q228 -67 410 -231q148 -136 231.5 -317.5t83.5 -381.5q1 -174 -65.5 -318t-192 -230t-284.5 -86q-198 0 -327.5 133t-129.5 338zM246 455q0 -134 81.5 -223t204.5 -89
q165 0 276.5 131.5t111.5 325.5q0 80 -21 180q-135 27 -244 27q-183 0 -296 -97.5t-113 -254.5z" />
    <glyph glyph-name="product" unicode="&#x220f;" horiz-adv-x="1556" 
d="M184 -453v1928h1188v-1928h-164v1764h-860v-1764h-164z" />
    <glyph glyph-name="summation" unicode="&#x2211;" horiz-adv-x="1269" 
d="M82 1475h1106v-164h-895l541 -758v-84l-543 -756h897v-164h-1106v152l580 811l-580 811v152z" />
    <glyph glyph-name="minus" unicode="&#x2212;" horiz-adv-x="1042" 
d="M102 655v164h838v-164h-838z" />
    <glyph glyph-name="uni2215" unicode="&#x2215;" horiz-adv-x="489" 
d="M674 1475h164l-1022 -1475h-164z" />
    <glyph glyph-name="uni2219" unicode="&#x2219;" horiz-adv-x="395" 
d="M197 852q49 0 82.5 -33.5t33.5 -81.5t-33.5 -81t-82.5 -33q-47 0 -81 33.5t-34 80.5t34 81t81 34z" />
    <glyph glyph-name="radical" unicode="&#x221a;" horiz-adv-x="1476" 
d="M102 805h320l285 -596l589 1266h181l-689 -1475h-163l-306 641h-217v164z" />
    <glyph glyph-name="infinity" unicode="&#x221e;" horiz-adv-x="1914" 
d="M123 657q0 160 112.5 273.5t272.5 113.5q83 0 153 -19t125.5 -55.5t97 -76t85.5 -94.5q43 55 83 94.5t93 76t119 55.5t143 19q159 0 272 -113t113 -272q0 -160 -113 -274.5t-272 -114.5q-77 0 -143 19t-120 56t-94.5 76.5t-84.5 94.5q-43 -55 -83.5 -94.5t-96 -76.5
t-125 -56t-152.5 -19q-160 0 -272.5 113.5t-112.5 273.5zM283 657q0 -92 66.5 -158.5t158.5 -66.5q110 0 189.5 57t160.5 164q-84 112 -163 171t-187 59q-92 0 -158.5 -66.5t-66.5 -159.5zM1407 883q-58 0 -107 -16.5t-90.5 -50t-72 -68t-68.5 -86.5q39 -55 69.5 -90
t72.5 -70.5t90.5 -52.5t105.5 -17q93 0 159 66t66 159q0 92 -66.5 159t-158.5 67z" />
    <glyph glyph-name="integral" unicode="&#x222b;" horiz-adv-x="1028" 
d="M295 -141l231 1317q30 171 131.5 245t274.5 74h65l-16 -164h-49q-105 0 -164.5 -35.5t-75.5 -126.5l-233 -1323q-30 -169 -131 -243t-273 -74h-35l15 164h20q104 0 164 36.5t76 129.5z" />
    <glyph glyph-name="approxequal" unicode="&#x2248;" horiz-adv-x="1357" 
d="M449 1085q58 0 113 -19.5t98.5 -47t85 -55t87 -47t89.5 -19.5q135 0 194 143l150 -73q-50 -110 -142.5 -172t-210.5 -62q-58 0 -114 19.5t-99.5 47.5t-84.5 55.5t-86.5 47t-88.5 19.5q-70 0 -120.5 -41t-77.5 -115l-150 76q47 114 141.5 178.5t215.5 64.5zM449 655
q58 0 113 -19.5t98.5 -47t85 -55t87 -47t89.5 -19.5q135 0 194 143l150 -73q-50 -110 -142.5 -172t-210.5 -62q-58 0 -114 19.5t-99.5 47.5t-84.5 55.5t-86.5 47t-88.5 19.5q-70 0 -120.5 -41t-77.5 -115l-150 76q47 114 141.5 178.5t215.5 64.5z" />
    <glyph glyph-name="notequal" unicode="&#x2260;" horiz-adv-x="1042" 
d="M102 1004h480l116 245h152l-117 -245h207v-164h-285l-96 -205h381v-164h-459l-116 -246h-152l115 246h-226v164h304l98 205h-402v164z" />
    <glyph glyph-name="lessequal" unicode="&#x2264;" horiz-adv-x="1042" 
d="M92 942l858 338v-178l-610 -240l610 -239v-179l-858 338v160zM92 348h858v-164h-858v164z" />
    <glyph glyph-name="greaterequal" unicode="&#x2265;" horiz-adv-x="1042" 
d="M950 942v-160l-858 -338v179l610 239l-610 240v178zM92 348h858v-164h-858v164z" />
    <glyph glyph-name="lozenge" unicode="&#x25ca;" horiz-adv-x="1064" 
d="M72 739l383 736h153l385 -736l-385 -739h-153zM807 739l-275 529l-274 -529l274 -532z" />
    <glyph glyph-name="uniE000" unicode="&#xe000;" horiz-adv-x="2195" 
d="M176 641q0 76 135 90q0 35 -37 35q-19 0 -63 -23l-27 48q52 30 105 30q94 0 94 -108v-138h-57l-7 25h-2q-31 -31 -69 -31q-32 0 -52 21t-20 51zM1614 238h-35q-9 80 27 143q19 35 40.5 48t61.5 13h143q17 0 29 9l18 32q74 -35 111 -96q21 -35 22 -58.5t-20 -60.5
l-72 -125q-9 -14 -6 -30l19 -31q-65 -47 -140 -47q-39 -2 -60.5 10t-41.5 47l-74 125q-8 15 -22 21zM1835 96q12 -22 22.5 -27.5t32.5 1.5q32 16 35 18l-37 64q-37 -23 -69 -25zM1806 147q38 -3 72 21q-8 16 -12 22q-10 33 2 52l47 84q-17 32 -53 51q-4 -5 -9.5 -13.5
t-5.5 -9.5q-4 -5 -8.5 -9t-8 -6.5t-9.5 -4t-8.5 -2.5t-9.5 -1.5t-9 -0.5h-11h-11h-66q-19 -36 -16 -72q4 0 12 -1t12 -1q28 -5 45 -27zM1669 258q-3 34 14 72h-53q-20 -3 -25.5 -13.5t-7.5 -35.5q-2 -8 -2 -23h74zM1647 238q5 -5 8 -11l71 -127q19 -29 35.5 -38t50.5 -9
q11 0 31 4q-11 7 -22 25q-3 6 -33 60t-45 75q-14 17 -33 19q-20 2 -63 2zM1917 141q0 1 6 13l72 125q17 31 16.5 49.5t-18.5 48.5q-3 4 -8.5 12t-8.5 12q-4 -16 -8 -22l-67 -119q-2 -4 -8.5 -15t-8.5 -15.5t-2 -13.5t4 -19q10 -22 31 -56zM1653 350h119q13 -1 23.5 -1
t20 4.5t17.5 15.5q13 18 31 53h-13h-143q-34 0 -51 -10.5t-35 -40.5q-2 -4 -6 -13.5t-6 -13.5q16 6 43 6zM1952 387q13 32 -15 51q-7 5 -30 19l-37 -64q31 -15 57 -47q11 17 25 41zM164 113l33 45q31 -25 61 -25q31 0 31 21q0 3 -1.5 6t-4 5.5t-5.5 4.5t-8 4.5t-9 4
t-10.5 3.5t-10.5 4q-64 26 -64 72q0 34 25.5 54t66.5 20q43 0 84 -29l-30 -43q-32 21 -52 21q-26 0 -26 -21q0 -2 0.5 -4t2.5 -4t3.5 -4t5 -3.5t5.5 -3t6.5 -3.5t7 -3t8 -3t8.5 -3q65 -21 65 -71q0 -34 -26 -56t-74 -22q-46 0 -92 33zM414 172v98h-33v54l37 4l8 63h59v-63
h58v-58h-58v-96q0 -39 31 -39q14 0 23 6l10 -53q-24 -8 -53 -8q-82 0 -82 92zM590 176v152h72v-142q0 -26 6.5 -35.5t23.5 -9.5q24 0 43 27v160h72v-242h-59l-7 33q-31 -39 -75 -39q-76 0 -76 96zM858 207q0 56 30 90.5t70 34.5q35 0 60 -25l-2 37v82h71v-340h-59l-4 23h-2
q-29 -29 -64 -29q-46 0 -73 33.5t-27 93.5zM932 207q0 -70 45 -70q22 0 39 23v98q-19 16 -41 16q-18 0 -30.5 -17.5t-12.5 -49.5zM1188 362q-18 0 -29.5 11t-11.5 26q0 17 11 27t30 10t30 -10t11 -27q0 -15 -11.5 -26t-29.5 -11zM1153 86v242h72v-242h-72zM1276 207
q0 57 35 91t82 34q48 0 82 -33.5t34 -91.5t-34 -92.5t-82 -34.5q-47 0 -82 35t-35 92zM1350 207q0 -70 43 -70q45 0 45 70q0 67 -45 67q-43 0 -43 -67zM246 647q0 -22 26 -22q19 0 39 20v43q-65 -10 -65 -41zM463 649v266h72v-268q0 -20 12 -20q4 0 8 2l10 -54
q-12 -6 -37 -6q-65 0 -65 80zM655 852q-19 0 -30 10t-11 27t11 27t30 10t30 -10t11 -27t-11 -27t-30 -10zM621 575v242h71v-242h-71zM784 815v14q0 41 22 67t68 26q26 0 48 -9l-13 -53q-8 4 -26 4q-27 0 -27 -33v-14h43v-57h-43v-185h-72v185h-30v53zM983 852q-19 0 -31 10
t-12 27t12 27t31 10t30 -10t11 -27t-11 -27t-30 -10zM946 575v242h72v-242h-72zM1100 575v242h57l6 -33q43 37 78 37q76 0 76 -96v-150h-72v140q0 47 -31 47q-21 0 -43 -25v-162h-71zM1386 641q0 76 136 90q-4 35 -37 35q-18 0 -66 -23l-24 48q52 30 104 30q94 0 94 -108
v-138h-57l-6 25h-2q-34 -31 -70 -31q-32 0 -52 21t-20 51zM1454 647q0 -22 29 -22q19 0 39 20v43q-68 -11 -68 -41zM1673 575v242h58l6 -43h2q23 47 67 47q17 0 29 -4l-12 -61q-16 4 -25 4q-37 0 -53 -45v-140h-72zM1894 664v96h-32v53l36 4l9 64h59v-64h57v-57h-57v-96
q0 -39 31 -39q13 0 22 6l13 -53q-32 -9 -54 -9q-84 0 -84 95z" />
    <glyph glyph-name="uniE001" unicode="&#xe001;" horiz-adv-x="892" 
d="M123 1040q0 212 91.5 333.5t252.5 121.5t252.5 -121.5t91.5 -333.5t-91.5 -333t-252.5 -121t-252.5 121t-91.5 333zM244 1040q0 -165 59.5 -246t163.5 -81t163.5 81t59.5 246t-59.5 246.5t-163.5 81.5t-163.5 -81.5t-59.5 -246.5z" />
    <glyph glyph-name="uniE002" unicode="&#xe002;" horiz-adv-x="632" 
d="M123 1321l254 154h112v-869h-122v721l-183 -110z" />
    <glyph glyph-name="uniE003" unicode="&#xe003;" horiz-adv-x="800" 
d="M123 1292q32 94 108 148.5t177 54.5q122 0 200 -74t78 -192q0 -80 -41.5 -156.5t-136.5 -163.5l-195 -182h385v-121h-569v105l291 284q44 43 70 72.5t49.5 75.5t23.5 90q0 63 -41.5 101t-111.5 38q-135 0 -183 -135z" />
    <glyph glyph-name="uniE004" unicode="&#xe004;" horiz-adv-x="780" 
d="M176 1475h498v-99l-199 -231q105 -20 169.5 -97t64.5 -184q0 -123 -82 -200.5t-211 -77.5q-101 0 -180 61.5t-113 161.5l110 33q21 -64 70.5 -99.5t112.5 -35.5q76 0 123 43t47 114q0 73 -50 119.5t-130 46.5q-20 0 -44 -4l-59 92l197 234h-324v123z" />
    <glyph glyph-name="uniE005" unicode="&#xe005;" horiz-adv-x="847" 
d="M567 1118h123v-205h107v-122h-107v-185h-123v185h-444v104l330 580h141l-318 -562h291v205z" />
    <glyph glyph-name="uniE006" unicode="&#xe006;" horiz-adv-x="794" 
d="M199 1475h483v-123h-369l-14 -164q74 16 125 16q133 0 216 -82.5t83 -218.5q0 -150 -90 -233.5t-217 -83.5q-98 0 -178 54t-115 157l115 45q23 -66 71 -100.5t109 -34.5q77 0 130 50.5t54 145.5q0 85 -49 131.5t-133 46.5q-63 0 -131 -28h-123z" />
    <glyph glyph-name="uniE007" unicode="&#xe007;" horiz-adv-x="815" 
d="M123 891q0 94 45 162l281 422h145l-184 -279h18q126 0 215.5 -89.5t89.5 -215.5t-89.5 -215.5t-215.5 -89.5t-215.5 89.5t-89.5 215.5zM246 891q0 -75 53.5 -128.5t128.5 -53.5t128.5 53.5t53.5 128.5t-53.5 128.5t-128.5 53.5t-128.5 -53.5t-53.5 -128.5z" />
    <glyph glyph-name="uniE008" unicode="&#xe008;" horiz-adv-x="776" 
d="M123 1475h571v-105l-352 -764h-135l344 746h-428v123z" />
    <glyph glyph-name="uniE009" unicode="&#xe009;" horiz-adv-x="854" 
d="M449 1495q133 0 213.5 -67.5t80.5 -180.5q0 -124 -110 -194q139 -64 139 -211q0 -118 -82 -187t-241 -69q-160 0 -243 69t-83 187q0 145 139 211q-110 70 -110 194q0 113 81.5 180.5t215.5 67.5zM449 981q-93 0 -149 -37t-56 -100q0 -137 205 -137q202 0 202 137
q0 63 -55 100t-147 37zM449 1372q-83 0 -129 -33.5t-46 -93.5q0 -59 49 -95t126 -36t124.5 35.5t47.5 95.5t-45 93.5t-127 33.5z" />
    <glyph glyph-name="uniE00A" unicode="&#xe00a;" horiz-adv-x="815" 
d="M428 1495q126 0 215.5 -89.5t89.5 -215.5q0 -94 -45 -162l-280 -422h-146l187 279h-21q-126 0 -215.5 89.5t-89.5 215.5t89.5 215.5t215.5 89.5zM428 1372q-75 0 -128.5 -53.5t-53.5 -128.5t53.5 -128.5t128.5 -53.5q76 0 129 53.5t53 128.5t-53.5 128.5t-128.5 53.5z
" />
    <glyph glyph-name="uniE00B" unicode="&#xe00b;" horiz-adv-x="892" 
d="M82 434q0 212 91.5 333.5t252.5 121.5t252.5 -121.5t91.5 -333.5t-91.5 -333t-252.5 -121t-252.5 121t-91.5 333zM203 434q0 -165 59.5 -246.5t163.5 -81.5t163.5 81.5t59.5 246.5t-59.5 246.5t-163.5 81.5t-163.5 -81.5t-59.5 -246.5z" />
    <glyph glyph-name="uniE00C" unicode="&#xe00c;" horiz-adv-x="571" 
d="M61 715l254 153h113v-868h-123v721l-182 -111z" />
    <glyph glyph-name="uniE00D" unicode="&#xe00d;" horiz-adv-x="776" 
d="M78 684q33 95 108.5 150t175.5 55q122 0 200.5 -74t78.5 -192q0 -80 -41.5 -156.5t-136.5 -163.5l-195 -182h385v-121h-569v104l291 285q44 43 70 72.5t49.5 75.5t23.5 90q0 63 -41.5 102t-111.5 39q-65 0 -112.5 -36t-70.5 -103z" />
    <glyph glyph-name="uniE00E" unicode="&#xe00e;" horiz-adv-x="749" 
d="M94 868h498v-96l-199 -233q105 -20 169.5 -97t64.5 -184q0 -123 -82 -200.5t-211 -77.5q-103 0 -181 56t-112 154l111 46q22 -64 71 -100t111 -36q76 0 123 43.5t47 114.5q0 73 -50 119.5t-130 46.5q-19 0 -43 -4l-60 92l197 236h-324v120z" />
    <glyph glyph-name="uniE00F" unicode="&#xe00f;" horiz-adv-x="858" 
d="M506 510h123v-205h106v-123h-106v-182h-123v182h-445v105l330 581h141l-317 -563h291v205z" />
    <glyph glyph-name="uniE010" unicode="&#xe010;" horiz-adv-x="763" 
d="M117 870h483v-122h-369l-14 -166q74 16 125 16q133 0 216 -82.5t83 -218.5q0 -150 -90 -233.5t-217 -83.5q-99 0 -178.5 53.5t-114.5 156.5l115 46q23 -66 71.5 -101t108.5 -35q77 0 130 51t54 146q0 85 -49 131.5t-133 46.5q-60 0 -131 -29h-123z" />
    <glyph glyph-name="uniE011" unicode="&#xe011;" horiz-adv-x="815" 
d="M82 285q0 88 45 161l281 424h145l-184 -280h18q126 0 215.5 -89.5t89.5 -215.5t-89.5 -215.5t-215.5 -89.5t-215.5 89.5t-89.5 215.5zM205 285q0 -75 53.5 -129t128.5 -54t128.5 54t53.5 129t-53.5 128.5t-128.5 53.5t-128.5 -53.5t-53.5 -128.5z" />
    <glyph glyph-name="uniE012" unicode="&#xe012;" horiz-adv-x="745" 
d="M51 868h572v-102l-353 -766h-135l344 748h-428v120z" />
    <glyph glyph-name="uniE013" unicode="&#xe013;" horiz-adv-x="854" 
d="M408 889q133 0 213.5 -67.5t80.5 -182.5q0 -123 -110 -193q139 -64 139 -213q0 -117 -82 -185t-241 -68q-160 0 -243 68.5t-83 184.5q0 147 139 213q-110 70 -110 193q0 115 81.5 182.5t215.5 67.5zM408 375q-93 0 -149 -37.5t-56 -101.5q0 -136 205 -136q202 0 202 136
q0 64 -54.5 101.5t-147.5 37.5zM408 766q-83 0 -129 -34t-46 -95q0 -58 49 -93.5t126 -35.5t124.5 35.5t47.5 93.5q0 61 -45 95t-127 34z" />
    <glyph glyph-name="uniE014" unicode="&#xe014;" horiz-adv-x="815" 
d="M387 889q126 0 215.5 -89.5t89.5 -215.5q0 -94 -45 -162l-280 -422h-146l187 279h-21q-126 0 -215.5 89.5t-89.5 215.5t89.5 215.5t215.5 89.5zM387 766q-75 0 -128.5 -53.5t-53.5 -128.5t53.5 -129t128.5 -54q76 0 129 54t53 129t-53.5 128.5t-128.5 53.5z" />
    <glyph glyph-name="uniE015" unicode="&#xe015;" horiz-adv-x="1300" 
d="M649 1270q146 0 259.5 -52.5t182 -143t103.5 -204.5t35 -245q0 -103 -21 -197t-67 -176t-113 -142.5t-164 -95t-215 -34.5q-117 0 -213.5 34.5t-163 95t-112.5 142.5t-67 176t-21 197q0 104 21 198t67 176t112.5 142t163 94.5t213.5 34.5zM649 1106q-106 0 -187 -38.5
t-129.5 -106t-72.5 -152t-24 -184.5q0 -99 24 -184t72.5 -152.5t129.5 -106.5t187 -39t188 39t130.5 106.5t73 152.5t24.5 184q0 100 -24.5 184.5t-73 152t-130.5 106t-188 38.5z" />
    <glyph glyph-name="uniE016" unicode="&#xe016;" horiz-adv-x="991" 
d="M41 993l422 256h147v-1085h340v-164h-882v164h378v883l-321 -193z" />
    <glyph glyph-name="uniE017" unicode="&#xe017;" horiz-adv-x="1093" 
d="M551 1270q198 0 314 -110.5t116 -289.5q0 -118 -63.5 -217t-223.5 -227l-325 -262h643v-164h-928v145l491 396q53 42 76 61.5t62.5 58t57 66t32 66.5t14.5 79q0 103 -73.5 168.5t-200.5 65.5q-118 0 -207 -59.5t-123 -174.5l-156 62q57 163 189.5 249.5t304.5 86.5z" />
    <glyph glyph-name="uniE018" unicode="&#xe018;" horiz-adv-x="1048" 
d="M109 1249h829v-145l-340 -416q180 -32 289.5 -160.5t109.5 -310.5q0 -203 -137 -333t-352 -130q-170 0 -300.5 94t-187.5 258l154 62q35 -114 126 -182t208 -68q146 0 236 82.5t90 216.5q0 139 -96.5 227t-248.5 88q-36 0 -67 -8l-80 119l365 442h-598v164z" />
    <glyph glyph-name="uniE019" unicode="&#xe019;" horiz-adv-x="1204" 
d="M592 1249h186l-532 -991h557v381h164v-381h196v-164h-196v-319h-164v319h-762v127z" />
    <glyph glyph-name="uniE01A" unicode="&#xe01a;" horiz-adv-x="1069" 
d="M145 1249h807v-164h-651l-27 -358q112 41 240 41q229 0 366.5 -140.5t137.5 -369.5q0 -215 -147 -359.5t-365 -144.5q-171 0 -300 93.5t-186 258.5l154 62q36 -115 125.5 -182.5t210.5 -67.5q148 0 245 96t97 244q2 161 -87.5 252.5t-252.5 91.5q-144 0 -274 -70h-146z
" />
    <glyph glyph-name="uniE01B" unicode="&#xe01b;" horiz-adv-x="1140" 
d="M571 -20q-212 0 -361 148.5t-149 360.5q0 149 76 267l467 719h197l-316 -484q43 6 86 6q138 0 255 -68t185 -185t68 -255q0 -139 -68 -256.5t-185 -185t-255 -67.5zM571 145q141 0 242.5 101t101.5 243q0 141 -101.5 243t-242.5 102q-144 0 -244 -101.5t-100 -243.5
q0 -143 100.5 -243.5t243.5 -100.5z" />
    <glyph glyph-name="uniE01C" unicode="&#xe01c;" horiz-adv-x="1005" 
d="M31 1249h934v-141l-547 -1333h-178l536 1310h-581v-204h-164v368z" />
    <glyph glyph-name="uniE01D" unicode="&#xe01d;" horiz-adv-x="1206" 
d="M602 1495q223 0 359.5 -112.5t136.5 -301.5q0 -207 -187 -323q234 -107 234 -352q0 -196 -138 -311t-405 -115q-266 0 -403.5 115t-137.5 311q0 244 232 352q-184 114 -184 323q0 189 135 301.5t358 112.5zM602 666q-164 0 -271.5 -68.5t-107.5 -191.5t92.5 -193
t286.5 -70q196 0 288.5 70t92.5 193t-108 191.5t-273 68.5zM602 1331q-153 0 -241.5 -66t-88.5 -184q0 -116 95 -184t235 -68q142 0 237 68t95 184q0 118 -89.5 184t-242.5 66z" />
    <glyph glyph-name="uniE01E" unicode="&#xe01e;" horiz-adv-x="1140" 
d="M571 1270q138 0 255 -68t185 -185.5t68 -256.5q0 -150 -75 -266l-467 -719h-197l315 483q-43 -6 -84 -6q-139 0 -256.5 68t-185.5 185t-68 255q0 212 149 361t361 149zM571 1104q-143 0 -243.5 -101t-100.5 -243q0 -141 101 -242.5t243 -101.5t243 101.5t101 242.5
q0 142 -101.5 243t-242.5 101z" />
    <glyph glyph-name="uniE01F" unicode="&#xe01f;" horiz-adv-x="1228" 
d="M61 737q0 353 149 555.5t404 202.5t404 -202.5t149 -555.5t-149 -555t-404 -202t-404 202t-149 555zM225 737q0 -285 102.5 -439.5t286.5 -154.5t287 154.5t103 439.5t-103 439.5t-287 154.5t-286.5 -154.5t-102.5 -439.5z" />
    <glyph glyph-name="uniE020" unicode="&#xe020;" horiz-adv-x="1228" 
d="M145 1219l424 256h146v-1311h381v-164h-965v164h420v1108l-320 -193z" />
    <glyph glyph-name="uniE021" unicode="&#xe021;" horiz-adv-x="1228" 
d="M252 1098l-154 61q54 155 179 245.5t288 90.5q200 0 334.5 -126.5t134.5 -313.5q0 -138 -69 -263.5t-226 -271.5l-383 -356h760v-164h-1018v145l523 488q132 124 190.5 224t58.5 198q0 118 -87 197t-218 79q-112 0 -195.5 -62t-117.5 -171z" />
    <glyph glyph-name="uniE022" unicode="&#xe022;" horiz-adv-x="1228" 
d="M193 1475h829v-146l-340 -416q180 -32 290.5 -160.5t110.5 -310.5q0 -203 -137 -332.5t-352 -129.5q-171 0 -302 94t-188 258l154 61q35 -114 126.5 -182t209.5 -68q145 0 235.5 83t90.5 216q0 139 -97 227.5t-248 88.5q-38 0 -69 -8l-78 118l363 443h-598v164z" />
    <glyph glyph-name="uniE023" unicode="&#xe023;" horiz-adv-x="1228" 
d="M647 1475h187l-533 -992h494v381h163v-381h197v-164h-197v-319h-163v319h-699v127z" />
    <glyph glyph-name="uniE024" unicode="&#xe024;" horiz-adv-x="1228" 
d="M231 1475h805v-164h-649l-29 -359q118 41 242 41q229 0 365.5 -140.5t136.5 -369.5q1 -215 -145 -359t-365 -144q-172 0 -301 94t-185 258l154 61q34 -115 123.5 -182.5t210.5 -67.5q148 0 246 96.5t98 243.5q0 161 -88.5 252.5t-251.5 91.5q-68 0 -143 -19t-131 -50
h-148z" />
    <glyph glyph-name="uniE025" unicode="&#xe025;" horiz-adv-x="1228" 
d="M627 -20q-138 0 -255 67.5t-185 185t-68 256.5q0 154 76 267l467 719h194l-313 -484q41 6 84 6q138 0 255.5 -68t186 -185t68.5 -255q0 -139 -68.5 -256.5t-186 -185t-255.5 -67.5zM627 145q143 0 243.5 100.5t100.5 243.5q0 141 -101 243t-243 102t-243 -102t-101 -243
q0 -143 100.5 -243.5t243.5 -100.5z" />
    <glyph glyph-name="uniE026" unicode="&#xe026;" horiz-adv-x="1228" 
d="M123 1475h979v-142l-547 -1333h-178l536 1311h-626v-205h-164v369z" />
    </font>
</defs>
</svg>
